Signika-Black.ufo
<glyph name="exclam" format="2">
  <advance width="622"/>
  <unicode hex="0021"/>
  <outline>
    <contour>
      <point x="178" y="422" type="curve"/>
      <point x="220" y="410"/>
      <point x="274" y="408"/>
      <point x="302" y="408" type="curve" smooth="yes"/>
      <point x="334" y="408"/>
      <point x="380" y="410"/>
      <point x="424" y="422" type="curve"/>
      <point x="444" y="678"/>
      <point x="484" y="932"/>
      <point x="484" y="1188" type="curve" smooth="yes"/>
      <point x="484" y="1364" type="line"/>
      <point x="394" y="1390"/>
      <point x="210" y="1390"/>
      <point x="120" y="1364" type="curve"/>
      <point x="120" y="1192" type="line" smooth="yes"/>
      <point x="120" y="932"/>
      <point x="154" y="678"/>
    </contour>
    <contour>
      <point x="302" y="286" type="curve" smooth="yes"/>
      <point x="246" y="286"/>
      <point x="188" y="274"/>
      <point x="148" y="252" type="curve"/>
      <point x="134" y="226"/>
      <point x="126" y="168"/>
      <point x="126" y="130" type="curve" smooth="yes"/>
      <point x="126" y="92"/>
      <point x="134" y="36"/>
      <point x="148" y="10" type="curve"/>
      <point x="188" y="-12"/>
      <point x="246" y="-24"/>
      <point x="302" y="-24" type="curve" smooth="yes"/>
      <point x="358" y="-24"/>
      <point x="416" y="-12"/>
      <point x="454" y="10" type="curve"/>
      <point x="470" y="36"/>
      <point x="478" y="92"/>
      <point x="478" y="130" type="curve" smooth="yes"/>
      <point x="478" y="168"/>
      <point x="470" y="226"/>
      <point x="454" y="252" type="curve"/>
      <point x="416" y="274"/>
      <point x="358" y="286"/>
    </contour>
  </outline>
</glyph>
<glyph name="numbersign" format="2">
  <advance width="1456"/>
  <unicode hex="0023"/>
  <outline>
    <contour>
      <point x="188" y="24" type="curve"/>
      <point x="476" y="1306" type="line"/>
      <point x="511" y="1322"/>
      <point x="566" y="1330"/>
      <point x="620" y="1330" type="curve" smooth="yes"/>
      <point x="675" y="1330"/>
      <point x="728" y="1322"/>
      <point x="760" y="1306" type="curve"/>
      <point x="472" y="24" type="line"/>
      <point x="437" y="8"/>
      <point x="382" y="0"/>
      <point x="328" y="0" type="curve" smooth="yes"/>
      <point x="274" y="0"/>
      <point x="220" y="8"/>
    </contour>
    <contour>
      <point x="708" y="24" type="curve"/>
      <point x="996" y="1306" type="line"/>
      <point x="1031" y="1322"/>
      <point x="1086" y="1330"/>
      <point x="1140" y="1330" type="curve" smooth="yes"/>
      <point x="1195" y="1330"/>
      <point x="1248" y="1322"/>
      <point x="1280" y="1306" type="curve"/>
      <point x="992" y="24" type="line"/>
      <point x="957" y="8"/>
      <point x="902" y="0"/>
      <point x="848" y="0" type="curve" smooth="yes"/>
      <point x="794" y="0"/>
      <point x="740" y="8"/>
    </contour>
    <contour>
      <point x="1302" y="258" type="curve"/>
      <point x="54" y="258" type="line"/>
      <point x="41" y="295"/>
      <point x="35" y="341"/>
      <point x="35" y="386" type="curve" smooth="yes"/>
      <point x="35" y="432"/>
      <point x="41" y="477"/>
      <point x="54" y="514" type="curve"/>
      <point x="1302" y="514" type="line"/>
      <point x="1315" y="477"/>
      <point x="1322" y="432"/>
      <point x="1322" y="386" type="curve" smooth="yes"/>
      <point x="1322" y="341"/>
      <point x="1315" y="295"/>
    </contour>
    <contour>
      <point x="1410" y="816" type="curve"/>
      <point x="162" y="816" type="line"/>
      <point x="149" y="853"/>
      <point x="143" y="899"/>
      <point x="143" y="944" type="curve" smooth="yes"/>
      <point x="143" y="990"/>
      <point x="149" y="1035"/>
      <point x="162" y="1072" type="curve"/>
      <point x="1410" y="1072" type="line"/>
      <point x="1423" y="1035"/>
      <point x="1430" y="990"/>
      <point x="1430" y="944" type="curve" smooth="yes"/>
      <point x="1430" y="899"/>
      <point x="1423" y="853"/>
    </contour>
  </outline>
</glyph>
<glyph name="dollar" format="2">
  <advance width="1080"/>
  <unicode hex="0024"/>
  <outline>
    <contour>
      <point x="503" y="39" type="curve" smooth="yes"/>
      <point x="762" y="39"/>
      <point x="947" y="176"/>
      <point x="947" y="393" type="curve" smooth="yes"/>
      <point x="947" y="572"/>
      <point x="838" y="689"/>
      <point x="682" y="749" type="curve" smooth="yes"/>
      <point x="522" y="811" type="line" smooth="yes"/>
      <point x="457" y="836"/>
      <point x="425" y="857"/>
      <point x="425" y="903" type="curve" smooth="yes"/>
      <point x="425" y="945"/>
      <point x="458" y="972"/>
      <point x="523" y="972" type="curve" smooth="yes"/>
      <point x="600" y="972"/>
      <point x="700" y="945"/>
      <point x="804" y="896" type="curve"/>
      <point x="869" y="950"/>
      <point x="915" y="1050"/>
      <point x="915" y="1140" type="curve"/>
      <point x="802" y="1196"/>
      <point x="670" y="1234"/>
      <point x="483" y="1234" type="curve" smooth="yes"/>
      <point x="268" y="1234"/>
      <point x="85" y="1093"/>
      <point x="85" y="869" type="curve" smooth="yes"/>
      <point x="85" y="699"/>
      <point x="208" y="603"/>
      <point x="351" y="549" type="curve" smooth="yes"/>
      <point x="515" y="487" type="line" smooth="yes"/>
      <point x="589" y="459"/>
      <point x="605" y="417"/>
      <point x="605" y="384" type="curve" smooth="yes"/>
      <point x="605" y="332"/>
      <point x="564" y="299"/>
      <point x="493" y="300" type="curve" smooth="yes"/>
      <point x="401" y="301"/>
      <point x="272" y="348"/>
      <point x="176" y="406" type="curve"/>
      <point x="113" y="368"/>
      <point x="60" y="244"/>
      <point x="58" y="163" type="curve"/>
      <point x="136" y="109"/>
      <point x="326" y="39"/>
    </contour>
    <contour>
      <point x="491" y="-128" type="curve" smooth="yes"/>
      <point x="536" y="-128"/>
      <point x="577" y="-124"/>
      <point x="606" y="-116" type="curve"/>
      <point x="606" y="152" type="line"/>
      <point x="374" y="152" type="line"/>
      <point x="374" y="-116" type="line"/>
      <point x="404" y="-124"/>
      <point x="446" y="-128"/>
    </contour>
    <contour>
      <point x="393" y="1121" type="line"/>
      <point x="625" y="1121" type="line"/>
      <point x="625" y="1388" type="line"/>
      <point x="595" y="1396"/>
      <point x="550" y="1400"/>
      <point x="509" y="1400" type="curve" smooth="yes"/>
      <point x="468" y="1400"/>
      <point x="424" y="1396"/>
      <point x="393" y="1388" type="curve"/>
    </contour>
  </outline>
</glyph>
<glyph name="percent" format="2">
  <advance width="2004"/>
  <unicode hex="0025"/>
  <outline>
    <contour>
      <point x="1916" y="412" type="curve" smooth="yes"/>
      <point x="1916" y="672"/>
      <point x="1819" y="848"/>
      <point x="1568" y="848" type="curve" smooth="yes"/>
      <point x="1314" y="848"/>
      <point x="1220" y="674"/>
      <point x="1220" y="412" type="curve" smooth="yes"/>
      <point x="1220" y="152"/>
      <point x="1309" y="-26"/>
      <point x="1568" y="-26" type="curve" smooth="yes"/>
      <point x="1821" y="-26"/>
      <point x="1916" y="148"/>
    </contour>
    <contour>
      <point x="1482" y="412" type="curve" smooth="yes"/>
      <point x="1482" y="546"/>
      <point x="1488" y="650"/>
      <point x="1568" y="650" type="curve" smooth="yes"/>
      <point x="1648" y="650"/>
      <point x="1654" y="546"/>
      <point x="1654" y="412" type="curve" smooth="yes"/>
      <point x="1654" y="278"/>
      <point x="1648" y="172"/>
      <point x="1568" y="172" type="curve" smooth="yes"/>
      <point x="1488" y="172"/>
      <point x="1482" y="278"/>
    </contour>
    <contour>
      <point x="784" y="860" type="curve" smooth="yes"/>
      <point x="784" y="1120"/>
      <point x="687" y="1296"/>
      <point x="436" y="1296" type="curve" smooth="yes"/>
      <point x="182" y="1296"/>
      <point x="88" y="1122"/>
      <point x="88" y="860" type="curve" smooth="yes"/>
      <point x="88" y="600"/>
      <point x="177" y="422"/>
      <point x="436" y="422" type="curve" smooth="yes"/>
      <point x="689" y="422"/>
      <point x="784" y="596"/>
    </contour>
    <contour>
      <point x="350" y="860" type="curve" smooth="yes"/>
      <point x="350" y="994"/>
      <point x="356" y="1098"/>
      <point x="436" y="1098" type="curve" smooth="yes"/>
      <point x="516" y="1098"/>
      <point x="522" y="994"/>
      <point x="522" y="860" type="curve" smooth="yes"/>
      <point x="522" y="726"/>
      <point x="516" y="620"/>
      <point x="436" y="620" type="curve" smooth="yes"/>
      <point x="356" y="620"/>
      <point x="350" y="726"/>
    </contour>
    <component base="fraction" xOffset="734"/>
  </outline>
</glyph>
<glyph name="ampersand" format="2">
  <advance width="1322"/>
  <unicode hex="0026"/>
  <outline>
    <contour>
      <point x="1060" y="854" type="curve" smooth="yes"/>
      <point x="670" y="854" type="line" smooth="yes"/>
      <point x="540" y="854"/>
      <point x="478" y="898"/>
      <point x="478" y="1002" type="curve" smooth="yes"/>
      <point x="478" y="1080"/>
      <point x="528" y="1140"/>
      <point x="634" y="1140" type="curve" smooth="yes"/>
      <point x="732" y="1140"/>
      <point x="832" y="1114"/>
      <point x="922" y="1084" type="curve" smooth="yes"/>
      <point x="978" y="1144"/>
      <point x="1010" y="1246"/>
      <point x="1006" y="1328" type="curve"/>
      <point x="894" y="1366"/>
      <point x="734" y="1396"/>
      <point x="574" y="1396" type="curve" smooth="yes"/>
      <point x="308" y="1396"/>
      <point x="136" y="1250"/>
      <point x="136" y="1030" type="curve" smooth="yes"/>
      <point x="136" y="852"/>
      <point x="258" y="716"/>
      <point x="424" y="712" type="curve"/>
      <point x="424" y="744" type="line"/>
      <point x="254" y="744"/>
      <point x="76" y="592"/>
      <point x="76" y="358" type="curve" smooth="yes"/>
      <point x="76" y="150"/>
      <point x="212" y="-30"/>
      <point x="468" y="-30" type="curve" smooth="yes"/>
      <point x="592" y="-30"/>
      <point x="704" y="16"/>
      <point x="778" y="84" type="curve"/>
      <point x="800" y="-4" type="line"/>
      <point x="836" y="-14"/>
      <point x="894" y="-20"/>
      <point x="948" y="-20" type="curve" smooth="yes"/>
      <point x="1006" y="-20"/>
      <point x="1060" y="-14"/>
      <point x="1098" y="0" type="curve"/>
      <point x="1090" y="96"/>
      <point x="1084" y="234"/>
      <point x="1084" y="322" type="curve" smooth="yes"/>
      <point x="1084" y="456" type="line" smooth="yes"/>
      <point x="1084" y="528"/>
      <point x="1082" y="636"/>
      <point x="1074" y="732" type="curve"/>
      <point x="772" y="732" type="line"/>
      <point x="764" y="636"/>
      <point x="762" y="528"/>
      <point x="762" y="456" type="curve" smooth="yes"/>
      <point x="762" y="296" type="line"/>
      <point x="722" y="262"/>
      <point x="656" y="222"/>
      <point x="564" y="222" type="curve" smooth="yes"/>
      <point x="486" y="222"/>
      <point x="418" y="270"/>
      <point x="418" y="390" type="curve" smooth="yes"/>
      <point x="418" y="520"/>
      <point x="500" y="578"/>
      <point x="646" y="578" type="curve" smooth="yes"/>
      <point x="1124" y="578" type="line" smooth="yes"/>
      <point x="1248" y="578"/>
      <point x="1318" y="632"/>
      <point x="1318" y="742" type="curve" smooth="yes"/>
      <point x="1318" y="802"/>
      <point x="1302" y="862"/>
      <point x="1276" y="894" type="curve"/>
      <point x="1216" y="868"/>
      <point x="1138" y="854"/>
    </contour>
  </outline>
</glyph>
<glyph name="quotesingle" format="2">
  <advance width="492"/>
  <unicode hex="0027"/>
  <outline>
    <contour>
      <point x="83" y="1440" type="curve" smooth="yes"/>
      <point x="83" y="1396"/>
      <point x="122" y="1176"/>
      <point x="158" y="980" type="curve"/>
      <point x="193" y="958"/>
      <point x="279" y="958"/>
      <point x="314" y="980" type="curve"/>
      <point x="350" y="1176"/>
      <point x="389" y="1396"/>
      <point x="389" y="1440" type="curve" smooth="yes"/>
      <point x="389" y="1484"/>
      <point x="383" y="1526"/>
      <point x="375" y="1564" type="curve"/>
      <point x="334" y="1588"/>
      <point x="289" y="1600"/>
      <point x="236" y="1600" type="curve" smooth="yes"/>
      <point x="183" y="1600"/>
      <point x="138" y="1588"/>
      <point x="97" y="1564" type="curve"/>
      <point x="89" y="1526"/>
      <point x="83" y="1484"/>
    </contour>
  </outline>
</glyph>
<glyph name="parenleft" format="2">
  <advance width="762"/>
  <unicode hex="0028"/>
  <outline>
    <contour>
      <point x="456" y="544" type="curve" smooth="yes"/>
      <point x="456" y="830"/>
      <point x="542" y="1164"/>
      <point x="722" y="1420" type="curve"/>
      <point x="682" y="1506"/>
      <point x="608" y="1564"/>
      <point x="534" y="1590" type="curve"/>
      <point x="254" y="1326"/>
      <point x="116" y="900"/>
      <point x="116" y="544" type="curve" smooth="yes"/>
      <point x="116" y="188"/>
      <point x="254" y="-238"/>
      <point x="534" y="-502" type="curve"/>
      <point x="608" y="-476"/>
      <point x="682" y="-418"/>
      <point x="722" y="-332" type="curve"/>
      <point x="542" y="-76"/>
      <point x="456" y="258"/>
    </contour>
  </outline>
</glyph>
<glyph name="parenright" format="2">
  <advance width="762"/>
  <unicode hex="0029"/>
  <outline>
    <contour>
      <point x="306" y="544" type="curve" smooth="yes"/>
      <point x="306" y="830"/>
      <point x="220" y="1164"/>
      <point x="40" y="1420" type="curve"/>
      <point x="80" y="1506"/>
      <point x="154" y="1564"/>
      <point x="228" y="1590" type="curve"/>
      <point x="508" y="1326"/>
      <point x="646" y="900"/>
      <point x="646" y="544" type="curve" smooth="yes"/>
      <point x="646" y="188"/>
      <point x="508" y="-238"/>
      <point x="228" y="-502" type="curve"/>
      <point x="154" y="-476"/>
      <point x="80" y="-418"/>
      <point x="40" y="-332" type="curve"/>
      <point x="220" y="-76"/>
      <point x="306" y="258"/>
    </contour>
  </outline>
</glyph>
<glyph name="asterisk" format="2">
  <advance width="1046"/>
  <unicode hex="002A"/>
  <outline>
    <contour>
      <point x="392" y="1460" type="curve"/>
      <point x="400" y="1328" type="line" smooth="yes"/>
      <point x="406" y="1238"/>
      <point x="446" y="1140"/>
      <point x="474" y="1048" type="curve"/>
      <point x="486" y="1034"/>
      <point x="504" y="1026"/>
      <point x="522" y="1026" type="curve" smooth="yes"/>
      <point x="540" y="1026"/>
      <point x="558" y="1034"/>
      <point x="570" y="1048" type="curve"/>
      <point x="598" y="1140"/>
      <point x="638" y="1238"/>
      <point x="644" y="1328" type="curve" smooth="yes"/>
      <point x="652" y="1460" type="line"/>
      <point x="592" y="1484"/>
      <point x="450" y="1484"/>
    </contour>
    <contour>
      <point x="70" y="1036" type="curve"/>
      <point x="198" y="1004" type="line" smooth="yes"/>
      <point x="284" y="982"/>
      <point x="390" y="988"/>
      <point x="486" y="988" type="curve"/>
      <point x="504" y="994"/>
      <point x="516" y="1008"/>
      <point x="522" y="1026" type="curve" smooth="yes"/>
      <point x="528" y="1044"/>
      <point x="526" y="1062"/>
      <point x="516" y="1078" type="curve"/>
      <point x="438" y="1134"/>
      <point x="356" y="1204"/>
      <point x="272" y="1236" type="curve" smooth="yes"/>
      <point x="150" y="1284" type="line"/>
      <point x="108" y="1234"/>
      <point x="64" y="1100"/>
    </contour>
    <contour>
      <point x="372" y="600" type="curve"/>
      <point x="442" y="712" type="line" smooth="yes"/>
      <point x="490" y="788"/>
      <point x="518" y="888"/>
      <point x="548" y="980" type="curve"/>
      <point x="546" y="998"/>
      <point x="538" y="1014"/>
      <point x="522" y="1026" type="curve" smooth="yes"/>
      <point x="506" y="1038"/>
      <point x="488" y="1040"/>
      <point x="470" y="1036" type="curve"/>
      <point x="394" y="980"/>
      <point x="302" y="924"/>
      <point x="246" y="854" type="curve" smooth="yes"/>
      <point x="162" y="752" type="line"/>
      <point x="196" y="696"/>
      <point x="310" y="614"/>
    </contour>
    <contour>
      <point x="880" y="752" type="curve"/>
      <point x="796" y="852" type="line" smooth="yes"/>
      <point x="738" y="922"/>
      <point x="652" y="980"/>
      <point x="574" y="1036" type="curve"/>
      <point x="556" y="1040"/>
      <point x="538" y="1038"/>
      <point x="522" y="1026" type="curve" smooth="yes"/>
      <point x="506" y="1014"/>
      <point x="498" y="998"/>
      <point x="496" y="980" type="curve"/>
      <point x="526" y="890"/>
      <point x="552" y="786"/>
      <point x="600" y="710" type="curve" smooth="yes"/>
      <point x="672" y="598" type="line"/>
      <point x="736" y="614"/>
      <point x="848" y="698"/>
    </contour>
    <contour>
      <point x="894" y="1282" type="curve"/>
      <point x="772" y="1232" type="line" smooth="yes"/>
      <point x="688" y="1198"/>
      <point x="606" y="1136"/>
      <point x="528" y="1078" type="curve"/>
      <point x="520" y="1062"/>
      <point x="516" y="1044"/>
      <point x="522" y="1026" type="curve" smooth="yes"/>
      <point x="528" y="1008"/>
      <point x="542" y="994"/>
      <point x="558" y="988" type="curve"/>
      <point x="652" y="988"/>
      <point x="760" y="980"/>
      <point x="846" y="1002" type="curve" smooth="yes"/>
      <point x="976" y="1036" type="line"/>
      <point x="980" y="1102"/>
      <point x="934" y="1234"/>
    </contour>
  </outline>
</glyph>
<glyph name="plus" format="2">
  <advance width="1080"/>
  <unicode hex="002B"/>
  <outline>
    <contour>
      <point x="114" y="770" type="curve"/>
      <point x="262" y="770" type="line" smooth="yes"/>
      <point x="318" y="770"/>
      <point x="358" y="768"/>
      <point x="412" y="768" type="curve" smooth="yes"/>
      <point x="668" y="768" type="line" smooth="yes"/>
      <point x="722" y="768"/>
      <point x="762" y="770"/>
      <point x="818" y="770" type="curve" smooth="yes"/>
      <point x="966" y="770" type="line"/>
      <point x="976" y="722"/>
      <point x="980" y="686"/>
      <point x="980" y="640" type="curve" smooth="yes"/>
      <point x="980" y="594"/>
      <point x="976" y="552"/>
      <point x="966" y="510" type="curve"/>
      <point x="818" y="510" type="line" smooth="yes"/>
      <point x="762" y="510"/>
      <point x="722" y="512"/>
      <point x="668" y="512" type="curve" smooth="yes"/>
      <point x="412" y="512" type="line" smooth="yes"/>
      <point x="358" y="512"/>
      <point x="318" y="510"/>
      <point x="262" y="510" type="curve" smooth="yes"/>
      <point x="114" y="510" type="line"/>
      <point x="104" y="550"/>
      <point x="100" y="594"/>
      <point x="100" y="640" type="curve" smooth="yes"/>
      <point x="100" y="686"/>
      <point x="104" y="728"/>
    </contour>
    <contour>
      <point x="402" y="912" type="curve" smooth="yes"/>
      <point x="402" y="1070" type="line"/>
      <point x="450" y="1080"/>
      <point x="494" y="1082"/>
      <point x="540" y="1082" type="curve" smooth="yes"/>
      <point x="586" y="1082"/>
      <point x="630" y="1080"/>
      <point x="678" y="1070" type="curve"/>
      <point x="678" y="912" type="line" smooth="yes"/>
      <point x="678" y="856"/>
      <point x="676" y="816"/>
      <point x="676" y="762" type="curve" smooth="yes"/>
      <point x="676" y="520" type="line" smooth="yes"/>
      <point x="676" y="466"/>
      <point x="678" y="428"/>
      <point x="678" y="372" type="curve" smooth="yes"/>
      <point x="678" y="212" type="line"/>
      <point x="630" y="202"/>
      <point x="590" y="200"/>
      <point x="544" y="200" type="curve" smooth="yes"/>
      <point x="498" y="200"/>
      <point x="450" y="202"/>
      <point x="402" y="212" type="curve"/>
      <point x="402" y="372" type="line" smooth="yes"/>
      <point x="402" y="428"/>
      <point x="404" y="466"/>
      <point x="404" y="520" type="curve" smooth="yes"/>
      <point x="404" y="762" type="line" smooth="yes"/>
      <point x="404" y="816"/>
      <point x="402" y="856"/>
    </contour>
  </outline>
</glyph>
<glyph name="comma" format="2">
  <advance width="598"/>
  <unicode hex="002C"/>
  <outline>
    <contour>
      <point x="458" y="262" type="curve"/>
      <point x="422" y="284"/>
      <point x="354" y="300"/>
      <point x="300" y="300" type="curve" smooth="yes"/>
      <point x="246" y="300"/>
      <point x="180" y="284"/>
      <point x="142" y="262" type="curve"/>
      <point x="128" y="236"/>
      <point x="118" y="176"/>
      <point x="118" y="136" type="curve" smooth="yes"/>
      <point x="118" y="96"/>
      <point x="128" y="42"/>
      <point x="142" y="16" type="curve"/>
      <point x="162" y="0"/>
      <point x="196" y="-10"/>
      <point x="230" y="-16" type="curve"/>
      <point x="214" y="-110"/>
      <point x="134" y="-184"/>
      <point x="40" y="-216" type="curve"/>
      <point x="34" y="-274"/>
      <point x="62" y="-338"/>
      <point x="118" y="-366" type="curve"/>
      <point x="360" y="-292"/>
      <point x="484" y="-92"/>
      <point x="484" y="100" type="curve" smooth="yes"/>
      <point x="484" y="158"/>
      <point x="478" y="206"/>
    </contour>
  </outline>
</glyph>
<glyph name="hyphen" format="2">
  <advance width="760"/>
  <unicode hex="002D"/>
  <outline>
    <contour>
      <point x="94" y="410" type="curve"/>
      <point x="666" y="410" type="line"/>
      <point x="678" y="454"/>
      <point x="680" y="512"/>
      <point x="680" y="540" type="curve" smooth="yes"/>
      <point x="680" y="568"/>
      <point x="678" y="626"/>
      <point x="666" y="670" type="curve"/>
      <point x="94" y="670" type="line"/>
      <point x="82" y="626"/>
      <point x="80" y="568"/>
      <point x="80" y="540" type="curve" smooth="yes"/>
      <point x="80" y="512"/>
      <point x="82" y="454"/>
    </contour>
  </outline>
</glyph>
<glyph name="period" format="2">
  <advance width="580"/>
  <unicode hex="002E"/>
  <outline>
    <contour>
      <point x="104" y="140" type="curve" smooth="yes"/>
      <point x="104" y="116"/>
      <point x="110" y="54"/>
      <point x="128" y="16" type="curve"/>
      <point x="170" y="-10"/>
      <point x="236" y="-22"/>
      <point x="290" y="-22" type="curve" smooth="yes"/>
      <point x="344" y="-22"/>
      <point x="410" y="-10"/>
      <point x="452" y="16" type="curve"/>
      <point x="470" y="54"/>
      <point x="476" y="116"/>
      <point x="476" y="140" type="curve" smooth="yes"/>
      <point x="476" y="164"/>
      <point x="470" y="226"/>
      <point x="452" y="264" type="curve"/>
      <point x="410" y="288"/>
      <point x="344" y="302"/>
      <point x="290" y="302" type="curve" smooth="yes"/>
      <point x="236" y="302"/>
      <point x="170" y="288"/>
      <point x="128" y="264" type="curve"/>
      <point x="110" y="226"/>
      <point x="104" y="164"/>
    </contour>
  </outline>
</glyph>
<glyph name="slash" format="2">
  <advance width="910"/>
  <unicode hex="002F"/>
  <outline>
    <contour>
      <point x="628" y="1438" type="curve"/>
      <point x="0" y="-236" type="line"/>
      <point x="80" y="-298"/>
      <point x="182" y="-330"/>
      <point x="278" y="-342" type="curve"/>
      <point x="906" y="1332" type="line"/>
      <point x="826" y="1394"/>
      <point x="724" y="1426"/>
    </contour>
  </outline>
</glyph>
<glyph name="zero" format="2">
  <advance width="1080"/>
  <unicode hex="0030"/>
  <outline>
    <contour>
      <point x="66" y="633" type="curve" smooth="yes"/>
      <point x="66" y="426"/>
      <point x="82" y="238"/>
      <point x="206" y="99" type="curve" smooth="yes"/>
      <point x="284" y="25"/>
      <point x="374" y="-30"/>
      <point x="540" y="-30" type="curve" smooth="yes"/>
      <point x="708" y="-30"/>
      <point x="796" y="25"/>
      <point x="874" y="99" type="curve" smooth="yes"/>
      <point x="998" y="238"/>
      <point x="1014" y="426"/>
      <point x="1014" y="633" type="curve" smooth="yes"/>
      <point x="1014" y="842"/>
      <point x="998" y="1028"/>
      <point x="874" y="1167" type="curve" smooth="yes"/>
      <point x="796" y="1241"/>
      <point x="708" y="1296"/>
      <point x="540" y="1296" type="curve" smooth="yes"/>
      <point x="374" y="1296"/>
      <point x="284" y="1241"/>
      <point x="206" y="1167" type="curve" smooth="yes"/>
      <point x="82" y="1028"/>
      <point x="66" y="842"/>
    </contour>
    <contour>
      <point x="400" y="633" type="curve" smooth="yes"/>
      <point x="400" y="808"/>
      <point x="412" y="920"/>
      <point x="430" y="974" type="curve" smooth="yes"/>
      <point x="450" y="1027"/>
      <point x="494" y="1048"/>
      <point x="540" y="1048" type="curve" smooth="yes"/>
      <point x="588" y="1048"/>
      <point x="630" y="1027"/>
      <point x="650" y="974" type="curve" smooth="yes"/>
      <point x="668" y="920"/>
      <point x="680" y="808"/>
      <point x="680" y="633" type="curve" smooth="yes"/>
      <point x="680" y="462"/>
      <point x="668" y="347"/>
      <point x="650" y="292" type="curve" smooth="yes"/>
      <point x="632" y="238"/>
      <point x="588" y="218"/>
      <point x="540" y="218" type="curve" smooth="yes"/>
      <point x="494" y="218"/>
      <point x="450" y="239"/>
      <point x="430" y="292" type="curve" smooth="yes"/>
      <point x="410" y="346"/>
      <point x="400" y="462"/>
    </contour>
  </outline>
</glyph>
<glyph name="one" format="2">
  <advance width="1080"/>
  <unicode hex="0031"/>
  <outline>
    <contour>
      <point x="760" y="416" type="curve" smooth="yes"/>
      <point x="760" y="1266" type="line"/>
      <point x="702" y="1276"/>
      <point x="652" y="1278"/>
      <point x="606" y="1278" type="curve" smooth="yes"/>
      <point x="560" y="1278"/>
      <point x="510" y="1276"/>
      <point x="452" y="1266" type="curve"/>
      <point x="460" y="956" type="line" smooth="yes"/>
      <point x="462" y="860"/>
      <point x="442" y="702"/>
      <point x="442" y="620" type="curve" smooth="yes"/>
      <point x="442" y="416" type="line" smooth="yes"/>
      <point x="442" y="362"/>
      <point x="444" y="304"/>
      <point x="444" y="248" type="curve" smooth="yes"/>
      <point x="444" y="130" type="line"/>
      <point x="758" y="130" type="line"/>
      <point x="758" y="248" type="line" smooth="yes"/>
      <point x="758" y="304"/>
      <point x="760" y="362"/>
    </contour>
    <contour>
      <point x="314" y="268" type="curve" smooth="yes"/>
      <point x="154" y="268" type="line"/>
      <point x="144" y="228"/>
      <point x="138" y="178"/>
      <point x="138" y="134" type="curve" smooth="yes"/>
      <point x="138" y="90"/>
      <point x="144" y="42"/>
      <point x="154" y="0" type="curve"/>
      <point x="1000" y="0" type="line"/>
      <point x="1010" y="40"/>
      <point x="1016" y="90"/>
      <point x="1016" y="134" type="curve" smooth="yes"/>
      <point x="1016" y="178"/>
      <point x="1010" y="228"/>
      <point x="1000" y="268" type="curve"/>
      <point x="896" y="268" type="line" smooth="yes"/>
      <point x="866" y="268"/>
      <point x="784" y="266"/>
      <point x="754" y="266" type="curve" smooth="yes"/>
      <point x="448" y="266" type="line" smooth="yes"/>
      <point x="418" y="266"/>
      <point x="344" y="268"/>
    </contour>
    <contour>
      <point x="58" y="858" type="curve"/>
      <point x="70" y="778"/>
      <point x="130" y="698"/>
      <point x="194" y="670" type="curve"/>
      <point x="334" y="730"/>
      <point x="498" y="850"/>
      <point x="562" y="1018" type="curve"/>
      <point x="452" y="1266" type="line"/>
      <point x="376" y="1110"/>
      <point x="258" y="984"/>
    </contour>
  </outline>
</glyph>
<glyph name="two" format="2">
  <advance width="1080"/>
  <unicode hex="0032"/>
  <outline>
    <contour>
      <point x="94" y="952" type="curve"/>
      <point x="134" y="892"/>
      <point x="248" y="856"/>
      <point x="326" y="856" type="curve"/>
      <point x="346" y="940"/>
      <point x="400" y="1030"/>
      <point x="494" y="1030" type="curve" smooth="yes"/>
      <point x="578" y="1030"/>
      <point x="624" y="972"/>
      <point x="624" y="903" type="curve" smooth="yes"/>
      <point x="624" y="831"/>
      <point x="579" y="775"/>
      <point x="526" y="728" type="curve" smooth="yes"/>
      <point x="306" y="538" type="line" smooth="yes"/>
      <point x="184" y="427"/>
      <point x="80" y="315"/>
      <point x="80" y="206" type="curve" smooth="yes"/>
      <point x="80" y="128"/>
      <point x="133" y="65"/>
      <point x="190" y="-2" type="curve"/>
      <point x="394" y="-2" type="line"/>
      <point x="406" y="218" type="line" smooth="yes"/>
      <point x="408" y="263"/>
      <point x="513" y="341"/>
      <point x="576" y="394" type="curve" smooth="yes"/>
      <point x="718" y="504" type="line" smooth="yes"/>
      <point x="847" y="613"/>
      <point x="956" y="727"/>
      <point x="956" y="893" type="curve" smooth="yes"/>
      <point x="956" y="1138"/>
      <point x="786" y="1296"/>
      <point x="528" y="1296" type="curve" smooth="yes"/>
      <point x="300" y="1296"/>
      <point x="144" y="1142"/>
    </contour>
    <contour>
      <point x="990" y="276" type="curve"/>
      <point x="728" y="276" type="line" smooth="yes"/>
      <point x="560" y="276"/>
      <point x="282" y="248"/>
      <point x="124" y="190" type="curve"/>
      <point x="210" y="-2" type="line"/>
      <point x="784" y="-2" type="line" smooth="yes"/>
      <point x="931" y="-2"/>
      <point x="990" y="65"/>
    </contour>
  </outline>
</glyph>
<glyph name="three" format="2">
  <advance width="1080"/>
  <unicode hex="0033"/>
  <outline>
    <contour>
      <point x="664" y="404" type="curve" smooth="yes"/>
      <point x="664" y="300"/>
      <point x="590" y="232"/>
      <point x="470" y="232" type="curve" smooth="yes"/>
      <point x="370" y="232"/>
      <point x="282" y="276"/>
      <point x="216" y="328" type="curve"/>
      <point x="150" y="276"/>
      <point x="94" y="194"/>
      <point x="80" y="118" type="curve"/>
      <point x="172" y="34"/>
      <point x="326" y="-30"/>
      <point x="512" y="-30" type="curve" smooth="yes"/>
      <point x="776" y="-30"/>
      <point x="998" y="126"/>
      <point x="998" y="392" type="curve" smooth="yes"/>
      <point x="998" y="632"/>
      <point x="824" y="764"/>
      <point x="592" y="764" type="curve" smooth="yes"/>
      <point x="430" y="764"/>
      <point x="356" y="740"/>
      <point x="270" y="712" type="curve"/>
      <point x="281" y="648"/>
      <point x="333" y="571"/>
      <point x="390" y="538" type="curve"/>
      <point x="424" y="552"/>
      <point x="458" y="560"/>
      <point x="494" y="560" type="curve" smooth="yes"/>
      <point x="586" y="560"/>
      <point x="664" y="504"/>
    </contour>
    <contour>
      <point x="736" y="806" type="curve" smooth="yes"/>
      <point x="882" y="942" type="line" smooth="yes"/>
      <point x="926" y="988"/>
      <point x="944" y="1028"/>
      <point x="944" y="1076" type="curve" smooth="yes"/>
      <point x="944" y="1121"/>
      <point x="930" y="1174"/>
      <point x="880" y="1266" type="curve"/>
      <point x="154" y="1266" type="line"/>
      <point x="130" y="1214"/>
      <point x="126" y="1156"/>
      <point x="126" y="1116" type="curve" smooth="yes"/>
      <point x="126" y="1090"/>
      <point x="128" y="1044"/>
      <point x="148" y="992" type="curve"/>
      <point x="384" y="992" type="line" smooth="yes"/>
      <point x="456" y="992"/>
      <point x="526" y="1004"/>
      <point x="574" y="1018" type="curve"/>
      <point x="582" y="1004" type="line"/>
      <point x="550" y="980"/>
      <point x="484" y="920"/>
      <point x="446" y="882" type="curve" smooth="yes"/>
      <point x="270" y="712" type="line"/>
      <point x="442" y="640" type="line"/>
      <point x="514" y="664"/>
      <point x="650" y="720"/>
    </contour>
  </outline>
</glyph>
<glyph name="four" format="2">
  <advance width="1080"/>
  <unicode hex="0034"/>
  <outline>
    <contour>
      <point x="116" y="218" type="curve"/>
      <point x="394" y="218" type="line" smooth="yes"/>
      <point x="450" y="218"/>
      <point x="494" y="222"/>
      <point x="548" y="222" type="curve" smooth="yes"/>
      <point x="860" y="222" type="line" smooth="yes"/>
      <point x="914" y="222"/>
      <point x="922" y="222"/>
      <point x="978" y="222" type="curve" smooth="yes"/>
      <point x="1012" y="222" type="line"/>
      <point x="1026" y="272"/>
      <point x="1032" y="332"/>
      <point x="1032" y="376" type="curve" smooth="yes"/>
      <point x="1032" y="414"/>
      <point x="1030" y="454"/>
      <point x="1024" y="492" type="curve"/>
      <point x="978" y="492" type="line" smooth="yes"/>
      <point x="922" y="492"/>
      <point x="914" y="490"/>
      <point x="860" y="490" type="curve" smooth="yes"/>
      <point x="626" y="490" type="line" smooth="yes"/>
      <point x="594" y="490"/>
      <point x="438" y="484"/>
      <point x="356" y="474" type="curve"/>
      <point x="350" y="484" type="line"/>
      <point x="430" y="593"/>
      <point x="536" y="826"/>
      <point x="586" y="941" type="curve" smooth="yes"/>
      <point x="706" y="1214" type="line"/>
      <point x="656" y="1272"/>
      <point x="501" y="1300"/>
      <point x="407" y="1282" type="curve"/>
      <point x="82" y="552" type="line" smooth="yes"/>
      <point x="68" y="520"/>
      <point x="46" y="466"/>
      <point x="46" y="420" type="curve" smooth="yes"/>
      <point x="46" y="362"/>
      <point x="76" y="282"/>
    </contour>
    <contour>
      <point x="546" y="72" type="curve" smooth="yes"/>
      <point x="546" y="0" type="line"/>
      <point x="604" y="-10"/>
      <point x="658" y="-12"/>
      <point x="704" y="-12" type="curve" smooth="yes"/>
      <point x="750" y="-12"/>
      <point x="804" y="-10"/>
      <point x="862" y="0" type="curve"/>
      <point x="862" y="72" type="line" smooth="yes"/>
      <point x="862" y="128"/>
      <point x="860" y="168"/>
      <point x="860" y="222" type="curve" smooth="yes"/>
      <point x="860" y="490" type="line" smooth="yes"/>
      <point x="860" y="544"/>
      <point x="862" y="584"/>
      <point x="862" y="640" type="curve" smooth="yes"/>
      <point x="862" y="824" type="line"/>
      <point x="848" y="838" type="line"/>
      <point x="774" y="838" type="line" smooth="yes"/>
      <point x="628" y="838"/>
      <point x="546" y="736"/>
      <point x="546" y="576" type="curve" smooth="yes"/>
      <point x="546" y="524" type="line" smooth="yes"/>
      <point x="546" y="508"/>
      <point x="548" y="450"/>
      <point x="548" y="436" type="curve" smooth="yes"/>
      <point x="548" y="222" type="line" smooth="yes"/>
      <point x="548" y="168"/>
      <point x="546" y="128"/>
    </contour>
  </outline>
</glyph>
<glyph name="five" format="2">
  <advance width="1080"/>
  <unicode hex="0035"/>
  <outline>
    <contour>
      <point x="460" y="872" type="curve" smooth="yes"/>
      <point x="468" y="950" type="line" smooth="yes"/>
      <point x="472" y="1002"/>
      <point x="466" y="1136"/>
      <point x="452" y="1198" type="curve"/>
      <point x="166" y="1250" type="line"/>
      <point x="130" y="656" type="line"/>
      <point x="222" y="658"/>
      <point x="334" y="674"/>
      <point x="420" y="704" type="curve"/>
      <point x="443" y="761"/>
      <point x="454" y="812"/>
    </contour>
    <contour>
      <point x="78" y="110" type="curve"/>
      <point x="178" y="18"/>
      <point x="328" y="-30"/>
      <point x="482" y="-30" type="curve" smooth="yes"/>
      <point x="732" y="-30"/>
      <point x="984" y="117"/>
      <point x="984" y="432" type="curve" smooth="yes"/>
      <point x="984" y="678"/>
      <point x="828" y="848"/>
      <point x="552" y="848" type="curve" smooth="yes"/>
      <point x="356" y="848"/>
      <point x="214" y="726"/>
      <point x="130" y="656" type="curve"/>
      <point x="162" y="604"/>
      <point x="236" y="554"/>
      <point x="294" y="542" type="curve"/>
      <point x="344" y="580"/>
      <point x="396" y="600"/>
      <point x="456" y="600" type="curve" smooth="yes"/>
      <point x="562" y="600"/>
      <point x="650" y="541"/>
      <point x="650" y="418" type="curve" smooth="yes"/>
      <point x="650" y="298"/>
      <point x="562" y="234"/>
      <point x="452" y="234" type="curve" smooth="yes"/>
      <point x="364" y="234"/>
      <point x="288" y="266"/>
      <point x="210" y="322" type="curve"/>
      <point x="146" y="276"/>
      <point x="90" y="170"/>
    </contour>
    <contour>
      <point x="916" y="1266" type="curve"/>
      <point x="182" y="1266" type="line"/>
      <point x="166" y="1250" type="line"/>
      <point x="178" y="1010" type="line"/>
      <point x="218" y="1004"/>
      <point x="380" y="996"/>
      <point x="476" y="996" type="curve" smooth="yes"/>
      <point x="800" y="996" type="line" smooth="yes"/>
      <point x="888" y="996"/>
      <point x="938" y="1044"/>
      <point x="938" y="1132" type="curve" smooth="yes"/>
      <point x="938" y="1164"/>
      <point x="936" y="1212"/>
    </contour>
  </outline>
</glyph>
<glyph name="six" format="2">
  <advance width="1080"/>
  <unicode hex="0036"/>
  <outline>
    <contour>
      <point x="552" y="-30" type="curve" smooth="yes"/>
      <point x="796" y="-30"/>
      <point x="1010" y="129"/>
      <point x="1010" y="424" type="curve" smooth="yes"/>
      <point x="1010" y="727"/>
      <point x="864" y="852"/>
      <point x="648" y="852" type="curve" smooth="yes"/>
      <point x="456" y="852"/>
      <point x="332" y="730"/>
      <point x="270" y="610" type="curve"/>
      <point x="322" y="448" type="line"/>
      <point x="392" y="540"/>
      <point x="470" y="592"/>
      <point x="562" y="592" type="curve" smooth="yes"/>
      <point x="644" y="592"/>
      <point x="688" y="539"/>
      <point x="688" y="404" type="curve" smooth="yes"/>
      <point x="688" y="294"/>
      <point x="652" y="210"/>
      <point x="556" y="210" type="curve" smooth="yes"/>
      <point x="510" y="210"/>
      <point x="480" y="234"/>
      <point x="460" y="260" type="curve" smooth="yes"/>
      <point x="428" y="302"/>
      <point x="408" y="384"/>
      <point x="408" y="518" type="curve" smooth="yes"/>
      <point x="408" y="730" type="line" smooth="yes"/>
      <point x="408" y="918"/>
      <point x="474" y="1042"/>
      <point x="648" y="1042" type="curve" smooth="yes"/>
      <point x="726" y="1042"/>
      <point x="794" y="1024"/>
      <point x="848" y="1002" type="curve"/>
      <point x="910" y="1054"/>
      <point x="946" y="1142"/>
      <point x="952" y="1226" type="curve"/>
      <point x="868" y="1268"/>
      <point x="758" y="1296"/>
      <point x="620" y="1296" type="curve" smooth="yes"/>
      <point x="272" y="1296"/>
      <point x="68" y="1042"/>
      <point x="68" y="614" type="curve" smooth="yes"/>
      <point x="68" y="278"/>
      <point x="161" y="173"/>
      <point x="198" y="124" type="curve" smooth="yes"/>
      <point x="236" y="74"/>
      <point x="338" y="-30"/>
    </contour>
  </outline>
</glyph>
<glyph name="seven" format="2">
  <advance width="1080"/>
  <unicode hex="0037"/>
  <outline>
    <contour>
      <point x="950" y="1266" type="curve"/>
      <point x="124" y="1266" type="line"/>
      <point x="106" y="1222"/>
      <point x="94" y="1162"/>
      <point x="94" y="1104" type="curve" smooth="yes"/>
      <point x="94" y="1066"/>
      <point x="100" y="1024"/>
      <point x="110" y="992" type="curve"/>
      <point x="424" y="992" type="line" smooth="yes"/>
      <point x="482" y="992"/>
      <point x="626" y="1002"/>
      <point x="696" y="1020" type="curve"/>
      <point x="706" y="1008" type="line"/>
      <point x="458" y="793"/>
      <point x="303" y="443"/>
      <point x="276" y="98" type="curve" smooth="yes"/>
      <point x="268" y="0" type="line"/>
      <point x="320" y="-8"/>
      <point x="378" y="-12"/>
      <point x="436" y="-12" type="curve" smooth="yes"/>
      <point x="498" y="-12"/>
      <point x="556" y="-8"/>
      <point x="598" y="0" type="curve"/>
      <point x="606" y="96" type="line" smooth="yes"/>
      <point x="634" y="432"/>
      <point x="715" y="617"/>
      <point x="964" y="948" type="curve"/>
      <point x="992" y="986"/>
      <point x="1008" y="1036"/>
      <point x="1008" y="1068" type="curve" smooth="yes"/>
      <point x="1008" y="1122"/>
      <point x="976" y="1208"/>
    </contour>
  </outline>
</glyph>
<glyph name="eight" format="2">
  <advance width="1080"/>
  <unicode hex="0038"/>
  <outline>
    <contour>
      <point x="56" y="323" type="curve" smooth="yes"/>
      <point x="56" y="103"/>
      <point x="240" y="-30"/>
      <point x="526" y="-30" type="curve" smooth="yes"/>
      <point x="802" y="-30"/>
      <point x="1024" y="107"/>
      <point x="1024" y="337" type="curve" smooth="yes"/>
      <point x="1024" y="571"/>
      <point x="849" y="685"/>
      <point x="616" y="775" type="curve" smooth="yes"/>
      <point x="564" y="795" type="line" smooth="yes"/>
      <point x="465" y="833"/>
      <point x="406" y="879"/>
      <point x="406" y="949" type="curve" smooth="yes"/>
      <point x="406" y="1015"/>
      <point x="460" y="1066"/>
      <point x="538" y="1066" type="curve" smooth="yes"/>
      <point x="624" y="1066"/>
      <point x="676" y="1011"/>
      <point x="676" y="941" type="curve" smooth="yes"/>
      <point x="676" y="854"/>
      <point x="620" y="785"/>
      <point x="502" y="735" type="curve"/>
      <point x="698" y="643" type="line"/>
      <point x="838" y="684"/>
      <point x="988" y="791"/>
      <point x="988" y="953" type="curve" smooth="yes"/>
      <point x="988" y="1151"/>
      <point x="816" y="1296"/>
      <point x="540" y="1296" type="curve" smooth="yes"/>
      <point x="276" y="1296"/>
      <point x="88" y="1143"/>
      <point x="88" y="949" type="curve" smooth="yes"/>
      <point x="88" y="747"/>
      <point x="229" y="649"/>
      <point x="480" y="547" type="curve" smooth="yes"/>
      <point x="534" y="525" type="line" smooth="yes"/>
      <point x="643" y="481"/>
      <point x="692" y="412"/>
      <point x="692" y="339" type="curve" smooth="yes"/>
      <point x="692" y="263"/>
      <point x="642" y="194"/>
      <point x="540" y="194" type="curve" smooth="yes"/>
      <point x="442" y="194"/>
      <point x="384" y="261"/>
      <point x="384" y="343" type="curve" smooth="yes"/>
      <point x="384" y="436"/>
      <point x="432" y="537"/>
      <point x="586" y="613" type="curve"/>
      <point x="382" y="701" type="line"/>
      <point x="222" y="644"/>
      <point x="56" y="509"/>
    </contour>
  </outline>
</glyph>
<glyph name="nine" format="2">
  <advance width="1080"/>
  <unicode hex="0039"/>
  <outline>
    <contour>
      <point x="528" y="1296" type="curve" smooth="yes"/>
      <point x="284" y="1296"/>
      <point x="70" y="1137"/>
      <point x="70" y="842" type="curve" smooth="yes"/>
      <point x="70" y="539"/>
      <point x="216" y="414"/>
      <point x="432" y="414" type="curve" smooth="yes"/>
      <point x="624" y="414"/>
      <point x="748" y="536"/>
      <point x="810" y="656" type="curve"/>
      <point x="758" y="818" type="line"/>
      <point x="688" y="726"/>
      <point x="610" y="674"/>
      <point x="518" y="674" type="curve" smooth="yes"/>
      <point x="436" y="674"/>
      <point x="392" y="727"/>
      <point x="392" y="862" type="curve" smooth="yes"/>
      <point x="392" y="972"/>
      <point x="428" y="1056"/>
      <point x="524" y="1056" type="curve" smooth="yes"/>
      <point x="570" y="1056"/>
      <point x="600" y="1032"/>
      <point x="620" y="1006" type="curve" smooth="yes"/>
      <point x="652" y="964"/>
      <point x="672" y="882"/>
      <point x="672" y="748" type="curve" smooth="yes"/>
      <point x="672" y="536" type="line" smooth="yes"/>
      <point x="672" y="348"/>
      <point x="606" y="224"/>
      <point x="432" y="224" type="curve" smooth="yes"/>
      <point x="354" y="224"/>
      <point x="286" y="242"/>
      <point x="232" y="264" type="curve"/>
      <point x="170" y="212"/>
      <point x="134" y="124"/>
      <point x="128" y="40" type="curve"/>
      <point x="212" y="-2"/>
      <point x="322" y="-30"/>
      <point x="460" y="-30" type="curve" smooth="yes"/>
      <point x="808" y="-30"/>
      <point x="1012" y="224"/>
      <point x="1012" y="652" type="curve" smooth="yes"/>
      <point x="1012" y="988"/>
      <point x="919" y="1093"/>
      <point x="882" y="1142" type="curve" smooth="yes"/>
      <point x="844" y="1192"/>
      <point x="742" y="1296"/>
    </contour>
  </outline>
</glyph>
<glyph name="less" format="2">
  <advance width="1080"/>
  <unicode hex="003C"/>
  <outline>
    <contour>
      <point x="818" y="1152" type="curve"/>
      <point x="112" y="762" type="line"/>
      <point x="92" y="688"/>
      <point x="94" y="586"/>
      <point x="112" y="516" type="curve"/>
      <point x="816" y="124" type="line"/>
      <point x="894" y="166"/>
      <point x="958" y="278"/>
      <point x="966" y="380" type="curve"/>
      <point x="614" y="560" type="line" smooth="yes"/>
      <point x="572" y="582"/>
      <point x="484" y="618"/>
      <point x="440" y="632" type="curve"/>
      <point x="440" y="648" type="line"/>
      <point x="484" y="662"/>
      <point x="572" y="698"/>
      <point x="614" y="720" type="curve" smooth="yes"/>
      <point x="966" y="900" type="line"/>
      <point x="962" y="1002"/>
      <point x="900" y="1108"/>
    </contour>
  </outline>
</glyph>
<glyph name="equal" format="2">
  <advance width="1080"/>
  <unicode hex="003D"/>
  <outline>
    <contour>
      <point x="114" y="278" type="curve"/>
      <point x="966" y="278" type="line"/>
      <point x="978" y="322"/>
      <point x="980" y="380"/>
      <point x="980" y="408" type="curve" smooth="yes"/>
      <point x="980" y="436"/>
      <point x="978" y="494"/>
      <point x="966" y="538" type="curve"/>
      <point x="114" y="538" type="line"/>
      <point x="102" y="494"/>
      <point x="100" y="436"/>
      <point x="100" y="408" type="curve" smooth="yes"/>
      <point x="100" y="380"/>
      <point x="102" y="322"/>
    </contour>
    <contour>
      <point x="114" y="746" type="curve"/>
      <point x="966" y="746" type="line"/>
      <point x="978" y="790"/>
      <point x="980" y="848"/>
      <point x="980" y="876" type="curve" smooth="yes"/>
      <point x="980" y="904"/>
      <point x="978" y="962"/>
      <point x="966" y="1006" type="curve"/>
      <point x="114" y="1006" type="line"/>
      <point x="102" y="962"/>
      <point x="100" y="904"/>
      <point x="100" y="876" type="curve" smooth="yes"/>
      <point x="100" y="848"/>
      <point x="102" y="790"/>
    </contour>
  </outline>
</glyph>
<glyph name="greater" format="2">
  <advance width="1080"/>
  <unicode hex="003E"/>
  <outline>
    <contour>
      <point x="262" y="128" type="curve"/>
      <point x="968" y="518" type="line"/>
      <point x="988" y="592"/>
      <point x="986" y="694"/>
      <point x="968" y="764" type="curve"/>
      <point x="264" y="1156" type="line"/>
      <point x="186" y="1114"/>
      <point x="122" y="1002"/>
      <point x="114" y="900" type="curve"/>
      <point x="466" y="720" type="line" smooth="yes"/>
      <point x="508" y="698"/>
      <point x="596" y="662"/>
      <point x="640" y="648" type="curve"/>
      <point x="640" y="632" type="line"/>
      <point x="596" y="618"/>
      <point x="508" y="582"/>
      <point x="466" y="560" type="curve" smooth="yes"/>
      <point x="114" y="380" type="line"/>
      <point x="118" y="278"/>
      <point x="180" y="172"/>
    </contour>
  </outline>
</glyph>
<glyph name="question" format="2">
  <advance width="848"/>
  <unicode hex="003F"/>
  <outline>
    <contour>
      <point x="0" y="1280" type="curve"/>
      <point x="4" y="1198"/>
      <point x="56" y="1094"/>
      <point x="118" y="1048" type="curve"/>
      <point x="186" y="1086"/>
      <point x="262" y="1118"/>
      <point x="342" y="1118" type="curve" smooth="yes"/>
      <point x="444" y="1118"/>
      <point x="494" y="1068"/>
      <point x="494" y="994" type="curve" smooth="yes"/>
      <point x="494" y="908"/>
      <point x="413" y="851"/>
      <point x="308" y="804" type="curve" smooth="yes"/>
      <point x="196" y="754" type="line"/>
      <point x="170" y="722" type="line"/>
      <point x="188" y="424" type="line"/>
      <point x="228" y="412"/>
      <point x="276" y="408"/>
      <point x="314" y="408" type="curve" smooth="yes"/>
      <point x="354" y="408"/>
      <point x="396" y="412"/>
      <point x="434" y="424" type="curve"/>
      <point x="454" y="570" type="line"/>
      <point x="574" y="632" type="line" smooth="yes"/>
      <point x="724" y="710"/>
      <point x="836" y="828"/>
      <point x="836" y="1030" type="curve" smooth="yes"/>
      <point x="836" y="1242"/>
      <point x="694" y="1398"/>
      <point x="416" y="1398" type="curve" smooth="yes"/>
      <point x="256" y="1398"/>
      <point x="112" y="1348"/>
    </contour>
    <contour>
      <point x="314" y="280" type="curve" smooth="yes"/>
      <point x="258" y="280"/>
      <point x="200" y="268"/>
      <point x="160" y="246" type="curve"/>
      <point x="146" y="220"/>
      <point x="138" y="162"/>
      <point x="138" y="124" type="curve" smooth="yes"/>
      <point x="138" y="86"/>
      <point x="146" y="30"/>
      <point x="160" y="4" type="curve"/>
      <point x="200" y="-18"/>
      <point x="258" y="-30"/>
      <point x="314" y="-30" type="curve" smooth="yes"/>
      <point x="370" y="-30"/>
      <point x="428" y="-18"/>
      <point x="466" y="4" type="curve"/>
      <point x="482" y="30"/>
      <point x="490" y="86"/>
      <point x="490" y="124" type="curve" smooth="yes"/>
      <point x="490" y="162"/>
      <point x="482" y="220"/>
      <point x="466" y="246" type="curve"/>
      <point x="428" y="268"/>
      <point x="370" y="280"/>
    </contour>
  </outline>
</glyph>
<glyph name="at" format="2">
  <advance width="1968"/>
  <unicode hex="0040"/>
  <outline>
    <contour>
      <point x="1400" y="330" type="curve" smooth="yes"/>
      <point x="1400" y="822" type="line"/>
      <point x="1324" y="900"/>
      <point x="1168" y="974"/>
      <point x="1010" y="974" type="curve" smooth="yes"/>
      <point x="730" y="974"/>
      <point x="576" y="764"/>
      <point x="576" y="454" type="curve" smooth="yes"/>
      <point x="576" y="184"/>
      <point x="686" y="-8"/>
      <point x="904" y="-8" type="curve" smooth="yes"/>
      <point x="1070" y="-8"/>
      <point x="1228" y="140"/>
      <point x="1280" y="254" type="curve"/>
      <point x="1168" y="396" type="line"/>
      <point x="1132" y="312"/>
      <point x="1052" y="234"/>
      <point x="980" y="234" type="curve" smooth="yes"/>
      <point x="908" y="234"/>
      <point x="888" y="304"/>
      <point x="888" y="470" type="curve" smooth="yes"/>
      <point x="888" y="622"/>
      <point x="906" y="748"/>
      <point x="1010" y="748" type="curve" smooth="yes"/>
      <point x="1046" y="748"/>
      <point x="1070" y="740"/>
      <point x="1098" y="718" type="curve"/>
      <point x="1098" y="324" type="line" smooth="yes"/>
      <point x="1098" y="146"/>
      <point x="1246" y="-2"/>
      <point x="1458" y="-2" type="curve" smooth="yes"/>
      <point x="1674" y="-2"/>
      <point x="1908" y="172"/>
      <point x="1908" y="594" type="curve" smooth="yes"/>
      <point x="1908" y="1096"/>
      <point x="1520" y="1374"/>
      <point x="1016" y="1374" type="curve" smooth="yes"/>
      <point x="474" y="1374"/>
      <point x="74" y="990"/>
      <point x="74" y="442" type="curve" smooth="yes"/>
      <point x="74" y="-150"/>
      <point x="428" y="-410"/>
      <point x="926" y="-410" type="curve" smooth="yes"/>
      <point x="1090" y="-410"/>
      <point x="1298" y="-364"/>
      <point x="1422" y="-308" type="curve"/>
      <point x="1422" y="-238"/>
      <point x="1396" y="-146"/>
      <point x="1342" y="-86" type="curve"/>
      <point x="1216" y="-134"/>
      <point x="1084" y="-162"/>
      <point x="952" y="-162" type="curve" smooth="yes"/>
      <point x="610" y="-162"/>
      <point x="400" y="28"/>
      <point x="400" y="442" type="curve" smooth="yes"/>
      <point x="400" y="850"/>
      <point x="644" y="1134"/>
      <point x="1016" y="1134" type="curve" smooth="yes"/>
      <point x="1360" y="1134"/>
      <point x="1586" y="936"/>
      <point x="1586" y="602" type="curve" smooth="yes"/>
      <point x="1586" y="322"/>
      <point x="1530" y="234"/>
      <point x="1458" y="234" type="curve" smooth="yes"/>
      <point x="1416" y="234"/>
      <point x="1400" y="262"/>
    </contour>
  </outline>
</glyph>
<glyph name="B" format="2">
  <advance width="1232"/>
  <unicode hex="0042"/>
  <anchor x="598" y="0" name="bottom"/>
  <anchor x="582" y="1464" name="top"/>
  <outline>
    <contour>
      <point x="162" y="1370" type="curve"/>
      <point x="148" y="1356" type="line"/>
      <point x="148" y="10" type="line"/>
      <point x="162" y="-4" type="line"/>
      <point x="336" y="-8"/>
      <point x="508" y="-12"/>
      <point x="662" y="-12" type="curve" smooth="yes"/>
      <point x="964" y="-12"/>
      <point x="1166" y="106"/>
      <point x="1166" y="394" type="curve" smooth="yes"/>
      <point x="1166" y="578"/>
      <point x="1022" y="744"/>
      <point x="860" y="754" type="curve"/>
      <point x="860" y="722" type="line"/>
      <point x="990" y="738"/>
      <point x="1102" y="868"/>
      <point x="1102" y="1014" type="curve" smooth="yes"/>
      <point x="1102" y="1270"/>
      <point x="906" y="1378"/>
      <point x="630" y="1378" type="curve" smooth="yes"/>
      <point x="486" y="1378"/>
      <point x="324" y="1374"/>
    </contour>
    <contour>
      <point x="478" y="220" type="curve"/>
      <point x="478" y="1144" type="line"/>
      <point x="526" y="1142"/>
      <point x="580" y="1142"/>
      <point x="612" y="1142" type="curve" smooth="yes"/>
      <point x="738" y="1142"/>
      <point x="776" y="1066"/>
      <point x="776" y="990" type="curve" smooth="yes"/>
      <point x="776" y="914"/>
      <point x="740" y="834"/>
      <point x="612" y="834" type="curve" smooth="yes"/>
      <point x="352" y="834" type="line"/>
      <point x="352" y="598" type="line"/>
      <point x="636" y="598" type="line" smooth="yes"/>
      <point x="788" y="598"/>
      <point x="830" y="494"/>
      <point x="830" y="408" type="curve" smooth="yes"/>
      <point x="830" y="326"/>
      <point x="792" y="222"/>
      <point x="636" y="222" type="curve" smooth="yes"/>
      <point x="598" y="222"/>
      <point x="540" y="222"/>
    </contour>
  </outline>
</glyph>
<glyph name="C" format="2">
  <advance width="1220"/>
  <unicode hex="0043"/>
  <anchor x="656" y="0" name="bottom"/>
  <anchor x="654" y="1466" name="top"/>
  <outline>
    <contour>
      <point x="858" y="812" type="curve"/>
      <point x="898" y="802"/>
      <point x="936" y="794"/>
      <point x="984" y="794" type="curve" smooth="yes"/>
      <point x="1102" y="794"/>
      <point x="1176" y="846"/>
      <point x="1176" y="978" type="curve" smooth="yes"/>
      <point x="1176" y="1218"/>
      <point x="970" y="1398"/>
      <point x="658" y="1398" type="curve" smooth="yes"/>
      <point x="336" y="1398"/>
      <point x="68" y="1182"/>
      <point x="68" y="678" type="curve" smooth="yes"/>
      <point x="68" y="336"/>
      <point x="198" y="-30"/>
      <point x="624" y="-30" type="curve" smooth="yes"/>
      <point x="848" y="-30"/>
      <point x="1060" y="70"/>
      <point x="1176" y="184" type="curve"/>
      <point x="1162" y="262"/>
      <point x="1088" y="356"/>
      <point x="1024" y="400" type="curve"/>
      <point x="934" y="335"/>
      <point x="826" y="262"/>
      <point x="686" y="262" type="curve" smooth="yes"/>
      <point x="516" y="262"/>
      <point x="420" y="398"/>
      <point x="420" y="676" type="curve" smooth="yes"/>
      <point x="420" y="972"/>
      <point x="480" y="1132"/>
      <point x="646" y="1132" type="curve" smooth="yes"/>
      <point x="818" y="1132"/>
      <point x="862" y="980"/>
    </contour>
  </outline>
</glyph>
<glyph name="D" format="2">
  <advance width="1340"/>
  <unicode hex="0044"/>
  <guideline x="644" y="-1" angle="90"/>
  <anchor x="634" y="0" name="bottom"/>
  <anchor x="644" y="1464" name="top"/>
  <outline>
    <contour>
      <point x="1270" y="684" type="curve" smooth="yes"/>
      <point x="1270" y="916"/>
      <point x="1234" y="1130"/>
      <point x="1044" y="1278" type="curve" smooth="yes"/>
      <point x="952" y="1350"/>
      <point x="786" y="1378"/>
      <point x="674" y="1378" type="curve" smooth="yes"/>
      <point x="500" y="1378"/>
      <point x="334" y="1376"/>
      <point x="162" y="1370" type="curve"/>
      <point x="148" y="1356" type="line"/>
      <point x="148" y="10" type="line"/>
      <point x="162" y="-4" type="line"/>
      <point x="336" y="-8"/>
      <point x="500" y="-12"/>
      <point x="674" y="-12" type="curve" smooth="yes"/>
      <point x="786" y="-12"/>
      <point x="951" y="16"/>
      <point x="1044" y="88" type="curve" smooth="yes"/>
      <point x="1236" y="236"/>
      <point x="1270" y="450"/>
    </contour>
    <contour>
      <point x="926" y="684" type="curve" smooth="yes"/>
      <point x="926" y="486"/>
      <point x="894" y="248"/>
      <point x="674" y="248" type="curve" smooth="yes"/>
      <point x="608" y="248"/>
      <point x="550" y="248"/>
      <point x="482" y="246" type="curve"/>
      <point x="482" y="1120" type="line"/>
      <point x="550" y="1118"/>
      <point x="608" y="1118"/>
      <point x="674" y="1118" type="curve" smooth="yes"/>
      <point x="894" y="1118"/>
      <point x="926" y="882"/>
    </contour>
  </outline>
</glyph>
<glyph name="E" format="2">
  <advance width="1148"/>
  <unicode hex="0045"/>
  <anchor x="622" y="0" name="bottom"/>
  <anchor x="930" y="0" name="ogonek"/>
  <anchor x="598" y="1464" name="top"/>
  <outline>
    <contour>
      <point x="146" y="1352" type="line"/>
      <point x="146" y="188" type="line" smooth="yes"/>
      <point x="146" y="68"/>
      <point x="218" y="-6"/>
      <point x="338" y="-6" type="curve" smooth="yes"/>
      <point x="476" y="-6" type="line"/>
      <point x="476" y="272" type="line" smooth="yes"/>
      <point x="476" y="328"/>
      <point x="478" y="368"/>
      <point x="478" y="422" type="curve" smooth="yes"/>
      <point x="478" y="940" type="line" smooth="yes"/>
      <point x="478" y="994"/>
      <point x="476" y="1034"/>
      <point x="476" y="1090" type="curve" smooth="yes"/>
      <point x="476" y="1366" type="line"/>
      <point x="160" y="1366" type="line"/>
    </contour>
    <contour>
      <point x="910" y="822" type="curve"/>
      <point x="614" y="822" type="line" smooth="yes"/>
      <point x="564" y="822"/>
      <point x="426" y="820"/>
      <point x="362" y="818" type="curve"/>
      <point x="362" y="554" type="line"/>
      <point x="426" y="552"/>
      <point x="564" y="550"/>
      <point x="614" y="550" type="curve" smooth="yes"/>
      <point x="910" y="550" type="line"/>
      <point x="924" y="592"/>
      <point x="930" y="648"/>
      <point x="930" y="686" type="curve" smooth="yes"/>
      <point x="930" y="722"/>
      <point x="924" y="782"/>
    </contour>
    <contour>
      <point x="1030" y="1366" type="curve"/>
      <point x="362" y="1366" type="line"/>
      <point x="362" y="1090" type="line"/>
      <point x="426" y="1088"/>
      <point x="564" y="1086"/>
      <point x="614" y="1086" type="curve" smooth="yes"/>
      <point x="1014" y="1086" type="line"/>
      <point x="1032" y="1136"/>
      <point x="1042" y="1196"/>
      <point x="1042" y="1234" type="curve" smooth="yes"/>
      <point x="1042" y="1272"/>
      <point x="1040" y="1316"/>
    </contour>
    <contour>
      <point x="1082" y="274" type="curve"/>
      <point x="626" y="274" type="line" smooth="yes"/>
      <point x="526" y="274"/>
      <point x="452" y="268"/>
      <point x="362" y="264" type="curve"/>
      <point x="362" y="-6" type="line"/>
      <point x="862" y="-6" type="line" smooth="yes"/>
      <point x="1040" y="-6"/>
      <point x="1082" y="91"/>
    </contour>
  </outline>
</glyph>
<glyph name="F" format="2">
  <advance width="1074"/>
  <unicode hex="0046"/>
  <anchor x="590" y="1464" name="top"/>
  <outline>
    <contour>
      <point x="484" y="0" type="curve"/>
      <point x="484" y="936" type="line" smooth="yes"/>
      <point x="484" y="1042"/>
      <point x="482" y="1160"/>
      <point x="482" y="1272" type="curve" smooth="yes"/>
      <point x="482" y="1366" type="line"/>
      <point x="162" y="1366" type="line"/>
      <point x="148" y="1354" type="line"/>
      <point x="148" y="0" type="line"/>
      <point x="206" y="-10"/>
      <point x="274" y="-12"/>
      <point x="320" y="-12" type="curve" smooth="yes"/>
      <point x="366" y="-12"/>
      <point x="426" y="-10"/>
    </contour>
    <contour>
      <point x="1026" y="1366" type="curve"/>
      <point x="344" y="1366" type="line"/>
      <point x="344" y="1084" type="line"/>
      <point x="434" y="1084"/>
      <point x="520" y="1082"/>
      <point x="618" y="1082" type="curve" smooth="yes"/>
      <point x="862" y="1082" type="line" smooth="yes"/>
      <point x="982" y="1082"/>
      <point x="1040" y="1128"/>
      <point x="1040" y="1238" type="curve" smooth="yes"/>
      <point x="1040" y="1276"/>
      <point x="1036" y="1330"/>
    </contour>
    <contour>
      <point x="902" y="816" type="curve"/>
      <point x="516" y="816" type="line" smooth="yes"/>
      <point x="458" y="816"/>
      <point x="394" y="814"/>
      <point x="356" y="812" type="curve"/>
      <point x="356" y="546" type="line"/>
      <point x="394" y="544"/>
      <point x="458" y="542"/>
      <point x="516" y="542" type="curve" smooth="yes"/>
      <point x="902" y="542" type="line"/>
      <point x="914" y="582"/>
      <point x="920" y="642"/>
      <point x="920" y="680" type="curve" smooth="yes"/>
      <point x="920" y="716"/>
      <point x="914" y="778"/>
    </contour>
  </outline>
</glyph>
<glyph name="G" format="2">
  <advance width="1312"/>
  <unicode hex="0047"/>
  <anchor x="690" y="0" name="bottom"/>
  <anchor x="702" y="1464" name="top"/>
  <outline>
    <contour>
      <point x="1208" y="1254" type="curve"/>
      <point x="1070" y="1338"/>
      <point x="898" y="1396"/>
      <point x="712" y="1396" type="curve" smooth="yes"/>
      <point x="384" y="1396"/>
      <point x="68" y="1156"/>
      <point x="68" y="674" type="curve" smooth="yes"/>
      <point x="68" y="234"/>
      <point x="270" y="-30"/>
      <point x="678" y="-30" type="curve" smooth="yes"/>
      <point x="904" y="-30"/>
      <point x="1096" y="14"/>
      <point x="1212" y="52" type="curve"/>
      <point x="1036" y="280" type="line"/>
      <point x="968" y="262"/>
      <point x="864" y="232"/>
      <point x="736" y="232" type="curve" smooth="yes"/>
      <point x="528" y="232"/>
      <point x="410" y="366"/>
      <point x="410" y="672" type="curve" smooth="yes"/>
      <point x="410" y="982"/>
      <point x="533" y="1120"/>
      <point x="733" y="1120" type="curve" smooth="yes"/>
      <point x="843" y="1120"/>
      <point x="962" y="1078"/>
      <point x="1060" y="1014" type="curve"/>
      <point x="1128" y="1058"/>
      <point x="1202" y="1160"/>
    </contour>
    <contour>
      <point x="898" y="366" type="curve" smooth="yes"/>
      <point x="898" y="48" type="line"/>
      <point x="1212" y="52" type="line"/>
      <point x="1212" y="578" type="line"/>
      <point x="928" y="672" type="line"/>
      <point x="902" y="578"/>
      <point x="898" y="460"/>
    </contour>
    <contour>
      <point x="992" y="784" type="curve" smooth="yes"/>
      <point x="678" y="784" type="line"/>
      <point x="664" y="744"/>
      <point x="654" y="690"/>
      <point x="654" y="646" type="curve" smooth="yes"/>
      <point x="654" y="542"/>
      <point x="704" y="506"/>
      <point x="814" y="506" type="curve" smooth="yes"/>
      <point x="1212" y="506" type="line"/>
      <point x="1212" y="578" type="line" smooth="yes"/>
      <point x="1212" y="698"/>
      <point x="1158" y="784"/>
    </contour>
  </outline>
</glyph>
<glyph name="H" format="2">
  <advance width="1376"/>
  <unicode hex="0048"/>
  <anchor x="688" y="0" name="bottom"/>
  <anchor x="688" y="1466" name="top"/>
  <outline>
    <contour>
      <point x="580" y="564" type="curve" smooth="yes"/>
      <point x="796" y="564" type="line"/>
      <point x="826" y="564"/>
      <point x="864" y="566"/>
      <point x="894" y="566" type="curve" smooth="yes"/>
      <point x="960" y="566"/>
      <point x="1030" y="564"/>
      <point x="1096" y="564" type="curve"/>
      <point x="1096" y="844" type="line"/>
      <point x="1030" y="844"/>
      <point x="960" y="842"/>
      <point x="894" y="842" type="curve" smooth="yes"/>
      <point x="864" y="842"/>
      <point x="826" y="844"/>
      <point x="796" y="844" type="curve" smooth="yes"/>
      <point x="580" y="844" type="line" smooth="yes"/>
      <point x="550" y="844"/>
      <point x="512" y="842"/>
      <point x="482" y="842" type="curve" smooth="yes"/>
      <point x="416" y="842"/>
      <point x="346" y="844"/>
      <point x="280" y="844" type="curve"/>
      <point x="280" y="564" type="line"/>
      <point x="346" y="564"/>
      <point x="416" y="566"/>
      <point x="482" y="566" type="curve" smooth="yes"/>
      <point x="512" y="566"/>
      <point x="550" y="564"/>
    </contour>
    <contour>
      <point x="484" y="0" type="curve"/>
      <point x="484" y="418" type="line" smooth="yes"/>
      <point x="484" y="474"/>
      <point x="482" y="512"/>
      <point x="482" y="566" type="curve" smooth="yes"/>
      <point x="482" y="842" type="line" smooth="yes"/>
      <point x="482" y="896"/>
      <point x="484" y="934"/>
      <point x="484" y="990" type="curve" smooth="yes"/>
      <point x="484" y="1366" type="line"/>
      <point x="428" y="1376"/>
      <point x="360" y="1378"/>
      <point x="316" y="1378" type="curve" smooth="yes"/>
      <point x="276" y="1378"/>
      <point x="202" y="1376"/>
      <point x="148" y="1366" type="curve"/>
      <point x="148" y="0" type="line"/>
      <point x="202" y="-10"/>
      <point x="276" y="-12"/>
      <point x="316" y="-12" type="curve" smooth="yes"/>
      <point x="360" y="-12"/>
      <point x="428" y="-10"/>
    </contour>
    <contour>
      <point x="892" y="418" type="curve" smooth="yes"/>
      <point x="892" y="0" type="line"/>
      <point x="950" y="-10"/>
      <point x="1018" y="-12"/>
      <point x="1064" y="-12" type="curve" smooth="yes"/>
      <point x="1110" y="-12"/>
      <point x="1170" y="-10"/>
      <point x="1228" y="0" type="curve"/>
      <point x="1228" y="1366" type="line"/>
      <point x="1174" y="1376"/>
      <point x="1100" y="1378"/>
      <point x="1060" y="1378" type="curve" smooth="yes"/>
      <point x="1016" y="1378"/>
      <point x="948" y="1376"/>
      <point x="892" y="1366" type="curve"/>
      <point x="892" y="990" type="line" smooth="yes"/>
      <point x="892" y="934"/>
      <point x="894" y="896"/>
      <point x="894" y="842" type="curve" smooth="yes"/>
      <point x="894" y="566" type="line" smooth="yes"/>
      <point x="894" y="512"/>
      <point x="892" y="474"/>
    </contour>
  </outline>
</glyph>
<glyph name="I" format="2">
  <advance width="640"/>
  <unicode hex="0049"/>
  <anchor x="320" y="0" name="bottom"/>
  <anchor x="488" y="0" name="ogonek"/>
  <anchor x="320" y="1466" name="top"/>
  <outline>
    <contour>
      <point x="152" y="1366" type="curve"/>
      <point x="152" y="0" type="line"/>
      <point x="206" y="-10"/>
      <point x="280" y="-12"/>
      <point x="320" y="-12" type="curve" smooth="yes"/>
      <point x="364" y="-12"/>
      <point x="432" y="-10"/>
      <point x="488" y="0" type="curve"/>
      <point x="488" y="1366" type="line"/>
      <point x="432" y="1376"/>
      <point x="364" y="1378"/>
      <point x="320" y="1378" type="curve" smooth="yes"/>
      <point x="280" y="1378"/>
      <point x="206" y="1376"/>
    </contour>
  </outline>
</glyph>
<glyph name="J" format="2">
  <advance width="948"/>
  <unicode hex="004A"/>
  <anchor x="652" y="1464" name="top"/>
  <outline>
    <contour>
      <point x="134" y="316" type="curve"/>
      <point x="74" y="248"/>
      <point x="32" y="152"/>
      <point x="20" y="68" type="curve"/>
      <point x="116" y="8"/>
      <point x="242" y="-20"/>
      <point x="348" y="-20" type="curve" smooth="yes"/>
      <point x="728" y="-20"/>
      <point x="820" y="210"/>
      <point x="820" y="528" type="curve" smooth="yes"/>
      <point x="820" y="1366" type="line"/>
      <point x="764" y="1376"/>
      <point x="696" y="1378"/>
      <point x="652" y="1378" type="curve" smooth="yes"/>
      <point x="612" y="1378"/>
      <point x="538" y="1376"/>
      <point x="484" y="1366" type="curve"/>
      <point x="484" y="498" type="line" smooth="yes"/>
      <point x="484" y="348"/>
      <point x="452" y="256"/>
      <point x="310" y="256" type="curve" smooth="yes"/>
      <point x="248" y="256"/>
      <point x="190" y="282"/>
    </contour>
  </outline>
</glyph>
<glyph name="K" format="2">
  <advance width="1248"/>
  <unicode hex="004B"/>
  <anchor x="662" y="0" name="bottom"/>
  <anchor x="654" y="1464" name="top"/>
  <outline>
    <contour>
      <point x="148" y="1366" type="curve"/>
      <point x="148" y="0" type="line"/>
      <point x="202" y="-10"/>
      <point x="276" y="-12"/>
      <point x="316" y="-12" type="curve" smooth="yes"/>
      <point x="360" y="-12"/>
      <point x="428" y="-10"/>
      <point x="484" y="0" type="curve"/>
      <point x="484" y="1366" type="line"/>
      <point x="428" y="1376"/>
      <point x="360" y="1378"/>
      <point x="316" y="1378" type="curve" smooth="yes"/>
      <point x="276" y="1378"/>
      <point x="202" y="1376"/>
    </contour>
    <contour>
      <point x="1238" y="82" type="curve"/>
      <point x="1190" y="126"/>
      <point x="1172" y="155"/>
      <point x="1132" y="276" type="curve" smooth="yes"/>
      <point x="1054" y="518" type="line" smooth="yes"/>
      <point x="1013" y="646"/>
      <point x="948" y="754"/>
      <point x="720" y="754" type="curve" smooth="yes"/>
      <point x="314" y="754" type="line"/>
      <point x="314" y="550" type="line"/>
      <point x="412" y="560"/>
      <point x="502" y="568"/>
      <point x="564" y="568" type="curve" smooth="yes"/>
      <point x="656" y="568"/>
      <point x="706" y="520"/>
      <point x="744" y="398" type="curve" smooth="yes"/>
      <point x="814" y="172" type="line" smooth="yes"/>
      <point x="854" y="44"/>
      <point x="896" y="-18"/>
      <point x="1016" y="-18" type="curve" smooth="yes"/>
      <point x="1106" y="-18"/>
      <point x="1194" y="18"/>
    </contour>
    <contour>
      <point x="798" y="1264" type="curve" smooth="yes"/>
      <point x="618" y="916" type="line" smooth="yes"/>
      <point x="590" y="860"/>
      <point x="578" y="846"/>
      <point x="526" y="846" type="curve" smooth="yes"/>
      <point x="455" y="845"/>
      <point x="385" y="843"/>
      <point x="314" y="842" type="curve"/>
      <point x="314" y="654" type="line"/>
      <point x="558" y="654" type="line" smooth="yes"/>
      <point x="764" y="654"/>
      <point x="876" y="744"/>
      <point x="954" y="894" type="curve" smooth="yes"/>
      <point x="1188" y="1346" type="line"/>
      <point x="1170" y="1368" type="line"/>
      <point x="1104" y="1374"/>
      <point x="1022" y="1378"/>
      <point x="968" y="1378" type="curve" smooth="yes"/>
      <point x="872" y="1378"/>
      <point x="838" y="1342"/>
    </contour>
  </outline>
</glyph>
<glyph name="L" format="2">
  <advance width="1048"/>
  <unicode hex="004C"/>
  <anchor x="570" y="0" name="bottom"/>
  <anchor x="1048" y="786" name="periodcentered"/>
  <anchor x="312" y="1454" name="top"/>
  <anchor x="517" y="898" name="topright"/>
  <outline>
    <contour>
      <point x="482" y="-6" type="line"/>
      <point x="482" y="1168" type="line" smooth="yes"/>
      <point x="482" y="1318"/>
      <point x="410" y="1380"/>
      <point x="282" y="1380" type="curve" smooth="yes"/>
      <point x="160" y="1380" type="line"/>
      <point x="146" y="1366" type="line"/>
      <point x="146" y="188" type="line" smooth="yes"/>
      <point x="146" y="68"/>
      <point x="220" y="-6"/>
      <point x="340" y="-6" type="curve" smooth="yes"/>
    </contour>
    <contour>
      <point x="1010" y="282" type="curve"/>
      <point x="670" y="282" type="line" smooth="yes"/>
      <point x="524" y="282"/>
      <point x="342" y="268"/>
      <point x="160" y="236" type="curve"/>
      <point x="340" y="-6" type="line"/>
      <point x="782" y="-6" type="line" smooth="yes"/>
      <point x="948" y="-6"/>
      <point x="1010" y="71"/>
    </contour>
  </outline>
</glyph>
<glyph name="M" format="2">
  <advance width="1674"/>
  <unicode hex="004D"/>
  <anchor x="837" y="0" name="bottom"/>
  <anchor x="838" y="1464" name="top"/>
  <outline>
    <contour>
      <point x="210" y="1364" type="curve"/>
      <point x="104" y="4" type="line"/>
      <point x="152" y="-8"/>
      <point x="220" y="-12"/>
      <point x="274" y="-12" type="curve" smooth="yes"/>
      <point x="324" y="-12"/>
      <point x="372" y="-10"/>
      <point x="420" y="-2" type="curve"/>
      <point x="448" y="530" type="line" smooth="yes"/>
      <point x="456" y="676"/>
      <point x="464" y="866"/>
      <point x="464" y="998" type="curve"/>
      <point x="478" y="998" type="line"/>
      <point x="664" y="200" type="line"/>
      <point x="714" y="192"/>
      <point x="794" y="188"/>
      <point x="836" y="188" type="curve" smooth="yes"/>
      <point x="882" y="188"/>
      <point x="960" y="192"/>
      <point x="1010" y="200" type="curve"/>
      <point x="1196" y="998" type="line"/>
      <point x="1210" y="998" type="line"/>
      <point x="1210" y="866"/>
      <point x="1218" y="676"/>
      <point x="1226" y="530" type="curve" smooth="yes"/>
      <point x="1254" y="-2" type="line"/>
      <point x="1302" y="-10"/>
      <point x="1350" y="-12"/>
      <point x="1400" y="-12" type="curve" smooth="yes"/>
      <point x="1454" y="-12"/>
      <point x="1522" y="-8"/>
      <point x="1570" y="4" type="curve"/>
      <point x="1464" y="1364" type="line"/>
      <point x="1394" y="1376"/>
      <point x="1300" y="1380"/>
      <point x="1238" y="1380" type="curve" smooth="yes"/>
      <point x="1176" y="1380"/>
      <point x="1096" y="1376"/>
      <point x="1026" y="1364" type="curve"/>
      <point x="918" y="894" type="line" smooth="yes"/>
      <point x="908" y="848"/>
      <point x="862" y="632"/>
      <point x="844" y="524" type="curve"/>
      <point x="830" y="524" type="line"/>
      <point x="812" y="632"/>
      <point x="766" y="848"/>
      <point x="756" y="894" type="curve" smooth="yes"/>
      <point x="648" y="1364" type="line"/>
      <point x="578" y="1376"/>
      <point x="498" y="1380"/>
      <point x="436" y="1380" type="curve" smooth="yes"/>
      <point x="374" y="1380"/>
      <point x="280" y="1376"/>
    </contour>
  </outline>
</glyph>
<glyph name="N" format="2">
  <advance width="1396"/>
  <unicode hex="004E"/>
  <anchor x="698" y="0" name="bottom"/>
  <anchor x="706" y="1464" name="top"/>
  <outline>
    <contour>
      <point x="148" y="1360" type="curve"/>
      <point x="148" y="0" type="line"/>
      <point x="200" y="-10"/>
      <point x="268" y="-12"/>
      <point x="308" y="-12" type="curve" smooth="yes"/>
      <point x="350" y="-12"/>
      <point x="406" y="-10"/>
      <point x="460" y="0" type="curve"/>
      <point x="460" y="366" type="line" smooth="yes"/>
      <point x="460" y="534"/>
      <point x="450" y="804"/>
      <point x="434" y="978" type="curve"/>
      <point x="456" y="986" type="line"/>
      <point x="540" y="1366" type="line"/>
      <point x="466" y="1376"/>
      <point x="388" y="1378"/>
      <point x="346" y="1378" type="curve" smooth="yes"/>
      <point x="304" y="1378"/>
      <point x="200" y="1372"/>
    </contour>
    <contour>
      <point x="552" y="698" type="curve" smooth="yes"/>
      <point x="852" y="0" type="line"/>
      <point x="1126" y="179" type="line"/>
      <point x="956" y="364" type="line"/>
      <point x="928" y="436"/>
      <point x="882" y="550"/>
      <point x="832" y="670" type="curve" smooth="yes"/>
      <point x="540" y="1366" type="line"/>
      <point x="287" y="1160" type="line"/>
      <point x="442" y="982" type="line"/>
      <point x="468" y="906"/>
      <point x="508" y="802"/>
    </contour>
    <contour>
      <point x="1248" y="1366" type="line"/>
      <point x="1234" y="1380" type="line"/>
      <point x="1126" y="1380" type="line" smooth="yes"/>
      <point x="998" y="1380"/>
      <point x="938" y="1328"/>
      <point x="938" y="1178" type="curve" smooth="yes"/>
      <point x="938" y="970" type="line" smooth="yes"/>
      <point x="938" y="832"/>
      <point x="946" y="558"/>
      <point x="964" y="368" type="curve"/>
      <point x="940" y="360" type="line"/>
      <point x="852" y="0" type="line"/>
      <point x="926" y="-10"/>
      <point x="1004" y="-12"/>
      <point x="1046" y="-12" type="curve" smooth="yes"/>
      <point x="1088" y="-12"/>
      <point x="1194" y="-6"/>
      <point x="1248" y="6" type="curve"/>
    </contour>
  </outline>
</glyph>
<glyph name="O" format="2">
  <advance width="1336"/>
  <unicode hex="004F"/>
  <anchor x="668" y="0" name="bottom"/>
  <anchor x="877" y="0" name="ogonek"/>
  <anchor x="668" y="1464" name="top"/>
  <anchor x="1112" y="1336" name="topright"/>
  <outline>
    <contour>
      <point x="418" y="684" type="curve" smooth="yes"/>
      <point x="418" y="890"/>
      <point x="444" y="1140"/>
      <point x="668" y="1140" type="curve" smooth="yes"/>
      <point x="892" y="1140"/>
      <point x="918" y="890"/>
      <point x="918" y="684" type="curve" smooth="yes"/>
      <point x="918" y="478"/>
      <point x="892" y="226"/>
      <point x="668" y="226" type="curve" smooth="yes"/>
      <point x="444" y="226"/>
      <point x="418" y="478"/>
    </contour>
    <contour>
      <point x="68" y="684" type="curve" smooth="yes"/>
      <point x="68" y="255"/>
      <point x="258" y="-30"/>
      <point x="668" y="-30" type="curve" smooth="yes"/>
      <point x="1075" y="-30"/>
      <point x="1268" y="251"/>
      <point x="1268" y="684" type="curve" smooth="yes"/>
      <point x="1268" y="1112"/>
      <point x="1078" y="1396"/>
      <point x="668" y="1396" type="curve" smooth="yes"/>
      <point x="261" y="1396"/>
      <point x="68" y="1116"/>
    </contour>
  </outline>
</glyph>
<glyph name="P" format="2">
  <advance width="1184"/>
  <unicode hex="0050"/>
  <anchor x="602" y="1464" name="top"/>
  <outline>
    <contour>
      <point x="1128" y="898" type="curve" smooth="yes"/>
      <point x="1128" y="1226"/>
      <point x="920" y="1378"/>
      <point x="634" y="1378" type="curve" smooth="yes"/>
      <point x="480" y="1378"/>
      <point x="336" y="1374"/>
      <point x="162" y="1370" type="curve"/>
      <point x="148" y="1356" type="line"/>
      <point x="148" y="0" type="line"/>
      <point x="202" y="-10"/>
      <point x="276" y="-12"/>
      <point x="316" y="-12" type="curve" smooth="yes"/>
      <point x="360" y="-12"/>
      <point x="428" y="-10"/>
      <point x="484" y="0" type="curve"/>
      <point x="484" y="1124" type="line"/>
      <point x="536" y="1122"/>
      <point x="566" y="1122"/>
      <point x="604" y="1122" type="curve" smooth="yes"/>
      <point x="758" y="1122"/>
      <point x="786" y="988"/>
      <point x="786" y="898" type="curve" smooth="yes"/>
      <point x="786" y="806"/>
      <point x="758" y="674"/>
      <point x="604" y="674" type="curve" smooth="yes"/>
      <point x="566" y="674"/>
      <point x="394" y="668"/>
      <point x="342" y="664" type="curve"/>
      <point x="342" y="420" type="line"/>
      <point x="634" y="420" type="line" smooth="yes"/>
      <point x="920" y="420"/>
      <point x="1128" y="582"/>
    </contour>
  </outline>
</glyph>
<glyph name="Q" format="2">
  <advance width="1344"/>
  <unicode hex="0051"/>
  <outline>
    <contour>
      <point x="412" y="684" type="curve" smooth="yes"/>
      <point x="412" y="892"/>
      <point x="446" y="1140"/>
      <point x="672" y="1140" type="curve" smooth="yes"/>
      <point x="898" y="1140"/>
      <point x="930" y="892"/>
      <point x="930" y="684" type="curve" smooth="yes"/>
      <point x="930" y="478"/>
      <point x="898" y="226"/>
      <point x="672" y="226" type="curve" smooth="yes"/>
      <point x="446" y="226"/>
      <point x="412" y="478"/>
    </contour>
    <contour>
      <point x="68" y="684" type="curve" smooth="yes"/>
      <point x="68" y="265"/>
      <point x="260" y="-30"/>
      <point x="670" y="-30" type="curve" smooth="yes"/>
      <point x="738" y="-30"/>
      <point x="798" y="4"/>
      <point x="848" y="44" type="curve" smooth="yes"/>
      <point x="1151" y="44"/>
      <point x="1276" y="347"/>
      <point x="1276" y="682" type="curve" smooth="yes"/>
      <point x="1276" y="1104"/>
      <point x="1085" y="1396"/>
      <point x="672" y="1396" type="curve" smooth="yes"/>
      <point x="261" y="1396"/>
      <point x="68" y="1107"/>
    </contour>
    <contour>
      <point x="552" y="72" type="line"/>
      <point x="866" y="-210" type="line" smooth="yes"/>
      <point x="922" y="-260"/>
      <point x="990" y="-294"/>
      <point x="1088" y="-294" type="curve" smooth="yes"/>
      <point x="1200" y="-294"/>
      <point x="1296" y="-202"/>
      <point x="1298" y="-56" type="curve"/>
      <point x="1214" y="-56"/>
      <point x="1148" y="-36"/>
      <point x="1046" y="36" type="curve" smooth="yes"/>
      <point x="852" y="174" type="line"/>
    </contour>
  </outline>
</glyph>
<glyph name="R" format="2">
  <advance width="1234"/>
  <unicode hex="0052"/>
  <anchor x="654" y="0" name="bottom"/>
  <anchor x="605" y="1464" name="top"/>
  <outline>
    <contour>
      <point x="1140" y="940" type="curve" smooth="yes"/>
      <point x="1140" y="1248"/>
      <point x="926" y="1378"/>
      <point x="648" y="1378" type="curve" smooth="yes"/>
      <point x="494" y="1378"/>
      <point x="336" y="1374"/>
      <point x="162" y="1370" type="curve"/>
      <point x="148" y="1356" type="line"/>
      <point x="148" y="0" type="line"/>
      <point x="202" y="-10"/>
      <point x="274" y="-12"/>
      <point x="314" y="-12" type="curve" smooth="yes"/>
      <point x="358" y="-12"/>
      <point x="424" y="-10"/>
      <point x="480" y="0" type="curve"/>
      <point x="480" y="1128" type="line"/>
      <point x="536" y="1126"/>
      <point x="580" y="1126"/>
      <point x="618" y="1126" type="curve" smooth="yes"/>
      <point x="764" y="1126"/>
      <point x="798" y="1042"/>
      <point x="798" y="940" type="curve" smooth="yes"/>
      <point x="798" y="842"/>
      <point x="764" y="754"/>
      <point x="618" y="754" type="curve" smooth="yes"/>
      <point x="580" y="754"/>
      <point x="420" y="748"/>
      <point x="344" y="744" type="curve"/>
      <point x="344" y="494" type="line"/>
      <point x="552" y="494" type="line" smooth="yes"/>
      <point x="656" y="494"/>
      <point x="694" y="440"/>
      <point x="716" y="374" type="curve" smooth="yes"/>
      <point x="784" y="174" type="line" smooth="yes"/>
      <point x="828" y="46"/>
      <point x="868" y="-18"/>
      <point x="988" y="-18" type="curve" smooth="yes"/>
      <point x="1078" y="-18"/>
      <point x="1168" y="24"/>
      <point x="1210" y="80" type="curve"/>
      <point x="1166" y="114"/>
      <point x="1131" y="167"/>
      <point x="1110" y="228" type="curve" smooth="yes"/>
      <point x="1054" y="388" type="line" smooth="yes"/>
      <point x="1023" y="477"/>
      <point x="974" y="546"/>
      <point x="898" y="574" type="curve"/>
      <point x="1008" y="618"/>
      <point x="1140" y="746"/>
    </contour>
  </outline>
</glyph>
<glyph name="S" format="2">
  <advance width="1114"/>
  <unicode hex="0053"/>
  <anchor x="550" y="0" name="bottom"/>
  <anchor x="565" y="1464" name="top"/>
  <outline>
    <contour>
      <point x="26" y="118" type="curve"/>
      <point x="176" y="22"/>
      <point x="374" y="-30"/>
      <point x="536" y="-30" type="curve" smooth="yes"/>
      <point x="888" y="-30"/>
      <point x="1066" y="158"/>
      <point x="1066" y="402" type="curve" smooth="yes"/>
      <point x="1066" y="574"/>
      <point x="961" y="719"/>
      <point x="764" y="800" type="curve" smooth="yes"/>
      <point x="517" y="902" type="line" smooth="yes"/>
      <point x="431" y="938"/>
      <point x="407" y="974"/>
      <point x="407" y="1020" type="curve" smooth="yes"/>
      <point x="407" y="1066"/>
      <point x="445" y="1128"/>
      <point x="555" y="1128" type="curve" smooth="yes"/>
      <point x="663" y="1128"/>
      <point x="817" y="1078"/>
      <point x="919" y="1030" type="curve"/>
      <point x="983" y="1090"/>
      <point x="1025" y="1184"/>
      <point x="1031" y="1280" type="curve"/>
      <point x="927" y="1334"/>
      <point x="747" y="1396"/>
      <point x="555" y="1396" type="curve" smooth="yes"/>
      <point x="283" y="1396"/>
      <point x="63" y="1228"/>
      <point x="63" y="974" type="curve" smooth="yes"/>
      <point x="63" y="780"/>
      <point x="186" y="671"/>
      <point x="351" y="602" type="curve" smooth="yes"/>
      <point x="592" y="502" type="line" smooth="yes"/>
      <point x="703" y="456"/>
      <point x="710" y="398"/>
      <point x="710" y="362" type="curve" smooth="yes"/>
      <point x="710" y="304"/>
      <point x="670" y="238"/>
      <point x="560" y="238" type="curve" smooth="yes"/>
      <point x="416" y="238"/>
      <point x="266" y="302"/>
      <point x="154" y="368" type="curve"/>
      <point x="90" y="312"/>
      <point x="34" y="212"/>
    </contour>
  </outline>
</glyph>
<glyph name="T" format="2">
  <advance width="1024"/>
  <unicode hex="0054"/>
  <anchor x="514" y="0" name="bottom"/>
  <anchor x="514" y="1464" name="top"/>
  <outline>
    <contour>
      <point x="16" y="1088" type="curve"/>
      <point x="218" y="1088" type="line" smooth="yes"/>
      <point x="248" y="1088"/>
      <point x="316" y="1090"/>
      <point x="346" y="1090" type="curve" smooth="yes"/>
      <point x="682" y="1090" type="line" smooth="yes"/>
      <point x="712" y="1090"/>
      <point x="780" y="1088"/>
      <point x="810" y="1088" type="curve" smooth="yes"/>
      <point x="858" y="1088" type="line" smooth="yes"/>
      <point x="978" y="1088"/>
      <point x="1032" y="1128"/>
      <point x="1032" y="1238" type="curve" smooth="yes"/>
      <point x="1032" y="1280"/>
      <point x="1026" y="1332"/>
      <point x="1016" y="1366" type="curve"/>
      <point x="16" y="1366" type="line"/>
      <point x="6" y="1316"/>
      <point x="4" y="1264"/>
      <point x="4" y="1226" type="curve" smooth="yes"/>
      <point x="4" y="1188"/>
      <point x="6" y="1138"/>
    </contour>
    <contour>
      <point x="346" y="942" type="curve" smooth="yes"/>
      <point x="346" y="0" type="line"/>
      <point x="404" y="-10"/>
      <point x="468" y="-12"/>
      <point x="514" y="-12" type="curve" smooth="yes"/>
      <point x="560" y="-12"/>
      <point x="624" y="-10"/>
      <point x="682" y="0" type="curve"/>
      <point x="682" y="942" type="line" smooth="yes"/>
      <point x="682" y="996"/>
      <point x="680" y="1034"/>
      <point x="680" y="1090" type="curve" smooth="yes"/>
      <point x="680" y="1228" type="line"/>
      <point x="348" y="1228" type="line"/>
      <point x="348" y="1090" type="line" smooth="yes"/>
      <point x="348" y="1034"/>
      <point x="346" y="996"/>
    </contour>
  </outline>
</glyph>
<glyph name="U" format="2">
  <advance width="1348"/>
  <unicode hex="0055"/>
  <anchor x="674" y="0" name="bottom"/>
  <anchor x="912" y="8" name="ogonek"/>
  <anchor x="668" y="1464" name="top"/>
  <anchor x="1220" y="1366" name="topright"/>
  <outline>
    <contour>
      <point x="1220" y="508" type="curve" smooth="yes"/>
      <point x="1220" y="1366" type="line"/>
      <point x="1166" y="1376"/>
      <point x="1088" y="1378"/>
      <point x="1048" y="1378" type="curve" smooth="yes"/>
      <point x="1004" y="1378"/>
      <point x="940" y="1376"/>
      <point x="884" y="1366" type="curve"/>
      <point x="884" y="504" type="line" smooth="yes"/>
      <point x="884" y="326"/>
      <point x="830" y="236"/>
      <point x="674" y="236" type="curve" smooth="yes"/>
      <point x="518" y="236"/>
      <point x="464" y="326"/>
      <point x="464" y="504" type="curve" smooth="yes"/>
      <point x="464" y="1168" type="line" smooth="yes"/>
      <point x="464" y="1318"/>
      <point x="392" y="1380"/>
      <point x="264" y="1380" type="curve" smooth="yes"/>
      <point x="142" y="1380" type="line"/>
      <point x="128" y="1366" type="line"/>
      <point x="128" y="508" type="line" smooth="yes"/>
      <point x="128" y="168"/>
      <point x="322" y="-30"/>
      <point x="674" y="-30" type="curve" smooth="yes"/>
      <point x="1026" y="-30"/>
      <point x="1220" y="168"/>
    </contour>
  </outline>
</glyph>
<glyph name="V" format="2">
  <advance width="1222"/>
  <unicode hex="0056"/>
  <anchor x="608" y="0" name="bottom"/>
  <anchor x="614" y="1464" name="top"/>
  <outline>
    <contour>
      <point x="894" y="1366" type="curve"/>
      <point x="638" y="278" type="line"/>
      <point x="626" y="278"/>
      <point x="620" y="282"/>
      <point x="616" y="304" type="curve" smooth="yes"/>
      <point x="598" y="422"/>
      <point x="574" y="550"/>
      <point x="542" y="670" type="curve" smooth="yes"/>
      <point x="396" y="1218" type="line" smooth="yes"/>
      <point x="366" y="1332"/>
      <point x="316" y="1384"/>
      <point x="216" y="1384" type="curve" smooth="yes"/>
      <point x="142" y="1384"/>
      <point x="74" y="1362"/>
      <point x="14" y="1336" type="curve"/>
      <point x="342" y="138" type="line" smooth="yes"/>
      <point x="375" y="20"/>
      <point x="442" y="-12"/>
      <point x="568" y="-12" type="curve" smooth="yes"/>
      <point x="654" y="-12"/>
      <point x="758" y="-8"/>
      <point x="836" y="0" type="curve"/>
      <point x="1208" y="1338" type="line"/>
      <point x="1194" y="1356" type="line"/>
      <point x="1148" y="1372"/>
      <point x="1080" y="1378"/>
      <point x="1040" y="1378" type="curve" smooth="yes"/>
      <point x="996" y="1378"/>
      <point x="944" y="1378"/>
    </contour>
  </outline>
</glyph>
<glyph name="W" format="2">
  <advance width="1822"/>
  <unicode hex="0057"/>
  <anchor x="912" y="0" name="bottom"/>
  <anchor x="912" y="1464" name="top"/>
  <outline>
    <contour>
      <point x="26" y="1346" type="curve"/>
      <point x="260" y="138" type="line" smooth="yes"/>
      <point x="286" y="4"/>
      <point x="364" y="-12"/>
      <point x="472" y="-12" type="curve" smooth="yes"/>
      <point x="564" y="-12"/>
      <point x="672" y="-6"/>
      <point x="752" y="2" type="curve"/>
      <point x="838" y="556" type="line" smooth="yes"/>
      <point x="864" y="718"/>
      <point x="888" y="896"/>
      <point x="900" y="1016" type="curve"/>
      <point x="916" y="1016" type="line"/>
      <point x="924" y="896"/>
      <point x="946" y="716"/>
      <point x="970" y="556" type="curve" smooth="yes"/>
      <point x="1034" y="138" type="line" smooth="yes"/>
      <point x="1054" y="4"/>
      <point x="1138" y="-12"/>
      <point x="1238" y="-12" type="curve" smooth="yes"/>
      <point x="1326" y="-12"/>
      <point x="1446" y="-6"/>
      <point x="1522" y="2" type="curve"/>
      <point x="1784" y="1336" type="line"/>
      <point x="1768" y="1356" type="line"/>
      <point x="1724" y="1370"/>
      <point x="1662" y="1378"/>
      <point x="1610" y="1378" type="curve" smooth="yes"/>
      <point x="1564" y="1378"/>
      <point x="1510" y="1376"/>
      <point x="1460" y="1366" type="curve"/>
      <point x="1352" y="710" type="line" smooth="yes"/>
      <point x="1328" y="570"/>
      <point x="1304" y="388"/>
      <point x="1294" y="280" type="curve"/>
      <point x="1282" y="280"/>
      <point x="1276" y="280"/>
      <point x="1272" y="308" type="curve" smooth="yes"/>
      <point x="1126" y="1340" type="line"/>
      <point x="1062" y="1352"/>
      <point x="980" y="1356"/>
      <point x="912" y="1356" type="curve" smooth="yes"/>
      <point x="846" y="1356"/>
      <point x="764" y="1352"/>
      <point x="698" y="1340" type="curve"/>
      <point x="540" y="280" type="line"/>
      <point x="526" y="280"/>
      <point x="522" y="282"/>
      <point x="520" y="308" type="curve" smooth="yes"/>
      <point x="512" y="404"/>
      <point x="488" y="572"/>
      <point x="466" y="706" type="curve" smooth="yes"/>
      <point x="388" y="1200" type="line" smooth="yes"/>
      <point x="366" y="1344"/>
      <point x="320" y="1384"/>
      <point x="202" y="1384" type="curve" smooth="yes"/>
      <point x="142" y="1384"/>
      <point x="74" y="1366"/>
    </contour>
  </outline>
</glyph>
<glyph name="X" format="2">
  <advance width="1240"/>
  <unicode hex="0058"/>
  <anchor x="615" y="1464" name="top"/>
  <outline>
    <contour>
      <point x="44" y="1314" type="curve"/>
      <point x="792" y="112" type="line"/>
      <point x="856" y="12"/>
      <point x="912" y="-20"/>
      <point x="1008" y="-20" type="curve" smooth="yes"/>
      <point x="1078" y="-20"/>
      <point x="1160" y="8"/>
      <point x="1226" y="52" type="curve"/>
      <point x="474" y="1256" type="line" smooth="yes"/>
      <point x="412" y="1354"/>
      <point x="358" y="1386"/>
      <point x="262" y="1386" type="curve" smooth="yes"/>
      <point x="192" y="1386"/>
      <point x="110" y="1358"/>
    </contour>
    <contour>
      <point x="862" y="1366" type="curve"/>
      <point x="618" y="950" type="line"/>
      <point x="482" y="798" type="line"/>
      <point x="14" y="34" type="line"/>
      <point x="22" y="16" type="line"/>
      <point x="70" y="0"/>
      <point x="138" y="-12"/>
      <point x="202" y="-12" type="curve" smooth="yes"/>
      <point x="260" y="-12"/>
      <point x="306" y="-8"/>
      <point x="342" y="0" type="curve"/>
      <point x="622" y="474" type="line"/>
      <point x="758" y="628" type="line"/>
      <point x="1186" y="1334" type="line"/>
      <point x="1178" y="1350" type="line"/>
      <point x="1134" y="1366"/>
      <point x="1066" y="1378"/>
      <point x="1002" y="1378" type="curve" smooth="yes"/>
      <point x="944" y="1378"/>
      <point x="898" y="1374"/>
    </contour>
  </outline>
</glyph>
<glyph name="Y" format="2">
  <advance width="1096"/>
  <unicode hex="0059"/>
  <anchor x="550" y="0" name="bottom"/>
  <anchor x="554" y="1464" name="top"/>
  <outline>
    <contour>
      <point x="380" y="618" type="line"/>
      <point x="380" y="0" type="line"/>
      <point x="434" y="-10"/>
      <point x="510" y="-12"/>
      <point x="550" y="-12" type="curve" smooth="yes"/>
      <point x="594" y="-12"/>
      <point x="660" y="-10"/>
      <point x="716" y="0" type="curve"/>
      <point x="716" y="618" type="line"/>
    </contour>
    <contour>
      <point x="790" y="1366" type="curve"/>
      <point x="662" y="1044" type="line" smooth="yes"/>
      <point x="624" y="948"/>
      <point x="588" y="844"/>
      <point x="562" y="740" type="curve"/>
      <point x="550" y="740" type="line"/>
      <point x="522" y="852"/>
      <point x="492" y="946"/>
      <point x="458" y="1032" type="curve" smooth="yes"/>
      <point x="372" y="1250" type="line" smooth="yes"/>
      <point x="334" y="1344"/>
      <point x="290" y="1382"/>
      <point x="196" y="1382" type="curve" smooth="yes"/>
      <point x="124" y="1382"/>
      <point x="48" y="1358"/>
      <point x="-8" y="1326" type="curve"/>
      <point x="400" y="380" type="line"/>
      <point x="700" y="380" type="line"/>
      <point x="1104" y="1336" type="line"/>
      <point x="1090" y="1354" type="line"/>
      <point x="1046" y="1370"/>
      <point x="982" y="1378"/>
      <point x="926" y="1378" type="curve" smooth="yes"/>
      <point x="882" y="1378"/>
      <point x="836" y="1376"/>
    </contour>
  </outline>
</glyph>
<glyph name="Z" format="2">
  <advance width="1164"/>
  <unicode hex="005A"/>
  <anchor x="572" y="0" name="bottom"/>
  <anchor x="578" y="1464" name="top"/>
  <outline>
    <contour>
      <point x="548" y="912" type="curve" smooth="yes"/>
      <point x="112" y="322" type="line" smooth="yes"/>
      <point x="85" y="286"/>
      <point x="72" y="240"/>
      <point x="72" y="200" type="curve" smooth="yes"/>
      <point x="72" y="172"/>
      <point x="76" y="148"/>
      <point x="108" y="0" type="curve"/>
      <point x="874" y="0" type="line" smooth="yes"/>
      <point x="1000" y="0"/>
      <point x="1092" y="56"/>
      <point x="1092" y="176" type="curve" smooth="yes"/>
      <point x="1092" y="228"/>
      <point x="1082" y="286"/>
      <point x="1070" y="326" type="curve"/>
      <point x="1016" y="300"/>
      <point x="942" y="278"/>
      <point x="846" y="278" type="curve" smooth="yes"/>
      <point x="748" y="278" type="line" smooth="yes"/>
      <point x="660" y="278"/>
      <point x="526" y="270"/>
      <point x="440" y="264" type="curve"/>
      <point x="434" y="270" type="line"/>
      <point x="486" y="322"/>
      <point x="552" y="402"/>
      <point x="590" y="454" type="curve" smooth="yes"/>
      <point x="1028" y="1046" type="line" smooth="yes"/>
      <point x="1056" y="1086"/>
      <point x="1064" y="1124"/>
      <point x="1064" y="1162" type="curve" smooth="yes"/>
      <point x="1064" y="1186"/>
      <point x="1062" y="1208"/>
      <point x="1018" y="1366" type="curve"/>
      <point x="124" y="1366" type="line"/>
      <point x="110" y="1310"/>
      <point x="102" y="1264"/>
      <point x="102" y="1206" type="curve" smooth="yes"/>
      <point x="102" y="1170"/>
      <point x="104" y="1134"/>
      <point x="114" y="1094" type="curve"/>
      <point x="396" y="1094" type="line" smooth="yes"/>
      <point x="480" y="1094"/>
      <point x="606" y="1100"/>
      <point x="704" y="1112" type="curve"/>
      <point x="710" y="1106" type="line"/>
      <point x="660" y="1054"/>
      <point x="586" y="964"/>
    </contour>
  </outline>
</glyph>
<glyph name="bracketleft" format="2">
  <advance width="804"/>
  <unicode hex="005B"/>
  <outline>
    <contour>
      <point x="196" y="1544" type="line"/>
      <point x="196" y="-416" type="line"/>
      <point x="514" y="-336" type="line"/>
      <point x="514" y="1434" type="line"/>
    </contour>
    <contour>
      <point x="214" y="-432" type="line"/>
      <point x="726" y="-414" type="line"/>
      <point x="734" y="-394"/>
      <point x="738" y="-348"/>
      <point x="738" y="-324" type="curve" smooth="yes"/>
      <point x="738" y="-272"/>
      <point x="724" y="-216"/>
      <point x="714" y="-192" type="curve"/>
      <point x="222" y="-178" type="line"/>
      <point x="196" y="-416" type="line"/>
    </contour>
    <contour>
      <point x="726" y="1542" type="curve"/>
      <point x="214" y="1560" type="line"/>
      <point x="196" y="1544" type="line"/>
      <point x="222" y="1306" type="line"/>
      <point x="714" y="1320" type="line"/>
      <point x="724" y="1344"/>
      <point x="738" y="1400"/>
      <point x="738" y="1452" type="curve" smooth="yes"/>
      <point x="738" y="1476"/>
      <point x="734" y="1522"/>
    </contour>
  </outline>
</glyph>
<glyph name="backslash" format="2">
  <advance width="910"/>
  <unicode hex="005C"/>
  <outline>
    <contour>
      <point x="632" y="-342" type="curve"/>
      <point x="4" y="1332" type="line"/>
      <point x="84" y="1394"/>
      <point x="186" y="1426"/>
      <point x="282" y="1438" type="curve"/>
      <point x="910" y="-236" type="line"/>
      <point x="830" y="-298"/>
      <point x="728" y="-330"/>
    </contour>
  </outline>
</glyph>
<glyph name="bracketright" format="2">
  <advance width="804"/>
  <unicode hex="005D"/>
  <outline>
    <contour>
      <point x="608" y="1544" type="line"/>
      <point x="608" y="-416" type="line"/>
      <point x="290" y="-336" type="line"/>
      <point x="290" y="1434" type="line"/>
    </contour>
    <contour>
      <point x="590" y="-432" type="line"/>
      <point x="78" y="-414" type="line"/>
      <point x="70" y="-394"/>
      <point x="66" y="-348"/>
      <point x="66" y="-324" type="curve" smooth="yes"/>
      <point x="66" y="-272"/>
      <point x="80" y="-216"/>
      <point x="90" y="-192" type="curve"/>
      <point x="582" y="-178" type="line"/>
      <point x="608" y="-416" type="line"/>
    </contour>
    <contour>
      <point x="78" y="1542" type="curve"/>
      <point x="590" y="1560" type="line"/>
      <point x="608" y="1544" type="line"/>
      <point x="582" y="1306" type="line"/>
      <point x="90" y="1320" type="line"/>
      <point x="80" y="1344"/>
      <point x="66" y="1400"/>
      <point x="66" y="1452" type="curve" smooth="yes"/>
      <point x="66" y="1476"/>
      <point x="70" y="1522"/>
    </contour>
  </outline>
</glyph>
<glyph name="asciicircum" format="2">
  <advance width="1060"/>
  <unicode hex="005E"/>
  <outline>
    <contour>
      <point x="1008" y="612" type="curve"/>
      <point x="704" y="1296" type="line"/>
      <point x="668" y="1306"/>
      <point x="601" y="1310"/>
      <point x="534" y="1310" type="curve" smooth="yes"/>
      <point x="463" y="1310"/>
      <point x="392" y="1305"/>
      <point x="356" y="1296" type="curve"/>
      <point x="52" y="612" type="line"/>
      <point x="93" y="603"/>
      <point x="153" y="598"/>
      <point x="212" y="598" type="curve" smooth="yes"/>
      <point x="268" y="598"/>
      <point x="323" y="602"/>
      <point x="362" y="612" type="curve"/>
      <point x="448" y="834" type="line" smooth="yes"/>
      <point x="464" y="876"/>
      <point x="508" y="1010"/>
      <point x="522" y="1054" type="curve"/>
      <point x="538" y="1054" type="line"/>
      <point x="552" y="1010"/>
      <point x="596" y="876"/>
      <point x="612" y="834" type="curve" smooth="yes"/>
      <point x="698" y="612" type="line"/>
      <point x="737" y="602"/>
      <point x="792" y="598"/>
      <point x="848" y="598" type="curve" smooth="yes"/>
      <point x="907" y="598"/>
      <point x="967" y="603"/>
    </contour>
  </outline>
</glyph>
<glyph name="underscore" format="2">
  <advance width="1140"/>
  <unicode hex="005F"/>
  <outline>
    <contour>
      <point x="-2" y="-360" type="curve"/>
      <point x="1142" y="-360" type="line"/>
      <point x="1152" y="-318"/>
      <point x="1156" y="-284"/>
      <point x="1156" y="-238" type="curve"/>
      <point x="1156" y="-192"/>
      <point x="1152" y="-160"/>
      <point x="1142" y="-116" type="curve"/>
      <point x="-2" y="-116" type="line"/>
      <point x="-14" y="-160"/>
      <point x="-16" y="-218"/>
      <point x="-16" y="-238" type="curve" smooth="yes"/>
      <point x="-16" y="-262"/>
      <point x="-14" y="-318"/>
    </contour>
  </outline>
</glyph>
<glyph name="a" format="2">
  <advance width="1028"/>
  <unicode hex="0061"/>
  <anchor x="512" y="0" name="bottom"/>
  <anchor x="876" y="-16" name="ogonek"/>
  <anchor x="502" y="1084" name="top"/>
  <outline>
    <contour>
      <point x="56" y="274" type="curve" smooth="yes"/>
      <point x="56" y="130"/>
      <point x="154" y="-30"/>
      <point x="362" y="-30" type="curve" smooth="yes"/>
      <point x="542" y="-30"/>
      <point x="644" y="68"/>
      <point x="724" y="162" type="curve"/>
      <point x="678" y="366" type="line"/>
      <point x="624" y="270"/>
      <point x="538" y="210"/>
      <point x="460" y="210" type="curve" smooth="yes"/>
      <point x="408" y="210"/>
      <point x="374" y="246"/>
      <point x="374" y="296" type="curve" smooth="yes"/>
      <point x="374" y="366"/>
      <point x="406" y="416"/>
      <point x="490" y="416" type="curve" smooth="yes"/>
      <point x="540" y="416"/>
      <point x="632" y="416"/>
      <point x="688" y="404" type="curve"/>
      <point x="688" y="610" type="line"/>
      <point x="616" y="624"/>
      <point x="512" y="624"/>
      <point x="454" y="624" type="curve" smooth="yes"/>
      <point x="250" y="624"/>
      <point x="56" y="516"/>
    </contour>
    <contour>
      <point x="974" y="152" type="curve"/>
      <point x="936" y="178"/>
      <point x="918" y="220"/>
      <point x="918" y="276" type="curve" smooth="yes"/>
      <point x="918" y="682" type="line" smooth="yes"/>
      <point x="918" y="938"/>
      <point x="730" y="1024"/>
      <point x="558" y="1024" type="curve" smooth="yes"/>
      <point x="430" y="1024"/>
      <point x="232" y="992"/>
      <point x="94" y="936" type="curve"/>
      <point x="101" y="856"/>
      <point x="126" y="764"/>
      <point x="172" y="710" type="curve"/>
      <point x="276" y="740"/>
      <point x="380" y="772"/>
      <point x="464" y="772" type="curve" smooth="yes"/>
      <point x="552" y="772"/>
      <point x="590" y="730"/>
      <point x="590" y="652" type="curve" smooth="yes"/>
      <point x="590" y="228" type="line"/>
      <point x="610" y="122"/>
      <point x="692" y="-16"/>
      <point x="876" y="-16" type="curve"/>
      <point x="916" y="16"/>
      <point x="962" y="94"/>
    </contour>
  </outline>
</glyph>
<glyph name="b" format="2">
  <advance width="1072"/>
  <unicode hex="0062"/>
  <anchor x="522" y="0" name="bottom"/>
  <anchor x="565" y="1520" name="top"/>
  <outline>
    <contour>
      <point x="434" y="50" type="line"/>
      <point x="434" y="1276" type="line" smooth="yes"/>
      <point x="434" y="1422"/>
      <point x="380" y="1472"/>
      <point x="252" y="1472" type="curve" smooth="yes"/>
      <point x="128" y="1472" type="line"/>
      <point x="114" y="1458" type="line"/>
      <point x="114" y="50" type="line"/>
    </contour>
    <contour>
      <point x="1016" y="514" type="curve" smooth="yes"/>
      <point x="1016" y="806"/>
      <point x="898" y="1020"/>
      <point x="660" y="1020" type="curve" smooth="yes"/>
      <point x="522" y="1020"/>
      <point x="426" y="964"/>
      <point x="342" y="884" type="curve"/>
      <point x="388" y="638" type="line"/>
      <point x="436" y="728"/>
      <point x="508" y="760"/>
      <point x="560" y="758" type="curve" smooth="yes"/>
      <point x="644" y="756"/>
      <point x="680" y="682"/>
      <point x="680" y="508" type="curve" smooth="yes"/>
      <point x="680" y="330"/>
      <point x="636" y="216"/>
      <point x="516" y="216" type="curve" smooth="yes"/>
      <point x="426" y="216"/>
      <point x="342" y="242"/>
      <point x="268" y="290" type="curve"/>
      <point x="114" y="50" type="line"/>
      <point x="220" y="8"/>
      <point x="362" y="-18"/>
      <point x="510" y="-18" type="curve" smooth="yes"/>
      <point x="824" y="-18"/>
      <point x="1018" y="192"/>
    </contour>
  </outline>
</glyph>
<glyph name="c" format="2">
  <advance width="950"/>
  <unicode hex="0063"/>
  <anchor x="502" y="0" name="bottom"/>
  <anchor x="504" y="1084" name="top"/>
  <outline>
    <contour>
      <point x="610" y="548" type="curve"/>
      <point x="650" y="540"/>
      <point x="686" y="536"/>
      <point x="742" y="536" type="curve" smooth="yes"/>
      <point x="832" y="536"/>
      <point x="902" y="584"/>
      <point x="902" y="694" type="curve" smooth="yes"/>
      <point x="902" y="900"/>
      <point x="730" y="1030"/>
      <point x="508" y="1030" type="curve" smooth="yes"/>
      <point x="288" y="1030"/>
      <point x="56" y="888"/>
      <point x="56" y="498" type="curve" smooth="yes"/>
      <point x="56" y="172"/>
      <point x="214" y="-30"/>
      <point x="502" y="-30" type="curve" smooth="yes"/>
      <point x="650" y="-30"/>
      <point x="806" y="30"/>
      <point x="894" y="124" type="curve"/>
      <point x="880" y="188"/>
      <point x="824" y="276"/>
      <point x="772" y="306" type="curve"/>
      <point x="710" y="262"/>
      <point x="632" y="224"/>
      <point x="556" y="224" type="curve" smooth="yes"/>
      <point x="446" y="224"/>
      <point x="390" y="290"/>
      <point x="390" y="498" type="curve" smooth="yes"/>
      <point x="390" y="702"/>
      <point x="414" y="788"/>
      <point x="502" y="788" type="curve" smooth="yes"/>
      <point x="600" y="788"/>
      <point x="610" y="706"/>
    </contour>
  </outline>
</glyph>
<glyph name="d" format="2">
  <advance width="1080"/>
  <unicode hex="0064"/>
  <guideline x="549" y="-1" angle="90"/>
  <anchor x="568" y="0" name="bottom"/>
  <anchor x="511" y="1520" name="top"/>
  <anchor x="962" y="1000" name="topright"/>
  <outline>
    <contour>
      <point x="962" y="290" type="curve" smooth="yes"/>
      <point x="962" y="1276" type="line" smooth="yes"/>
      <point x="962" y="1422"/>
      <point x="912" y="1472"/>
      <point x="784" y="1472" type="curve" smooth="yes"/>
      <point x="656" y="1472" type="line"/>
      <point x="642" y="1458" type="line"/>
      <point x="642" y="290" type="line" smooth="yes"/>
      <point x="642" y="118"/>
      <point x="738" y="-16"/>
      <point x="920" y="-16" type="curve"/>
      <point x="960" y="16"/>
      <point x="1006" y="94"/>
      <point x="1018" y="152" type="curve"/>
      <point x="986" y="174"/>
      <point x="962" y="228"/>
    </contour>
    <contour>
      <point x="60" y="488" type="curve" smooth="yes"/>
      <point x="60" y="184"/>
      <point x="176" y="-30"/>
      <point x="422" y="-30" type="curve" smooth="yes"/>
      <point x="620" y="-30"/>
      <point x="782" y="138"/>
      <point x="798" y="304" type="curve"/>
      <point x="724" y="484" type="line"/>
      <point x="670" y="268"/>
      <point x="566" y="232"/>
      <point x="508" y="232" type="curve" smooth="yes"/>
      <point x="442" y="232"/>
      <point x="396" y="308"/>
      <point x="396" y="486" type="curve" smooth="yes"/>
      <point x="396" y="662"/>
      <point x="428" y="778"/>
      <point x="522" y="778" type="curve" smooth="yes"/>
      <point x="582" y="778"/>
      <point x="664" y="728"/>
      <point x="742" y="664" type="curve"/>
      <point x="796" y="894" type="line"/>
      <point x="708" y="946"/>
      <point x="604" y="1020"/>
      <point x="464" y="1020" type="curve" smooth="yes"/>
      <point x="240" y="1020"/>
      <point x="60" y="830"/>
    </contour>
  </outline>
</glyph>
<glyph name="e" format="2">
  <advance width="992"/>
  <unicode hex="0065"/>
  <anchor x="519" y="0" name="bottom"/>
  <anchor x="721" y="0" name="ogonek"/>
  <anchor x="510" y="1084" name="top"/>
  <outline>
    <contour>
      <point x="266" y="394" type="line"/>
      <point x="900" y="394" type="line"/>
      <point x="920" y="462"/>
      <point x="928" y="514"/>
      <point x="928" y="606" type="curve" smooth="yes"/>
      <point x="928" y="848"/>
      <point x="772" y="1030"/>
      <point x="508" y="1030" type="curve" smooth="yes"/>
      <point x="184" y="1030"/>
      <point x="56" y="794"/>
      <point x="56" y="492" type="curve" smooth="yes"/>
      <point x="56" y="228"/>
      <point x="150" y="-30"/>
      <point x="506" y="-30" type="curve" smooth="yes"/>
      <point x="648" y="-30"/>
      <point x="800" y="10"/>
      <point x="902" y="84" type="curve"/>
      <point x="892" y="148"/>
      <point x="864" y="228"/>
      <point x="816" y="276" type="curve"/>
      <point x="736" y="244"/>
      <point x="648" y="218"/>
      <point x="560" y="218" type="curve" smooth="yes"/>
      <point x="402" y="218"/>
      <point x="384" y="336"/>
      <point x="384" y="466" type="curve" smooth="yes"/>
      <point x="384" y="564" type="line" smooth="yes"/>
      <point x="384" y="726"/>
      <point x="414" y="798"/>
      <point x="506" y="798" type="curve" smooth="yes"/>
      <point x="594" y="798"/>
      <point x="628" y="726"/>
      <point x="628" y="640" type="curve" smooth="yes"/>
      <point x="628" y="618" type="line"/>
      <point x="266" y="618" type="line"/>
    </contour>
  </outline>
</glyph>
<glyph name="f" format="2">
  <advance width="722"/>
  <unicode hex="0066"/>
  <anchor x="470" y="1520" name="top"/>
  <outline>
    <contour>
      <point x="332" y="998" type="line"/>
      <point x="0" y="1002" type="line"/>
      <point x="-8" y="966"/>
      <point x="-12" y="924"/>
      <point x="-12" y="888" type="curve" smooth="yes"/>
      <point x="-12" y="852"/>
      <point x="-8" y="806"/>
      <point x="0" y="770" type="curve"/>
      <point x="328" y="776" type="line"/>
      <point x="728" y="770" type="line"/>
      <point x="736" y="806"/>
      <point x="740" y="852"/>
      <point x="740" y="888" type="curve" smooth="yes"/>
      <point x="740" y="924"/>
      <point x="736" y="966"/>
      <point x="728" y="1002" type="curve"/>
    </contour>
    <contour>
      <point x="172" y="864" type="curve"/>
      <point x="172" y="0" type="line"/>
      <point x="222" y="-8"/>
      <point x="278" y="-12"/>
      <point x="330" y="-12" type="curve" smooth="yes"/>
      <point x="384" y="-12"/>
      <point x="442" y="-8"/>
      <point x="492" y="0" type="curve"/>
      <point x="492" y="862" type="line"/>
      <point x="482" y="934"/>
      <point x="460" y="1028"/>
      <point x="460" y="1102" type="curve" smooth="yes"/>
      <point x="460" y="1190"/>
      <point x="508" y="1234"/>
      <point x="592" y="1234" type="curve" smooth="yes"/>
      <point x="646" y="1234"/>
      <point x="706" y="1218"/>
      <point x="744" y="1208" type="curve"/>
      <point x="786" y="1252"/>
      <point x="816" y="1350"/>
      <point x="814" y="1424" type="curve"/>
      <point x="744" y="1450"/>
      <point x="630" y="1480"/>
      <point x="500" y="1480" type="curve" smooth="yes"/>
      <point x="290" y="1480"/>
      <point x="146" y="1328"/>
      <point x="146" y="1126" type="curve" smooth="yes"/>
      <point x="146" y="1034"/>
      <point x="164" y="950"/>
    </contour>
  </outline>
</glyph>
<glyph name="g" format="2">
  <advance width="1074"/>
  <unicode hex="0067"/>
  <anchor x="528" y="-418" name="bottom"/>
  <anchor x="553" y="1084" name="top"/>
  <outline>
    <contour>
      <point x="1020" y="848" type="curve"/>
      <point x="1012" y="906"/>
      <point x="962" y="984"/>
      <point x="922" y="1016" type="curve"/>
      <point x="740" y="1016"/>
      <point x="644" y="882"/>
      <point x="644" y="710" type="curve"/>
      <point x="644" y="-8" type="line" smooth="yes"/>
      <point x="644" y="-126"/>
      <point x="586" y="-200"/>
      <point x="448" y="-200" type="curve" smooth="yes"/>
      <point x="358" y="-200"/>
      <point x="264" y="-178"/>
      <point x="178" y="-140" type="curve"/>
      <point x="132" y="-194"/>
      <point x="98" y="-300"/>
      <point x="98" y="-376" type="curve"/>
      <point x="204" y="-416"/>
      <point x="352" y="-442"/>
      <point x="478" y="-442" type="curve" smooth="yes"/>
      <point x="640" y="-442"/>
      <point x="778" y="-398"/>
      <point x="860" y="-294" type="curve" smooth="yes"/>
      <point x="922" y="-214"/>
      <point x="964" y="-96"/>
      <point x="964" y="192" type="curve" smooth="yes"/>
      <point x="964" y="710" type="line" smooth="yes"/>
      <point x="964" y="772"/>
      <point x="988" y="826"/>
    </contour>
    <contour>
      <point x="60" y="498" type="curve" smooth="yes"/>
      <point x="60" y="194"/>
      <point x="176" y="-20"/>
      <point x="422" y="-20" type="curve" smooth="yes"/>
      <point x="560" y="-20"/>
      <point x="690" y="60"/>
      <point x="758" y="176" type="curve"/>
      <point x="712" y="402" type="line"/>
      <point x="660" y="294"/>
      <point x="582" y="242"/>
      <point x="506" y="242" type="curve" smooth="yes"/>
      <point x="442" y="242"/>
      <point x="396" y="318"/>
      <point x="396" y="496" type="curve" smooth="yes"/>
      <point x="396" y="674"/>
      <point x="428" y="788"/>
      <point x="522" y="788" type="curve" smooth="yes"/>
      <point x="590" y="788"/>
      <point x="684" y="710"/>
      <point x="762" y="560" type="curve"/>
      <point x="816" y="826" type="line"/>
      <point x="768" y="914"/>
      <point x="662" y="1030"/>
      <point x="464" y="1030" type="curve" smooth="yes"/>
      <point x="242" y="1030"/>
      <point x="60" y="840"/>
    </contour>
  </outline>
</glyph>
<glyph name="h" format="2">
  <advance width="1086"/>
  <unicode hex="0068"/>
  <anchor x="564" y="0" name="bottom"/>
  <anchor x="545" y="1520" name="top"/>
  <outline>
    <contour>
      <point x="434" y="0" type="curve"/>
      <point x="434" y="1276" type="line" smooth="yes"/>
      <point x="434" y="1422"/>
      <point x="384" y="1472"/>
      <point x="256" y="1472" type="curve" smooth="yes"/>
      <point x="128" y="1472" type="line"/>
      <point x="114" y="1458" type="line"/>
      <point x="114" y="0" type="line"/>
      <point x="164" y="-8"/>
      <point x="220" y="-12"/>
      <point x="272" y="-12" type="curve" smooth="yes"/>
      <point x="330" y="-12"/>
      <point x="388" y="-8"/>
    </contour>
    <contour>
      <point x="976" y="256" type="curve" smooth="yes"/>
      <point x="976" y="658" type="line" smooth="yes"/>
      <point x="976" y="870"/>
      <point x="876" y="1018"/>
      <point x="694" y="1018" type="curve" smooth="yes"/>
      <point x="552" y="1018"/>
      <point x="450" y="930"/>
      <point x="356" y="840" type="curve"/>
      <point x="356" y="556" type="line"/>
      <point x="416" y="682"/>
      <point x="512" y="724"/>
      <point x="568" y="724" type="curve" smooth="yes"/>
      <point x="630" y="724"/>
      <point x="648" y="684"/>
      <point x="648" y="600" type="curve" smooth="yes"/>
      <point x="648" y="186" type="line" smooth="yes"/>
      <point x="648" y="56"/>
      <point x="692" y="-16"/>
      <point x="824" y="-16" type="curve" smooth="yes"/>
      <point x="906" y="-16"/>
      <point x="980" y="14"/>
      <point x="1028" y="54" type="curve"/>
      <point x="990" y="106"/>
      <point x="976" y="176"/>
    </contour>
  </outline>
</glyph>
<glyph name="l" format="2">
  <advance width="632"/>
  <unicode hex="006C"/>
  <anchor x="360" y="0" name="bottom"/>
  <anchor x="632" y="786" name="periodcentered"/>
  <anchor x="264" y="1542" name="top"/>
  <anchor x="432" y="1000" name="topright"/>
  <outline>
    <contour>
      <point x="572" y="238" type="curve"/>
      <point x="520" y="238" type="line"/>
      <point x="456" y="238"/>
      <point x="432" y="272"/>
      <point x="432" y="334" type="curve" smooth="yes"/>
      <point x="432" y="1276" type="line" smooth="yes"/>
      <point x="432" y="1422"/>
      <point x="382" y="1472"/>
      <point x="254" y="1472" type="curve" smooth="yes"/>
      <point x="126" y="1472" type="line"/>
      <point x="112" y="1458" type="line"/>
      <point x="112" y="278" type="line" smooth="yes"/>
      <point x="112" y="80"/>
      <point x="180" y="-10"/>
      <point x="368" y="-10" type="curve" smooth="yes"/>
      <point x="448" y="-10"/>
      <point x="528" y="0"/>
      <point x="590" y="10" type="curve"/>
      <point x="596" y="32"/>
      <point x="598" y="60"/>
      <point x="598" y="84" type="curve" smooth="yes"/>
      <point x="598" y="136"/>
      <point x="588" y="192"/>
    </contour>
  </outline>
</glyph>
<glyph name="m" format="2">
  <advance width="1620"/>
  <unicode hex="006D"/>
  <anchor x="812" y="0" name="bottom"/>
  <anchor x="794" y="1084" name="top"/>
  <outline>
    <contour>
      <point x="250" y="1014" type="curve" smooth="yes"/>
      <point x="128" y="1014" type="line"/>
      <point x="114" y="1000" type="line"/>
      <point x="114" y="0" type="line"/>
      <point x="162" y="-8"/>
      <point x="224" y="-12"/>
      <point x="278" y="-12" type="curve" smooth="yes"/>
      <point x="334" y="-12"/>
      <point x="396" y="-8"/>
      <point x="442" y="0" type="curve"/>
      <point x="442" y="776" type="line" smooth="yes"/>
      <point x="442" y="922"/>
      <point x="374" y="1014"/>
    </contour>
    <contour>
      <point x="648" y="598" type="curve"/>
      <point x="648" y="0" type="line"/>
      <point x="696" y="-8"/>
      <point x="758" y="-12"/>
      <point x="812" y="-12" type="curve" smooth="yes"/>
      <point x="868" y="-12"/>
      <point x="930" y="-8"/>
      <point x="976" y="0" type="curve"/>
      <point x="976" y="702" type="line" smooth="yes"/>
      <point x="976" y="886"/>
      <point x="874" y="1018"/>
      <point x="700" y="1018" type="curve" smooth="yes"/>
      <point x="554" y="1018"/>
      <point x="432" y="902"/>
      <point x="336" y="798" type="curve"/>
      <point x="336" y="518" type="line"/>
      <point x="368" y="606"/>
      <point x="478" y="722"/>
      <point x="562" y="724" type="curve" smooth="yes"/>
      <point x="600" y="724"/>
      <point x="648" y="700"/>
    </contour>
    <contour>
      <point x="1182" y="600" type="curve"/>
      <point x="1182" y="186" type="line" smooth="yes"/>
      <point x="1182" y="56"/>
      <point x="1226" y="-16"/>
      <point x="1358" y="-16" type="curve" smooth="yes"/>
      <point x="1440" y="-16"/>
      <point x="1514" y="14"/>
      <point x="1562" y="54" type="curve"/>
      <point x="1524" y="106"/>
      <point x="1510" y="176"/>
      <point x="1510" y="256" type="curve" smooth="yes"/>
      <point x="1510" y="698" type="line" smooth="yes"/>
      <point x="1510" y="882"/>
      <point x="1418" y="1018"/>
      <point x="1242" y="1018" type="curve" smooth="yes"/>
      <point x="1100" y="1018"/>
      <point x="950" y="912"/>
      <point x="862" y="804" type="curve"/>
      <point x="862" y="506" type="line"/>
      <point x="906" y="604"/>
      <point x="1016" y="724"/>
      <point x="1092" y="724" type="curve" smooth="yes"/>
      <point x="1130" y="724"/>
      <point x="1182" y="702"/>
    </contour>
  </outline>
</glyph>
<glyph name="n" format="2">
  <advance width="1094"/>
  <unicode hex="006E"/>
  <anchor x="564" y="0" name="bottom"/>
  <anchor x="562" y="1084" name="top"/>
  <outline>
    <contour>
      <point x="252" y="1014" type="curve" smooth="yes"/>
      <point x="128" y="1014" type="line"/>
      <point x="114" y="1000" type="line"/>
      <point x="114" y="0" type="line"/>
      <point x="162" y="-8"/>
      <point x="224" y="-12"/>
      <point x="278" y="-12" type="curve" smooth="yes"/>
      <point x="334" y="-12"/>
      <point x="396" y="-8"/>
      <point x="442" y="0" type="curve"/>
      <point x="442" y="776" type="line" smooth="yes"/>
      <point x="442" y="922"/>
      <point x="376" y="1014"/>
    </contour>
    <contour>
      <point x="984" y="256" type="curve" smooth="yes"/>
      <point x="984" y="658" type="line"/>
      <point x="984" y="870"/>
      <point x="884" y="1018"/>
      <point x="702" y="1018" type="curve" smooth="yes"/>
      <point x="560" y="1018"/>
      <point x="458" y="930"/>
      <point x="364" y="840" type="curve"/>
      <point x="364" y="556" type="line"/>
      <point x="424" y="682"/>
      <point x="520" y="724"/>
      <point x="576" y="724" type="curve" smooth="yes"/>
      <point x="638" y="724"/>
      <point x="656" y="684"/>
      <point x="656" y="600" type="curve" smooth="yes"/>
      <point x="656" y="186" type="line" smooth="yes"/>
      <point x="656" y="56"/>
      <point x="700" y="-16"/>
      <point x="832" y="-16" type="curve" smooth="yes"/>
      <point x="914" y="-16"/>
      <point x="988" y="14"/>
      <point x="1036" y="54" type="curve"/>
      <point x="998" y="106"/>
      <point x="984" y="176"/>
    </contour>
  </outline>
</glyph>
<glyph name="o" format="2">
  <advance width="1044"/>
  <unicode hex="006F"/>
  <anchor x="522" y="0" name="bottom"/>
  <anchor x="704" y="0" name="ogonek"/>
  <anchor x="522" y="1084" name="top"/>
  <anchor x="870" y="970" name="topright"/>
  <outline>
    <contour>
      <point x="988" y="500" type="curve" smooth="yes"/>
      <point x="988" y="821"/>
      <point x="829" y="1030"/>
      <point x="522" y="1030" type="curve" smooth="yes"/>
      <point x="218" y="1030"/>
      <point x="56" y="823"/>
      <point x="56" y="500" type="curve" smooth="yes"/>
      <point x="56" y="179"/>
      <point x="215" y="-30"/>
      <point x="522" y="-30" type="curve" smooth="yes"/>
      <point x="826" y="-30"/>
      <point x="988" y="177"/>
    </contour>
    <contour>
      <point x="392" y="500" type="curve" smooth="yes"/>
      <point x="392" y="662"/>
      <point x="406" y="786"/>
      <point x="522" y="786" type="curve" smooth="yes"/>
      <point x="638" y="786"/>
      <point x="652" y="662"/>
      <point x="652" y="500" type="curve" smooth="yes"/>
      <point x="652" y="338"/>
      <point x="638" y="214"/>
      <point x="522" y="214" type="curve" smooth="yes"/>
      <point x="406" y="214"/>
      <point x="392" y="338"/>
    </contour>
  </outline>
</glyph>
<glyph name="p" format="2">
  <advance width="1078"/>
  <unicode hex="0070"/>
  <anchor x="524" y="1084" name="top"/>
  <outline>
    <contour>
      <point x="214" y="1014" type="curve" smooth="yes"/>
      <point x="128" y="1014" type="line"/>
      <point x="114" y="1000" type="line"/>
      <point x="114" y="-418" type="line"/>
      <point x="128" y="-432" type="line"/>
      <point x="256" y="-432" type="line" smooth="yes"/>
      <point x="384" y="-432"/>
      <point x="436" y="-382"/>
      <point x="436" y="-236" type="curve" smooth="yes"/>
      <point x="436" y="736" type="line" smooth="yes"/>
      <point x="436" y="908"/>
      <point x="346" y="1014"/>
    </contour>
    <contour>
      <point x="1018" y="512" type="curve" smooth="yes"/>
      <point x="1018" y="816"/>
      <point x="902" y="1030"/>
      <point x="656" y="1030" type="curve" smooth="yes"/>
      <point x="458" y="1030"/>
      <point x="296" y="862"/>
      <point x="280" y="696" type="curve"/>
      <point x="354" y="516" type="line"/>
      <point x="408" y="732"/>
      <point x="512" y="768"/>
      <point x="570" y="768" type="curve" smooth="yes"/>
      <point x="636" y="768"/>
      <point x="682" y="692"/>
      <point x="682" y="514" type="curve" smooth="yes"/>
      <point x="682" y="338"/>
      <point x="650" y="222"/>
      <point x="556" y="222" type="curve" smooth="yes"/>
      <point x="496" y="222"/>
      <point x="414" y="272"/>
      <point x="336" y="336" type="curve"/>
      <point x="282" y="106" type="line"/>
      <point x="370" y="54"/>
      <point x="474" y="-20"/>
      <point x="614" y="-20" type="curve" smooth="yes"/>
      <point x="838" y="-20"/>
      <point x="1018" y="170"/>
    </contour>
  </outline>
</glyph>
<glyph name="r" format="2">
  <advance width="802"/>
  <unicode hex="0072"/>
  <anchor x="294" y="0" name="bottom"/>
  <anchor x="420" y="1084" name="top"/>
  <outline>
    <contour>
      <point x="802" y="996" type="curve"/>
      <point x="762" y="1006"/>
      <point x="730" y="1014"/>
      <point x="666" y="1014" type="curve" smooth="yes"/>
      <point x="430" y="1014"/>
      <point x="376" y="770"/>
      <point x="360" y="546" type="curve"/>
      <point x="396" y="498" type="line"/>
      <point x="456" y="642"/>
      <point x="514" y="712"/>
      <point x="614" y="712" type="curve"/>
      <point x="650" y="708"/>
      <point x="684" y="704"/>
      <point x="720" y="690" type="curve"/>
      <point x="774" y="782"/>
      <point x="802" y="920"/>
    </contour>
    <contour>
      <point x="54" y="848" type="curve"/>
      <point x="86" y="826"/>
      <point x="130" y="760"/>
      <point x="130" y="640" type="curve" smooth="yes"/>
      <point x="130" y="0" type="line"/>
      <point x="178" y="-8"/>
      <point x="240" y="-12"/>
      <point x="294" y="-12" type="curve" smooth="yes"/>
      <point x="350" y="-12"/>
      <point x="412" y="-8"/>
      <point x="458" y="0" type="curve"/>
      <point x="458" y="664" type="line"/>
      <point x="438" y="870"/>
      <point x="344" y="1004"/>
      <point x="152" y="1016" type="curve"/>
      <point x="112" y="984"/>
      <point x="66" y="906"/>
    </contour>
  </outline>
</glyph>
<glyph name="s" format="2">
  <advance width="888"/>
  <unicode hex="0073"/>
  <anchor x="447" y="0" name="bottom"/>
  <anchor x="446" y="1084" name="top"/>
  <outline>
    <contour>
      <point x="36" y="68" type="curve"/>
      <point x="131" y="14"/>
      <point x="267" y="-30"/>
      <point x="410" y="-30" type="curve" smooth="yes"/>
      <point x="686" y="-30"/>
      <point x="848" y="98"/>
      <point x="848" y="300" type="curve" smooth="yes"/>
      <point x="848" y="472"/>
      <point x="732" y="570"/>
      <point x="580" y="624" type="curve" smooth="yes"/>
      <point x="456" y="668" type="line" smooth="yes"/>
      <point x="406" y="686"/>
      <point x="386" y="706"/>
      <point x="386" y="738" type="curve" smooth="yes"/>
      <point x="386" y="768"/>
      <point x="410" y="794"/>
      <point x="460" y="794" type="curve" smooth="yes"/>
      <point x="554" y="794"/>
      <point x="656" y="756"/>
      <point x="740" y="718" type="curve"/>
      <point x="792" y="756"/>
      <point x="834" y="868"/>
      <point x="830" y="944" type="curve"/>
      <point x="742" y="988"/>
      <point x="584" y="1030"/>
      <point x="456" y="1030" type="curve" smooth="yes"/>
      <point x="216" y="1030"/>
      <point x="64" y="900"/>
      <point x="64" y="694" type="curve" smooth="yes"/>
      <point x="64" y="532"/>
      <point x="172" y="444"/>
      <point x="314" y="392" type="curve" smooth="yes"/>
      <point x="424" y="352" type="line" smooth="yes"/>
      <point x="486" y="330"/>
      <point x="510" y="304"/>
      <point x="510" y="268" type="curve" smooth="yes"/>
      <point x="510" y="232"/>
      <point x="474" y="206"/>
      <point x="402" y="206" type="curve" smooth="yes"/>
      <point x="309" y="206"/>
      <point x="214" y="242"/>
      <point x="126" y="288" type="curve"/>
      <point x="78" y="238"/>
      <point x="38" y="138"/>
    </contour>
  </outline>
</glyph>
<glyph name="t" format="2">
  <advance width="756"/>
  <unicode hex="0074"/>
  <anchor x="421" y="0" name="bottom"/>
  <anchor x="345" y="1370" name="top"/>
  <anchor x="476" y="1000" name="topright"/>
  <outline>
    <contour>
      <point x="156" y="1104" type="curve" smooth="yes"/>
      <point x="156" y="278" type="line" smooth="yes"/>
      <point x="156" y="80"/>
      <point x="240" y="-10"/>
      <point x="428" y="-10" type="curve" smooth="yes"/>
      <point x="508" y="-10"/>
      <point x="618" y="0"/>
      <point x="692" y="10" type="curve"/>
      <point x="698" y="32"/>
      <point x="700" y="60"/>
      <point x="700" y="84" type="curve" smooth="yes"/>
      <point x="700" y="134"/>
      <point x="690" y="192"/>
      <point x="674" y="238" type="curve"/>
      <point x="566" y="238" type="line" smooth="yes"/>
      <point x="502" y="238"/>
      <point x="476" y="272"/>
      <point x="476" y="334" type="curve" smooth="yes"/>
      <point x="476" y="1286" type="line"/>
      <point x="462" y="1300" type="line"/>
      <point x="334" y="1300" type="line" smooth="yes"/>
      <point x="206" y="1300"/>
      <point x="156" y="1250"/>
    </contour>
    <contour>
      <point x="712" y="1002" type="curve"/>
      <point x="342" y="996" type="line"/>
      <point x="-2" y="1002" type="line"/>
      <point x="-12" y="962"/>
      <point x="-16" y="924"/>
      <point x="-16" y="888" type="curve" smooth="yes"/>
      <point x="-16" y="848"/>
      <point x="-12" y="808"/>
      <point x="-2" y="770" type="curve"/>
      <point x="332" y="776" type="line"/>
      <point x="712" y="770" type="line"/>
      <point x="722" y="808"/>
      <point x="726" y="848"/>
      <point x="726" y="888" type="curve" smooth="yes"/>
      <point x="726" y="924"/>
      <point x="722" y="962"/>
    </contour>
  </outline>
</glyph>
<glyph name="u" format="2">
  <advance width="1098"/>
  <unicode hex="0075"/>
  <anchor x="540" y="0" name="bottom"/>
  <anchor x="938" y="-16" name="ogonek"/>
  <anchor x="530" y="1084" name="top"/>
  <anchor x="980" y="1000" name="topright"/>
  <outline>
    <contour>
      <point x="980" y="286" type="curve" smooth="yes"/>
      <point x="980" y="1000" type="line"/>
      <point x="932" y="1008"/>
      <point x="870" y="1012"/>
      <point x="816" y="1012" type="curve" smooth="yes"/>
      <point x="760" y="1012"/>
      <point x="698" y="1008"/>
      <point x="652" y="1000" type="curve"/>
      <point x="652" y="294" type="line" smooth="yes"/>
      <point x="652" y="122"/>
      <point x="754" y="-16"/>
      <point x="938" y="-16" type="curve"/>
      <point x="978" y="16"/>
      <point x="1024" y="90"/>
      <point x="1036" y="148" type="curve"/>
      <point x="1004" y="170"/>
      <point x="980" y="224"/>
    </contour>
    <contour>
      <point x="110" y="744" type="curve" smooth="yes"/>
      <point x="110" y="342" type="line" smooth="yes"/>
      <point x="110" y="130"/>
      <point x="210" y="-18"/>
      <point x="392" y="-18" type="curve" smooth="yes"/>
      <point x="534" y="-18"/>
      <point x="636" y="70"/>
      <point x="730" y="160" type="curve"/>
      <point x="730" y="444" type="line"/>
      <point x="670" y="318"/>
      <point x="574" y="276"/>
      <point x="518" y="276" type="curve" smooth="yes"/>
      <point x="456" y="276"/>
      <point x="438" y="316"/>
      <point x="438" y="400" type="curve" smooth="yes"/>
      <point x="438" y="814" type="line" smooth="yes"/>
      <point x="438" y="944"/>
      <point x="394" y="1016"/>
      <point x="262" y="1016" type="curve" smooth="yes"/>
      <point x="180" y="1016"/>
      <point x="106" y="986"/>
      <point x="58" y="946" type="curve"/>
      <point x="96" y="894"/>
      <point x="110" y="824"/>
    </contour>
  </outline>
</glyph>
<glyph name="v" format="2">
  <advance width="966"/>
  <unicode hex="0076"/>
  <anchor x="488" y="0" name="bottom"/>
  <anchor x="482" y="1084" name="top"/>
  <outline>
    <contour>
      <point x="668" y="998" type="curve"/>
      <point x="502" y="248" type="line"/>
      <point x="490" y="248"/>
      <point x="484" y="248"/>
      <point x="482" y="264" type="curve" smooth="yes"/>
      <point x="472" y="324"/>
      <point x="460" y="426"/>
      <point x="442" y="500" type="curve" smooth="yes"/>
      <point x="358" y="864" type="line" smooth="yes"/>
      <point x="332" y="978"/>
      <point x="272" y="1018"/>
      <point x="168" y="1018" type="curve" smooth="yes"/>
      <point x="114" y="1018"/>
      <point x="44" y="998"/>
      <point x="-12" y="974" type="curve"/>
      <point x="222" y="142" type="line" smooth="yes"/>
      <point x="258" y="16"/>
      <point x="324" y="-12"/>
      <point x="448" y="-12" type="curve" smooth="yes"/>
      <point x="532" y="-12"/>
      <point x="622" y="-8"/>
      <point x="694" y="0" type="curve"/>
      <point x="766" y="232"/>
      <point x="888" y="682"/>
      <point x="966" y="970" type="curve"/>
      <point x="956" y="984" type="line"/>
      <point x="906" y="1004"/>
      <point x="842" y="1010"/>
      <point x="786" y="1010" type="curve" smooth="yes"/>
      <point x="746" y="1010"/>
      <point x="706" y="1006"/>
    </contour>
  </outline>
</glyph>
<glyph name="w" format="2">
  <advance width="1522"/>
  <unicode hex="0077"/>
  <anchor x="758" y="0" name="bottom"/>
  <anchor x="758" y="1084" name="top"/>
  <outline>
    <contour>
      <point x="4" y="980" type="curve"/>
      <point x="196" y="138" type="line" smooth="yes"/>
      <point x="224" y="16"/>
      <point x="282" y="-12"/>
      <point x="406" y="-12" type="curve" smooth="yes"/>
      <point x="484" y="-12"/>
      <point x="584" y="-8"/>
      <point x="652" y="0" type="curve"/>
      <point x="704" y="344" type="line" smooth="yes"/>
      <point x="718" y="442"/>
      <point x="738" y="576"/>
      <point x="752" y="712" type="curve"/>
      <point x="764" y="712" type="line"/>
      <point x="778" y="574"/>
      <point x="798" y="438"/>
      <point x="812" y="340" type="curve" smooth="yes"/>
      <point x="842" y="134" type="line" smooth="yes"/>
      <point x="860" y="8"/>
      <point x="920" y="-12"/>
      <point x="1046" y="-12" type="curve" smooth="yes"/>
      <point x="1122" y="-12"/>
      <point x="1220" y="-10"/>
      <point x="1286" y="0" type="curve"/>
      <point x="1518" y="964" type="line"/>
      <point x="1508" y="984" type="line"/>
      <point x="1462" y="1008"/>
      <point x="1378" y="1012"/>
      <point x="1334" y="1012" type="curve" smooth="yes"/>
      <point x="1296" y="1012"/>
      <point x="1246" y="1008"/>
      <point x="1210" y="998" type="curve"/>
      <point x="1124" y="568" type="line" smooth="yes"/>
      <point x="1100" y="444"/>
      <point x="1084" y="330"/>
      <point x="1072" y="242" type="curve"/>
      <point x="1060" y="242"/>
      <point x="1058" y="246"/>
      <point x="1056" y="258" type="curve" smooth="yes"/>
      <point x="950" y="988" type="line"/>
      <point x="900" y="1000"/>
      <point x="798" y="1004"/>
      <point x="756" y="1004" type="curve" smooth="yes"/>
      <point x="716" y="1004"/>
      <point x="620" y="1000"/>
      <point x="568" y="988" type="curve"/>
      <point x="466" y="242" type="line"/>
      <point x="454" y="242"/>
      <point x="452" y="246"/>
      <point x="450" y="258" type="curve" smooth="yes"/>
      <point x="444" y="326"/>
      <point x="426" y="438"/>
      <point x="400" y="568" type="curve" smooth="yes"/>
      <point x="342" y="878" type="line" smooth="yes"/>
      <point x="324" y="966"/>
      <point x="292" y="1018"/>
      <point x="186" y="1018" type="curve" smooth="yes"/>
      <point x="128" y="1018"/>
      <point x="66" y="1004"/>
    </contour>
  </outline>
</glyph>
<glyph name="x" format="2">
  <advance width="968"/>
  <unicode hex="0078"/>
  <anchor x="483" y="1084" name="top"/>
  <outline>
    <contour>
      <point x="22" y="948" type="curve"/>
      <point x="582" y="80" type="line"/>
      <point x="624" y="14"/>
      <point x="672" y="-18"/>
      <point x="754" y="-18" type="curve" smooth="yes"/>
      <point x="828" y="-18"/>
      <point x="912" y="10"/>
      <point x="976" y="54" type="curve"/>
      <point x="410" y="918" type="line" smooth="yes"/>
      <point x="366" y="986"/>
      <point x="326" y="1020"/>
      <point x="244" y="1020" type="curve" smooth="yes"/>
      <point x="176" y="1020"/>
      <point x="94" y="1000"/>
    </contour>
    <contour>
      <point x="646" y="1000" type="curve"/>
      <point x="444" y="666" type="line"/>
      <point x="362" y="594" type="line"/>
      <point x="0" y="32" type="line"/>
      <point x="10" y="12" type="line"/>
      <point x="60" y="-6"/>
      <point x="120" y="-12"/>
      <point x="184" y="-12" type="curve" smooth="yes"/>
      <point x="232" y="-12"/>
      <point x="276" y="-10"/>
      <point x="310" y="0" type="curve"/>
      <point x="528" y="372" type="line"/>
      <point x="604" y="446" type="line"/>
      <point x="944" y="968" type="line"/>
      <point x="936" y="990" type="line"/>
      <point x="886" y="1004"/>
      <point x="834" y="1012"/>
      <point x="774" y="1012" type="curve" smooth="yes"/>
      <point x="728" y="1012"/>
      <point x="682" y="1008"/>
    </contour>
  </outline>
</glyph>
<glyph name="y" format="2">
  <advance width="1002"/>
  <unicode hex="0079"/>
  <anchor x="892" y="-16" name="bottom"/>
  <anchor x="498" y="1084" name="top"/>
  <outline>
    <contour>
      <point x="750" y="26" type="curve" smooth="yes"/>
      <point x="994" y="966" type="line"/>
      <point x="982" y="988" type="line"/>
      <point x="922" y="1008"/>
      <point x="862" y="1012"/>
      <point x="806" y="1012" type="curve" smooth="yes"/>
      <point x="766" y="1012"/>
      <point x="714" y="1008"/>
      <point x="678" y="998" type="curve"/>
      <point x="510" y="232" type="line"/>
      <point x="500" y="232"/>
      <point x="496" y="234"/>
      <point x="494" y="246" type="curve" smooth="yes"/>
      <point x="486" y="310"/>
      <point x="470" y="440"/>
      <point x="454" y="504" type="curve" smooth="yes"/>
      <point x="366" y="878" type="line" smooth="yes"/>
      <point x="340" y="986"/>
      <point x="288" y="1018"/>
      <point x="208" y="1018" type="curve" smooth="yes"/>
      <point x="154" y="1018"/>
      <point x="72" y="1004"/>
      <point x="6" y="974" type="curve"/>
      <point x="234" y="114" type="line" smooth="yes"/>
      <point x="260" y="18"/>
      <point x="338" y="-14"/>
      <point x="450" y="-14" type="curve"/>
      <point x="442" y="-44" type="line" smooth="yes"/>
      <point x="414" y="-138"/>
      <point x="348" y="-194"/>
      <point x="252" y="-194" type="curve" smooth="yes"/>
      <point x="184" y="-194"/>
      <point x="112" y="-176"/>
      <point x="68" y="-162" type="curve"/>
      <point x="24" y="-212"/>
      <point x="-6" y="-322"/>
      <point x="2" y="-396" type="curve"/>
      <point x="58" y="-416"/>
      <point x="170" y="-438"/>
      <point x="252" y="-438" type="curve" smooth="yes"/>
      <point x="570" y="-438"/>
      <point x="680" y="-242"/>
    </contour>
  </outline>
</glyph>
<glyph name="z" format="2">
  <advance width="900"/>
  <unicode hex="007A"/>
  <anchor x="450" y="0" name="bottom"/>
  <anchor x="450" y="1084" name="top"/>
  <outline>
    <contour>
      <point x="316" y="576" type="curve" smooth="yes"/>
      <point x="92" y="278" type="line" smooth="yes"/>
      <point x="58" y="234"/>
      <point x="46" y="194"/>
      <point x="46" y="158" type="curve" smooth="yes"/>
      <point x="46" y="120"/>
      <point x="56" y="76"/>
      <point x="82" y="0" type="curve"/>
      <point x="686" y="0" type="line" smooth="yes"/>
      <point x="814" y="0"/>
      <point x="858" y="58"/>
      <point x="858" y="144" type="curve" smooth="yes"/>
      <point x="858" y="188"/>
      <point x="848" y="222"/>
      <point x="824" y="278" type="curve"/>
      <point x="768" y="250"/>
      <point x="698" y="244"/>
      <point x="642" y="244" type="curve" smooth="yes"/>
      <point x="576" y="244" type="line" smooth="yes"/>
      <point x="526" y="244"/>
      <point x="478" y="240"/>
      <point x="422" y="232" type="curve"/>
      <point x="416" y="242" type="line"/>
      <point x="468" y="294"/>
      <point x="522" y="362"/>
      <point x="566" y="420" type="curve" smooth="yes"/>
      <point x="800" y="726" type="line" smooth="yes"/>
      <point x="821" y="753"/>
      <point x="830" y="792"/>
      <point x="830" y="822" type="curve" smooth="yes"/>
      <point x="830" y="868"/>
      <point x="814" y="922"/>
      <point x="788" y="1000" type="curve"/>
      <point x="86" y="1000" type="line"/>
      <point x="76" y="956"/>
      <point x="68" y="908"/>
      <point x="68" y="858" type="curve" smooth="yes"/>
      <point x="68" y="826"/>
      <point x="72" y="790"/>
      <point x="80" y="758" type="curve"/>
      <point x="226" y="758" type="line" smooth="yes"/>
      <point x="298" y="758"/>
      <point x="396" y="766"/>
      <point x="472" y="774" type="curve"/>
      <point x="478" y="764" type="line"/>
      <point x="434" y="716"/>
      <point x="364" y="640"/>
    </contour>
  </outline>
</glyph>
<glyph name="braceleft" format="2">
  <advance width="812"/>
  <unicode hex="007B"/>
  <outline>
    <contour>
      <point x="90" y="660" type="curve"/>
      <point x="70" y="608"/>
      <point x="70" y="504"/>
      <point x="90" y="452" type="curve"/>
      <point x="190" y="436"/>
      <point x="260" y="338"/>
      <point x="260" y="236" type="curve" smooth="yes"/>
      <point x="260" y="-82" type="line" smooth="yes"/>
      <point x="260" y="-294"/>
      <point x="398" y="-412"/>
      <point x="588" y="-442" type="curve" smooth="yes"/>
      <point x="726" y="-464" type="line"/>
      <point x="770" y="-416"/>
      <point x="800" y="-302"/>
      <point x="788" y="-254" type="curve"/>
      <point x="664" y="-212" type="line" smooth="yes"/>
      <point x="628" y="-200"/>
      <point x="588" y="-154"/>
      <point x="588" y="-80" type="curve" smooth="yes"/>
      <point x="588" y="232" type="line" smooth="yes"/>
      <point x="588" y="370"/>
      <point x="518" y="502"/>
      <point x="410" y="548" type="curve"/>
      <point x="410" y="564" type="line"/>
      <point x="518" y="610"/>
      <point x="588" y="742"/>
      <point x="588" y="880" type="curve" smooth="yes"/>
      <point x="588" y="1192" type="line" smooth="yes"/>
      <point x="588" y="1266"/>
      <point x="628" y="1312"/>
      <point x="664" y="1324" type="curve" smooth="yes"/>
      <point x="788" y="1366" type="line"/>
      <point x="800" y="1414"/>
      <point x="770" y="1528"/>
      <point x="726" y="1576" type="curve"/>
      <point x="588" y="1554" type="line" smooth="yes"/>
      <point x="398" y="1524"/>
      <point x="260" y="1406"/>
      <point x="260" y="1194" type="curve" smooth="yes"/>
      <point x="260" y="876" type="line" smooth="yes"/>
      <point x="260" y="774"/>
      <point x="190" y="676"/>
    </contour>
  </outline>
</glyph>
<glyph name="bar" format="2">
  <advance width="544"/>
  <unicode hex="007C"/>
  <outline>
    <contour>
      <point x="120" y="1546" type="curve"/>
      <point x="120" y="-284" type="line"/>
      <point x="168" y="-296"/>
      <point x="242" y="-298"/>
      <point x="276" y="-298" type="curve" smooth="yes"/>
      <point x="314" y="-298"/>
      <point x="374" y="-296"/>
      <point x="424" y="-284" type="curve"/>
      <point x="424" y="1546" type="line"/>
      <point x="374" y="1558"/>
      <point x="314" y="1560"/>
      <point x="276" y="1560" type="curve" smooth="yes"/>
      <point x="242" y="1560"/>
      <point x="168" y="1558"/>
    </contour>
  </outline>
</glyph>
<glyph name="braceright" format="2">
  <advance width="812"/>
  <unicode hex="007D"/>
  <outline>
    <contour>
      <point x="722" y="660" type="curve"/>
      <point x="742" y="608"/>
      <point x="742" y="504"/>
      <point x="722" y="452" type="curve"/>
      <point x="622" y="436"/>
      <point x="552" y="338"/>
      <point x="552" y="236" type="curve" smooth="yes"/>
      <point x="552" y="-82" type="line" smooth="yes"/>
      <point x="552" y="-294"/>
      <point x="414" y="-412"/>
      <point x="224" y="-442" type="curve" smooth="yes"/>
      <point x="86" y="-464" type="line"/>
      <point x="42" y="-416"/>
      <point x="12" y="-302"/>
      <point x="24" y="-254" type="curve"/>
      <point x="148" y="-212" type="line" smooth="yes"/>
      <point x="184" y="-200"/>
      <point x="224" y="-154"/>
      <point x="224" y="-80" type="curve" smooth="yes"/>
      <point x="224" y="232" type="line" smooth="yes"/>
      <point x="224" y="370"/>
      <point x="294" y="502"/>
      <point x="402" y="548" type="curve"/>
      <point x="402" y="564" type="line"/>
      <point x="294" y="610"/>
      <point x="224" y="742"/>
      <point x="224" y="880" type="curve"/>
      <point x="224" y="1192" type="line"/>
      <point x="224" y="1266"/>
      <point x="184" y="1312"/>
      <point x="148" y="1324" type="curve" smooth="yes"/>
      <point x="24" y="1366" type="line"/>
      <point x="12" y="1414"/>
      <point x="42" y="1528"/>
      <point x="86" y="1576" type="curve"/>
      <point x="224" y="1554" type="line" smooth="yes"/>
      <point x="414" y="1524"/>
      <point x="552" y="1406"/>
      <point x="552" y="1194" type="curve"/>
      <point x="552" y="876" type="line"/>
      <point x="552" y="774"/>
      <point x="622" y="676"/>
    </contour>
  </outline>
</glyph>
<glyph name="asciitilde" format="2">
  <advance width="1278"/>
  <unicode hex="007E"/>
  <outline>
    <contour>
      <point x="778" y="702" type="curve" smooth="yes"/>
      <point x="610" y="778" type="line" smooth="yes"/>
      <point x="546" y="806"/>
      <point x="486" y="820"/>
      <point x="430" y="820" type="curve" smooth="yes"/>
      <point x="290" y="820"/>
      <point x="178" y="736"/>
      <point x="102" y="610" type="curve" smooth="yes"/>
      <point x="60" y="540" type="line"/>
      <point x="92" y="466"/>
      <point x="188" y="420"/>
      <point x="254" y="414" type="curve"/>
      <point x="306" y="468" type="line" smooth="yes"/>
      <point x="338" y="502"/>
      <point x="374" y="520"/>
      <point x="414" y="520" type="curve" smooth="yes"/>
      <point x="440" y="520"/>
      <point x="468" y="512"/>
      <point x="500" y="498" type="curve" smooth="yes"/>
      <point x="668" y="422" type="line" smooth="yes"/>
      <point x="732" y="394"/>
      <point x="792" y="380"/>
      <point x="848" y="380" type="curve" smooth="yes"/>
      <point x="988" y="380"/>
      <point x="1100" y="464"/>
      <point x="1176" y="590" type="curve" smooth="yes"/>
      <point x="1218" y="660" type="line"/>
      <point x="1186" y="734"/>
      <point x="1090" y="780"/>
      <point x="1024" y="786" type="curve"/>
      <point x="972" y="732" type="line" smooth="yes"/>
      <point x="940" y="698"/>
      <point x="904" y="680"/>
      <point x="864" y="680" type="curve" smooth="yes"/>
      <point x="838" y="680"/>
      <point x="810" y="688"/>
    </contour>
  </outline>
</glyph>
<glyph name="cent" format="2">
  <advance width="1080"/>
  <unicode hex="00A2"/>
  <outline>
    <contour>
      <point x="563" y="-56" type="curve" smooth="yes"/>
      <point x="602" y="-56"/>
      <point x="649" y="-52"/>
      <point x="679" y="-44" type="curve"/>
      <point x="679" y="288" type="line"/>
      <point x="447" y="288" type="line"/>
      <point x="447" y="-44" type="line"/>
      <point x="477" y="-52"/>
      <point x="524" y="-56"/>
    </contour>
    <contour>
      <point x="453" y="969" type="line"/>
      <point x="685" y="969" type="line"/>
      <point x="685" y="1310" type="line"/>
      <point x="655" y="1318"/>
      <point x="609" y="1322"/>
      <point x="569" y="1322" type="curve" smooth="yes"/>
      <point x="529" y="1322"/>
      <point x="483" y="1318"/>
      <point x="453" y="1310" type="curve"/>
    </contour>
    <contour>
      <point x="577" y="130" type="curve" smooth="yes"/>
      <point x="720" y="130"/>
      <point x="900" y="202"/>
      <point x="980" y="302" type="curve"/>
      <point x="962" y="366"/>
      <point x="905" y="444"/>
      <point x="852" y="480" type="curve"/>
      <point x="793" y="428"/>
      <point x="700" y="388"/>
      <point x="629" y="388" type="curve" smooth="yes"/>
      <point x="512" y="388"/>
      <point x="426" y="448"/>
      <point x="426" y="632" type="curve" smooth="yes"/>
      <point x="426" y="805"/>
      <point x="466" y="894"/>
      <point x="571" y="894" type="curve" smooth="yes"/>
      <point x="667" y="894"/>
      <point x="699" y="778"/>
      <point x="699" y="656" type="curve"/>
      <point x="733" y="646"/>
      <point x="777" y="642"/>
      <point x="809" y="642" type="curve" smooth="yes"/>
      <point x="919" y="642"/>
      <point x="983" y="692"/>
      <point x="983" y="818" type="curve" smooth="yes"/>
      <point x="983" y="1002"/>
      <point x="807" y="1136"/>
      <point x="579" y="1136" type="curve" smooth="yes"/>
      <point x="340" y="1136"/>
      <point x="101" y="996"/>
      <point x="101" y="632" type="curve" smooth="yes"/>
      <point x="101" y="400"/>
      <point x="203" y="130"/>
    </contour>
  </outline>
</glyph>
<glyph name="sterling" format="2">
  <advance width="1080"/>
  <unicode hex="00A3"/>
  <guideline x="124" y="168" angle="90"/>
  <outline>
    <contour>
      <point x="163" y="0" type="curve"/>
      <point x="782" y="0" type="line" smooth="yes"/>
      <point x="934" y="0"/>
      <point x="999" y="66"/>
      <point x="999" y="265" type="curve"/>
      <point x="836" y="265" type="line" smooth="yes"/>
      <point x="693" y="265"/>
      <point x="565" y="265"/>
      <point x="455" y="249" type="curve"/>
      <point x="449" y="254" type="line"/>
      <point x="536" y="337"/>
      <point x="585" y="439"/>
      <point x="585" y="533" type="curve" smooth="yes"/>
      <point x="585" y="686"/>
      <point x="525" y="786"/>
      <point x="525" y="887" type="curve" smooth="yes"/>
      <point x="525" y="1002"/>
      <point x="598" y="1033"/>
      <point x="666" y="1033" type="curve" smooth="yes"/>
      <point x="728" y="1033"/>
      <point x="791" y="994"/>
      <point x="838" y="956" type="curve"/>
      <point x="908" y="994"/>
      <point x="969" y="1085"/>
      <point x="986" y="1162" type="curve"/>
      <point x="890" y="1247"/>
      <point x="766" y="1299"/>
      <point x="635" y="1299" type="curve" smooth="yes"/>
      <point x="383" y="1299"/>
      <point x="207" y="1136"/>
      <point x="207" y="917" type="curve" smooth="yes"/>
      <point x="207" y="753"/>
      <point x="296" y="671"/>
      <point x="296" y="506" type="curve" smooth="yes"/>
      <point x="296" y="426"/>
      <point x="258" y="371"/>
      <point x="218" y="328" type="curve" smooth="yes"/>
      <point x="194" y="302" type="line" smooth="yes"/>
      <point x="159" y="264"/>
      <point x="124" y="226"/>
      <point x="124" y="170" type="curve" smooth="yes"/>
      <point x="124" y="133"/>
      <point x="130" y="93"/>
    </contour>
    <contour>
      <point x="136" y="504" type="curve"/>
      <point x="424" y="506" type="line"/>
      <point x="840" y="504" type="line"/>
      <point x="848" y="534"/>
      <point x="852" y="581"/>
      <point x="852" y="620" type="curve" smooth="yes"/>
      <point x="852" y="659"/>
      <point x="848" y="705"/>
      <point x="840" y="734" type="curve"/>
      <point x="424" y="732" type="line"/>
      <point x="136" y="734" type="line"/>
      <point x="128" y="705"/>
      <point x="124" y="665"/>
      <point x="124" y="620" type="curve" smooth="yes"/>
      <point x="124" y="577"/>
      <point x="128" y="534"/>
    </contour>
  </outline>
</glyph>
<glyph name="currency" format="2">
  <advance width="1080"/>
  <unicode hex="00A4"/>
  <outline>
    <contour>
      <point x="537" y="225" type="curve" smooth="yes"/>
      <point x="780" y="225"/>
      <point x="948" y="384"/>
      <point x="948" y="632" type="curve" smooth="yes"/>
      <point x="948" y="882"/>
      <point x="780" y="1041"/>
      <point x="537" y="1041" type="curve" smooth="yes"/>
      <point x="296" y="1041"/>
      <point x="128" y="882"/>
      <point x="128" y="632" type="curve" smooth="yes"/>
      <point x="128" y="384"/>
      <point x="296" y="225"/>
    </contour>
    <contour>
      <point x="537" y="445" type="curve" smooth="yes"/>
      <point x="440" y="445"/>
      <point x="409" y="531"/>
      <point x="409" y="632" type="curve" smooth="yes"/>
      <point x="409" y="739"/>
      <point x="440" y="821"/>
      <point x="537" y="821" type="curve" smooth="yes"/>
      <point x="636" y="821"/>
      <point x="667" y="739"/>
      <point x="667" y="632" type="curve" smooth="yes"/>
      <point x="667" y="527"/>
      <point x="636" y="445"/>
    </contour>
    <contour>
      <point x="198" y="122" type="curve"/>
      <point x="456" y="348" type="line"/>
      <point x="262" y="542" type="line"/>
      <point x="34" y="286" type="line"/>
      <point x="74" y="224"/>
      <point x="136" y="158"/>
    </contour>
    <contour>
      <point x="262" y="718" type="line"/>
      <point x="452" y="912" type="line"/>
      <point x="198" y="1138" type="line"/>
      <point x="136" y="1100"/>
      <point x="68" y="1038"/>
      <point x="34" y="974" type="curve"/>
    </contour>
    <contour>
      <point x="820" y="722" type="line"/>
      <point x="1046" y="980" type="line"/>
      <point x="1006" y="1042"/>
      <point x="944" y="1106"/>
      <point x="882" y="1144" type="curve"/>
      <point x="626" y="916" type="line"/>
    </contour>
    <contour>
      <point x="876" y="120" type="line"/>
      <point x="942" y="160"/>
      <point x="1004" y="222"/>
      <point x="1040" y="284" type="curve"/>
      <point x="814" y="538" type="line"/>
      <point x="620" y="348" type="line"/>
    </contour>
  </outline>
</glyph>
<glyph name="yen" format="2">
  <advance width="1080"/>
  <unicode hex="00A5"/>
  <guideline x="559" y="677" angle="180"/>
  <outline>
    <contour>
      <point x="381" y="441" type="line"/>
      <point x="685" y="441" type="line"/>
      <point x="1033" y="1237" type="line"/>
      <point x="1022" y="1262" type="line"/>
      <point x="960" y="1278"/>
      <point x="903" y="1282"/>
      <point x="854" y="1282" type="curve" smooth="yes"/>
      <point x="815" y="1282"/>
      <point x="779" y="1280"/>
      <point x="737" y="1268" type="curve"/>
      <point x="645" y="1021" type="line" smooth="yes"/>
      <point x="618" y="949"/>
      <point x="579" y="842"/>
      <point x="549" y="737" type="curve"/>
      <point x="538" y="737" type="line"/>
      <point x="509" y="856"/>
      <point x="477" y="951"/>
      <point x="453" y="1021" type="curve" smooth="yes"/>
      <point x="399" y="1177" type="line" smooth="yes"/>
      <point x="371" y="1258"/>
      <point x="329" y="1292"/>
      <point x="256" y="1292" type="curve" smooth="yes"/>
      <point x="186" y="1292"/>
      <point x="102" y="1264"/>
      <point x="47" y="1236" type="curve"/>
    </contour>
    <contour>
      <point x="537" y="-12" type="curve" smooth="yes"/>
      <point x="577" y="-12"/>
      <point x="637" y="-10"/>
      <point x="693" y="0" type="curve"/>
      <point x="693" y="535" type="line"/>
      <point x="373" y="535" type="line"/>
      <point x="373" y="0" type="line"/>
      <point x="427" y="-10"/>
      <point x="500" y="-12"/>
    </contour>
    <contour>
      <point x="109" y="270" type="curve"/>
      <point x="958" y="270" type="line"/>
      <point x="966" y="301"/>
      <point x="971" y="338"/>
      <point x="971" y="376" type="curve" smooth="yes"/>
      <point x="971" y="414"/>
      <point x="966" y="450"/>
      <point x="958" y="480" type="curve"/>
      <point x="109" y="480" type="line"/>
      <point x="102" y="452"/>
      <point x="97" y="415"/>
      <point x="97" y="376" type="curve" smooth="yes"/>
      <point x="97" y="335"/>
      <point x="102" y="300"/>
    </contour>
    <contour>
      <point x="109" y="596" type="curve"/>
      <point x="390" y="596" type="line"/>
      <point x="390" y="810" type="line"/>
      <point x="109" y="810" type="line"/>
      <point x="102" y="780"/>
      <point x="97" y="744"/>
      <point x="97" y="703" type="curve" smooth="yes"/>
      <point x="97" y="662"/>
      <point x="102" y="626"/>
    </contour>
    <contour>
      <point x="677" y="596" type="line"/>
      <point x="958" y="596" type="line"/>
      <point x="966" y="627"/>
      <point x="971" y="664"/>
      <point x="971" y="703" type="curve" smooth="yes"/>
      <point x="971" y="749"/>
      <point x="964" y="786"/>
      <point x="958" y="810" type="curve"/>
      <point x="677" y="810" type="line"/>
    </contour>
  </outline>
</glyph>
<glyph name="brokenbar" format="2">
  <advance width="532"/>
  <unicode hex="00A6"/>
  <outline>
    <contour>
      <point x="116" y="490" type="curve"/>
      <point x="116" y="-284" type="line"/>
      <point x="164" y="-296"/>
      <point x="236" y="-298"/>
      <point x="270" y="-298" type="curve" smooth="yes"/>
      <point x="308" y="-298"/>
      <point x="366" y="-296"/>
      <point x="416" y="-284" type="curve"/>
      <point x="416" y="490" type="line"/>
      <point x="366" y="502"/>
      <point x="308" y="504"/>
      <point x="270" y="504" type="curve" smooth="yes"/>
      <point x="236" y="504"/>
      <point x="164" y="502"/>
    </contour>
    <contour>
      <point x="116" y="1546" type="curve"/>
      <point x="116" y="772" type="line"/>
      <point x="164" y="760"/>
      <point x="236" y="758"/>
      <point x="270" y="758" type="curve" smooth="yes"/>
      <point x="308" y="758"/>
      <point x="366" y="760"/>
      <point x="416" y="772" type="curve"/>
      <point x="416" y="1546" type="line"/>
      <point x="366" y="1558"/>
      <point x="308" y="1560"/>
      <point x="270" y="1560" type="curve" smooth="yes"/>
      <point x="236" y="1560"/>
      <point x="164" y="1558"/>
    </contour>
  </outline>
</glyph>
<glyph name="section" format="2">
  <advance width="1004"/>
  <unicode hex="00A7"/>
  <outline>
    <contour>
      <point x="514" y="408" type="curve"/>
      <point x="610" y="256" type="line"/>
      <point x="800" y="324"/>
      <point x="956" y="462"/>
      <point x="956" y="624" type="curve" smooth="yes"/>
      <point x="956" y="808"/>
      <point x="808" y="900"/>
      <point x="626" y="976" type="curve" smooth="yes"/>
      <point x="512" y="1024" type="line" smooth="yes"/>
      <point x="462" y="1044"/>
      <point x="438" y="1064"/>
      <point x="438" y="1098" type="curve" smooth="yes"/>
      <point x="438" y="1136"/>
      <point x="476" y="1160"/>
      <point x="530" y="1160" type="curve" smooth="yes"/>
      <point x="602" y="1160"/>
      <point x="680" y="1136"/>
      <point x="764" y="1102" type="curve"/>
      <point x="816" y="1140"/>
      <point x="860" y="1246"/>
      <point x="854" y="1322" type="curve"/>
      <point x="766" y="1362"/>
      <point x="638" y="1396"/>
      <point x="514" y="1396" type="curve" smooth="yes"/>
      <point x="270" y="1396"/>
      <point x="116" y="1246"/>
      <point x="116" y="1070" type="curve" smooth="yes"/>
      <point x="116" y="920"/>
      <point x="222" y="824"/>
      <point x="372" y="764" type="curve" smooth="yes"/>
      <point x="458" y="730" type="line" smooth="yes"/>
      <point x="570" y="686"/>
      <point x="646" y="636"/>
      <point x="646" y="564" type="curve" smooth="yes"/>
      <point x="646" y="496"/>
      <point x="586" y="434"/>
    </contour>
    <contour>
      <point x="494" y="754" type="curve"/>
      <point x="398" y="906" type="line"/>
      <point x="208" y="838"/>
      <point x="52" y="700"/>
      <point x="52" y="538" type="curve" smooth="yes"/>
      <point x="52" y="354"/>
      <point x="200" y="262"/>
      <point x="382" y="186" type="curve" smooth="yes"/>
      <point x="496" y="138" type="line" smooth="yes"/>
      <point x="546" y="118"/>
      <point x="570" y="94"/>
      <point x="570" y="60" type="curve" smooth="yes"/>
      <point x="570" y="22"/>
      <point x="532" y="-2"/>
      <point x="478" y="-2" type="curve" smooth="yes"/>
      <point x="388" y="-2"/>
      <point x="284" y="34"/>
      <point x="210" y="66" type="curve"/>
      <point x="158" y="28"/>
      <point x="116" y="-78"/>
      <point x="122" y="-154" type="curve"/>
      <point x="218" y="-208"/>
      <point x="356" y="-238"/>
      <point x="482" y="-238" type="curve" smooth="yes"/>
      <point x="738" y="-238"/>
      <point x="892" y="-88"/>
      <point x="892" y="88" type="curve" smooth="yes"/>
      <point x="892" y="238"/>
      <point x="786" y="338"/>
      <point x="636" y="398" type="curve" smooth="yes"/>
      <point x="550" y="432" type="line" smooth="yes"/>
      <point x="428" y="480"/>
      <point x="362" y="526"/>
      <point x="362" y="598" type="curve" smooth="yes"/>
      <point x="362" y="666"/>
      <point x="422" y="728"/>
    </contour>
  </outline>
</glyph>
<glyph name="copyright" format="2">
  <advance width="1574"/>
  <unicode hex="00A9"/>
  <outline>
    <contour>
      <point x="60" y="682" type="curve" smooth="yes"/>
      <point x="60" y="272"/>
      <point x="376" y="-44"/>
      <point x="786" y="-44" type="curve" smooth="yes"/>
      <point x="1196" y="-44"/>
      <point x="1514" y="272"/>
      <point x="1514" y="682" type="curve" smooth="yes"/>
      <point x="1514" y="1092"/>
      <point x="1196" y="1410"/>
      <point x="786" y="1410" type="curve" smooth="yes"/>
      <point x="376" y="1410"/>
      <point x="60" y="1092"/>
    </contour>
    <contour>
      <point x="302" y="682" type="curve" smooth="yes"/>
      <point x="302" y="968"/>
      <point x="500" y="1196"/>
      <point x="786" y="1196" type="curve" smooth="yes"/>
      <point x="1072" y="1196"/>
      <point x="1272" y="968"/>
      <point x="1272" y="682" type="curve" smooth="yes"/>
      <point x="1272" y="396"/>
      <point x="1072" y="170"/>
      <point x="786" y="170" type="curve" smooth="yes"/>
      <point x="500" y="170"/>
      <point x="302" y="396"/>
    </contour>
    <contour>
      <point x="866" y="724" type="curve"/>
      <point x="886" y="716"/>
      <point x="926" y="712"/>
      <point x="954" y="712" type="curve" smooth="yes"/>
      <point x="1044" y="712"/>
      <point x="1088" y="752"/>
      <point x="1088" y="838" type="curve" smooth="yes"/>
      <point x="1088" y="974"/>
      <point x="958" y="1070"/>
      <point x="792" y="1070" type="curve" smooth="yes"/>
      <point x="628" y="1070"/>
      <point x="444" y="970"/>
      <point x="444" y="684" type="curve" smooth="yes"/>
      <point x="444" y="500"/>
      <point x="516" y="298"/>
      <point x="792" y="298" type="curve" smooth="yes"/>
      <point x="888" y="298"/>
      <point x="1016" y="346"/>
      <point x="1076" y="408" type="curve"/>
      <point x="1070" y="458"/>
      <point x="1032" y="522"/>
      <point x="992" y="550" type="curve"/>
      <point x="938" y="520"/>
      <point x="880" y="490"/>
      <point x="834" y="490" type="curve" smooth="yes"/>
      <point x="742" y="490"/>
      <point x="692" y="554"/>
      <point x="692" y="684" type="curve" smooth="yes"/>
      <point x="692" y="822"/>
      <point x="716" y="892"/>
      <point x="782" y="892" type="curve" smooth="yes"/>
      <point x="854" y="892"/>
      <point x="866" y="808"/>
    </contour>
  </outline>
</glyph>
<glyph name="ordfeminine" format="2">
  <advance width="924"/>
  <unicode hex="00AA"/>
  <outline>
    <contour>
      <point x="78" y="686" type="curve" smooth="yes"/>
      <point x="78" y="554"/>
      <point x="174" y="436"/>
      <point x="334" y="436" type="curve" smooth="yes"/>
      <point x="478" y="436"/>
      <point x="570" y="526"/>
      <point x="638" y="600" type="curve"/>
      <point x="596" y="760" type="line"/>
      <point x="550" y="688"/>
      <point x="474" y="632"/>
      <point x="416" y="632" type="curve" smooth="yes"/>
      <point x="370" y="632"/>
      <point x="338" y="664"/>
      <point x="338" y="702" type="curve" smooth="yes"/>
      <point x="338" y="760"/>
      <point x="368" y="796"/>
      <point x="430" y="796" type="curve" smooth="yes"/>
      <point x="476" y="796"/>
      <point x="548" y="792"/>
      <point x="596" y="788" type="curve"/>
      <point x="596" y="956" type="line"/>
      <point x="532" y="960"/>
      <point x="450" y="966"/>
      <point x="404" y="966" type="curve" smooth="yes"/>
      <point x="228" y="966"/>
      <point x="78" y="880"/>
    </contour>
    <contour>
      <point x="852" y="590" type="curve"/>
      <point x="810" y="608"/>
      <point x="796" y="646"/>
      <point x="796" y="698" type="curve" smooth="yes"/>
      <point x="796" y="1016" type="line" smooth="yes"/>
      <point x="796" y="1224"/>
      <point x="634" y="1296"/>
      <point x="496" y="1296" type="curve" smooth="yes"/>
      <point x="386" y="1296"/>
      <point x="232" y="1268"/>
      <point x="120" y="1222" type="curve"/>
      <point x="124" y="1158"/>
      <point x="144" y="1092"/>
      <point x="184" y="1048" type="curve"/>
      <point x="274" y="1074"/>
      <point x="340" y="1094"/>
      <point x="416" y="1094" type="curve" smooth="yes"/>
      <point x="458" y="1094"/>
      <point x="510" y="1070"/>
      <point x="510" y="1008" type="curve" smooth="yes"/>
      <point x="510" y="722" type="line" smooth="yes"/>
      <point x="510" y="550"/>
      <point x="608" y="446"/>
      <point x="754" y="446" type="curve"/>
      <point x="802" y="472"/>
      <point x="846" y="536"/>
    </contour>
  </outline>
</glyph>
<glyph name="logicalnot" format="2">
  <advance width="1080"/>
  <unicode hex="00AC"/>
  <outline>
    <contour>
      <point x="104" y="780" type="curve"/>
      <point x="956" y="780" type="line"/>
      <point x="970" y="766" type="line"/>
      <point x="970" y="520" type="line"/>
      <point x="702" y="522" type="line" smooth="yes"/>
      <point x="648" y="522"/>
      <point x="608" y="520"/>
      <point x="552" y="520" type="curve" smooth="yes"/>
      <point x="104" y="520" type="line"/>
      <point x="92" y="564"/>
      <point x="90" y="624"/>
      <point x="90" y="650" type="curve" smooth="yes"/>
      <point x="90" y="676"/>
      <point x="92" y="736"/>
    </contour>
    <contour>
      <point x="694" y="552" type="curve" smooth="yes"/>
      <point x="692" y="672" type="line"/>
      <point x="970" y="672" type="line"/>
      <point x="970" y="292" type="line"/>
      <point x="926" y="282"/>
      <point x="882" y="280"/>
      <point x="836" y="280" type="curve" smooth="yes"/>
      <point x="790" y="280"/>
      <point x="748" y="282"/>
      <point x="692" y="292" type="curve"/>
      <point x="692" y="392" type="line" smooth="yes"/>
      <point x="692" y="448"/>
      <point x="695" y="498"/>
    </contour>
  </outline>
</glyph>
<glyph name="registered" format="2">
  <advance width="1206"/>
  <unicode hex="00AE"/>
  <outline>
    <contour>
      <point x="52" y="936" type="curve" smooth="yes"/>
      <point x="52" y="626"/>
      <point x="292" y="386"/>
      <point x="602" y="386" type="curve" smooth="yes"/>
      <point x="912" y="386"/>
      <point x="1154" y="626"/>
      <point x="1154" y="936" type="curve" smooth="yes"/>
      <point x="1154" y="1246"/>
      <point x="912" y="1488"/>
      <point x="602" y="1488" type="curve" smooth="yes"/>
      <point x="292" y="1488"/>
      <point x="52" y="1246"/>
    </contour>
    <contour>
      <point x="238" y="936" type="curve" smooth="yes"/>
      <point x="238" y="1146"/>
      <point x="392" y="1318"/>
      <point x="602" y="1318" type="curve" smooth="yes"/>
      <point x="812" y="1318"/>
      <point x="968" y="1146"/>
      <point x="968" y="936" type="curve" smooth="yes"/>
      <point x="968" y="726"/>
      <point x="812" y="556"/>
      <point x="602" y="556" type="curve" smooth="yes"/>
      <point x="392" y="556"/>
      <point x="238" y="726"/>
    </contour>
    <contour>
      <point x="822" y="1056" type="curve" smooth="yes"/>
      <point x="822" y="1130"/>
      <point x="770" y="1202"/>
      <point x="616" y="1202" type="curve" smooth="yes"/>
      <point x="550" y="1202"/>
      <point x="474" y="1198"/>
      <point x="398" y="1196" type="curve"/>
      <point x="392" y="1192" type="line"/>
      <point x="392" y="698" type="line"/>
      <point x="411" y="692"/>
      <point x="442" y="689"/>
      <point x="473" y="689" type="curve" smooth="yes"/>
      <point x="504" y="689"/>
      <point x="534" y="692"/>
      <point x="552" y="698" type="curve"/>
      <point x="552" y="1082" type="line"/>
      <point x="574" y="1082"/>
      <point x="576" y="1082"/>
      <point x="598" y="1082" type="curve" smooth="yes"/>
      <point x="636" y="1082"/>
      <point x="652" y="1062"/>
      <point x="652" y="1038" type="curve" smooth="yes"/>
      <point x="652" y="1012"/>
      <point x="638" y="990"/>
      <point x="592" y="990" type="curve" smooth="yes"/>
      <point x="576" y="990"/>
      <point x="510" y="988"/>
      <point x="478" y="988" type="curve"/>
      <point x="478" y="868" type="line"/>
      <point x="560" y="868" type="line" smooth="yes"/>
      <point x="592" y="868"/>
      <point x="600" y="858"/>
      <point x="612" y="834" type="curve" smooth="yes"/>
      <point x="654" y="750" type="line" smooth="yes"/>
      <point x="676" y="706"/>
      <point x="700" y="688"/>
      <point x="742" y="688" type="curve" smooth="yes"/>
      <point x="784" y="688"/>
      <point x="832" y="712"/>
      <point x="856" y="746" type="curve"/>
      <point x="834" y="758"/>
      <point x="820" y="782"/>
      <point x="808" y="806" type="curve" smooth="yes"/>
      <point x="788" y="848" type="line" smooth="yes"/>
      <point x="776" y="874"/>
      <point x="756" y="906"/>
      <point x="722" y="920" type="curve"/>
      <point x="772" y="932"/>
      <point x="822" y="974"/>
    </contour>
  </outline>
</glyph>
<glyph name="degree" format="2">
  <advance width="808"/>
  <unicode hex="00B0"/>
  <outline>
    <contour>
      <point x="58" y="950" type="curve" smooth="yes"/>
      <point x="58" y="746"/>
      <point x="202" y="604"/>
      <point x="404" y="604" type="curve" smooth="yes"/>
      <point x="606" y="604"/>
      <point x="750" y="746"/>
      <point x="750" y="950" type="curve" smooth="yes"/>
      <point x="750" y="1154"/>
      <point x="606" y="1296"/>
      <point x="404" y="1296" type="curve" smooth="yes"/>
      <point x="202" y="1296"/>
      <point x="58" y="1154"/>
    </contour>
    <contour>
      <point x="282" y="950" type="curve" smooth="yes"/>
      <point x="282" y="1040"/>
      <point x="330" y="1096"/>
      <point x="404" y="1096" type="curve" smooth="yes"/>
      <point x="476" y="1096"/>
      <point x="524" y="1040"/>
      <point x="524" y="950" type="curve" smooth="yes"/>
      <point x="524" y="860"/>
      <point x="476" y="804"/>
      <point x="404" y="804" type="curve" smooth="yes"/>
      <point x="330" y="804"/>
      <point x="282" y="860"/>
    </contour>
  </outline>
</glyph>
<glyph name="plusminus" format="2">
  <advance width="1080"/>
  <unicode hex="00B1"/>
  <outline>
    <contour>
      <point x="136" y="852" type="curve"/>
      <point x="270" y="852" type="line" smooth="yes"/>
      <point x="324" y="852"/>
      <point x="364" y="850"/>
      <point x="416" y="850" type="curve" smooth="yes"/>
      <point x="664" y="850" type="line" smooth="yes"/>
      <point x="716" y="850"/>
      <point x="756" y="852"/>
      <point x="810" y="852" type="curve" smooth="yes"/>
      <point x="944" y="852" type="line"/>
      <point x="954" y="806"/>
      <point x="956" y="782"/>
      <point x="956" y="738" type="curve" smooth="yes"/>
      <point x="956" y="692"/>
      <point x="954" y="668"/>
      <point x="944" y="620" type="curve"/>
      <point x="810" y="620" type="line" smooth="yes"/>
      <point x="756" y="620"/>
      <point x="716" y="622"/>
      <point x="664" y="622" type="curve" smooth="yes"/>
      <point x="416" y="622" type="line" smooth="yes"/>
      <point x="364" y="622"/>
      <point x="324" y="620"/>
      <point x="270" y="620" type="curve" smooth="yes"/>
      <point x="136" y="620" type="line"/>
      <point x="126" y="668"/>
      <point x="124" y="692"/>
      <point x="124" y="738" type="curve" smooth="yes"/>
      <point x="124" y="782"/>
      <point x="126" y="806"/>
    </contour>
    <contour>
      <point x="406" y="1000" type="curve" smooth="yes"/>
      <point x="406" y="1128" type="line"/>
      <point x="452" y="1138"/>
      <point x="498" y="1140"/>
      <point x="542" y="1140" type="curve" smooth="yes"/>
      <point x="586" y="1140"/>
      <point x="630" y="1138"/>
      <point x="676" y="1128" type="curve"/>
      <point x="676" y="1000" type="line" smooth="yes"/>
      <point x="676" y="944"/>
      <point x="674" y="896"/>
      <point x="674" y="844" type="curve" smooth="yes"/>
      <point x="674" y="630" type="line" smooth="yes"/>
      <point x="674" y="578"/>
      <point x="676" y="530"/>
      <point x="676" y="476" type="curve" smooth="yes"/>
      <point x="676" y="366" type="line"/>
      <point x="630" y="356"/>
      <point x="586" y="354"/>
      <point x="542" y="354" type="curve" smooth="yes"/>
      <point x="498" y="354"/>
      <point x="452" y="356"/>
      <point x="406" y="366" type="curve"/>
      <point x="406" y="476" type="line" smooth="yes"/>
      <point x="406" y="530"/>
      <point x="408" y="578"/>
      <point x="408" y="630" type="curve" smooth="yes"/>
      <point x="408" y="844" type="line" smooth="yes"/>
      <point x="408" y="896"/>
      <point x="406" y="944"/>
    </contour>
    <contour>
      <point x="136" y="0" type="curve"/>
      <point x="944" y="0" type="line"/>
      <point x="954" y="46"/>
      <point x="956" y="78"/>
      <point x="956" y="122" type="curve" smooth="yes"/>
      <point x="956" y="168"/>
      <point x="954" y="196"/>
      <point x="944" y="242" type="curve"/>
      <point x="136" y="242" type="line"/>
      <point x="126" y="196"/>
      <point x="124" y="168"/>
      <point x="124" y="122" type="curve" smooth="yes"/>
      <point x="124" y="78"/>
      <point x="126" y="46"/>
    </contour>
  </outline>
</glyph>
<glyph name="twosuperior" format="2">
  <advance width="823"/>
  <unicode hex="00B2"/>
  <outline>
    <contour>
      <point x="77" y="1285" type="curve"/>
      <point x="108" y="1239"/>
      <point x="220" y="1200"/>
      <point x="282" y="1201" type="curve"/>
      <point x="290" y="1250"/>
      <point x="322" y="1295"/>
      <point x="368" y="1297" type="curve" smooth="yes"/>
      <point x="408" y="1299"/>
      <point x="433" y="1272"/>
      <point x="433" y="1232" type="curve" smooth="yes"/>
      <point x="433" y="1170"/>
      <point x="387" y="1135"/>
      <point x="341" y="1100" type="curve" smooth="yes"/>
      <point x="212" y="1002" type="line" smooth="yes"/>
      <point x="139" y="946"/>
      <point x="69" y="871"/>
      <point x="69" y="784" type="curve" smooth="yes"/>
      <point x="69" y="741"/>
      <point x="87" y="704"/>
      <point x="154" y="623" type="curve"/>
      <point x="326" y="623" type="line"/>
      <point x="326" y="784" type="line" smooth="yes"/>
      <point x="326" y="816"/>
      <point x="389" y="857"/>
      <point x="456" y="903" type="curve" smooth="yes"/>
      <point x="530" y="954" type="line" smooth="yes"/>
      <point x="584" y="991"/>
      <point x="704" y="1079"/>
      <point x="704" y="1241" type="curve" smooth="yes"/>
      <point x="704" y="1407"/>
      <point x="579" y="1525"/>
      <point x="394" y="1525" type="curve" smooth="yes"/>
      <point x="223" y="1525"/>
      <point x="105" y="1424"/>
    </contour>
    <contour>
      <point x="730" y="857" type="curve"/>
      <point x="632" y="857" type="line" smooth="yes"/>
      <point x="420" y="857"/>
      <point x="287" y="830"/>
      <point x="170" y="776" type="curve"/>
      <point x="198" y="623" type="line"/>
      <point x="565" y="623" type="line" smooth="yes"/>
      <point x="663" y="623"/>
      <point x="730" y="648"/>
    </contour>
  </outline>
</glyph>
<glyph name="threesuperior" format="2">
  <advance width="824"/>
  <unicode hex="00B3"/>
  <outline>
    <contour>
      <point x="457" y="912" type="curve" smooth="yes"/>
      <point x="457" y="861"/>
      <point x="416" y="823"/>
      <point x="349" y="823" type="curve" smooth="yes"/>
      <point x="284" y="823"/>
      <point x="232" y="850"/>
      <point x="187" y="884" type="curve"/>
      <point x="135" y="841"/>
      <point x="92" y="770"/>
      <point x="80" y="711" type="curve"/>
      <point x="146" y="653"/>
      <point x="251" y="613"/>
      <point x="371" y="613" type="curve" smooth="yes"/>
      <point x="562" y="613"/>
      <point x="729" y="719"/>
      <point x="729" y="910" type="curve" smooth="yes"/>
      <point x="729" y="1066"/>
      <point x="596" y="1164"/>
      <point x="459" y="1164" type="curve" smooth="yes"/>
      <point x="381" y="1164"/>
      <point x="299" y="1153"/>
      <point x="195" y="1131" type="curve"/>
      <point x="208" y="1078"/>
      <point x="256" y="1012"/>
      <point x="304" y="991" type="curve"/>
      <point x="321" y="995"/>
      <point x="338" y="999"/>
      <point x="359" y="999" type="curve" smooth="yes"/>
      <point x="415" y="999"/>
      <point x="457" y="964"/>
    </contour>
    <contour>
      <point x="575" y="1189" type="curve" smooth="yes"/>
      <point x="623" y="1227" type="line" smooth="yes"/>
      <point x="667" y="1262"/>
      <point x="694" y="1292"/>
      <point x="694" y="1350" type="curve" smooth="yes"/>
      <point x="694" y="1405"/>
      <point x="663" y="1467"/>
      <point x="637" y="1511" type="curve"/>
      <point x="136" y="1511" type="line"/>
      <point x="117" y="1465"/>
      <point x="112" y="1419"/>
      <point x="112" y="1385" type="curve" smooth="yes"/>
      <point x="112" y="1358"/>
      <point x="115" y="1329"/>
      <point x="124" y="1293" type="curve"/>
      <point x="248" y="1293" type="line" smooth="yes"/>
      <point x="277" y="1293"/>
      <point x="361" y="1297"/>
      <point x="398" y="1304" type="curve"/>
      <point x="403" y="1297" type="line"/>
      <point x="378" y="1279"/>
      <point x="345" y="1255"/>
      <point x="316" y="1231" type="curve" smooth="yes"/>
      <point x="195" y="1131" type="line"/>
      <point x="336" y="1077" type="line"/>
      <point x="437" y="1101"/>
      <point x="535" y="1158"/>
    </contour>
  </outline>
</glyph>
<glyph name="micro" format="2">
  <advance width="1104"/>
  <unicode hex="00B5"/>
  <outline>
    <contour>
      <point x="228" y="484" type="line"/>
      <point x="436" y="484" type="line"/>
      <point x="436" y="394" type="line" smooth="yes"/>
      <point x="436" y="314"/>
      <point x="464" y="256"/>
      <point x="542" y="256" type="curve" smooth="yes"/>
      <point x="622" y="256"/>
      <point x="674" y="320"/>
      <point x="718" y="428" type="curve"/>
      <point x="746" y="178" type="line"/>
      <point x="712" y="66"/>
      <point x="628" y="-18"/>
      <point x="504" y="-18" type="curve" smooth="yes"/>
      <point x="342" y="-18"/>
      <point x="228" y="172"/>
      <point x="228" y="356" type="curve" smooth="yes"/>
    </contour>
    <contour>
      <point x="982" y="1000" type="curve"/>
      <point x="982" y="288" type="line" smooth="yes"/>
      <point x="982" y="226"/>
      <point x="1006" y="170"/>
      <point x="1038" y="148" type="curve"/>
      <point x="1026" y="90"/>
      <point x="980" y="16"/>
      <point x="940" y="-16" type="curve"/>
      <point x="756" y="-16"/>
      <point x="654" y="124"/>
      <point x="654" y="296" type="curve" smooth="yes"/>
      <point x="654" y="1000" type="line"/>
      <point x="700" y="1008"/>
      <point x="762" y="1012"/>
      <point x="818" y="1012" type="curve" smooth="yes"/>
      <point x="872" y="1012"/>
      <point x="934" y="1008"/>
    </contour>
    <contour>
      <point x="436" y="1000" type="curve"/>
      <point x="436" y="166" type="line"/>
      <point x="414" y="166" type="line"/>
      <point x="414" y="-216" type="line" smooth="yes"/>
      <point x="414" y="-344"/>
      <point x="394" y="-438"/>
      <point x="258" y="-438" type="curve" smooth="yes"/>
      <point x="178" y="-438"/>
      <point x="116" y="-414"/>
      <point x="60" y="-372" type="curve"/>
      <point x="104" y="-312"/>
      <point x="112" y="-212"/>
      <point x="112" y="-166" type="curve" smooth="yes"/>
      <point x="112" y="1000" type="line"/>
      <point x="158" y="1008"/>
      <point x="220" y="1012"/>
      <point x="276" y="1012" type="curve" smooth="yes"/>
      <point x="330" y="1012"/>
      <point x="388" y="1008"/>
    </contour>
  </outline>
</glyph>
<glyph name="paragraph" format="2">
  <advance width="1524"/>
  <unicode hex="00B6"/>
  <outline>
    <contour>
      <point x="548" y="128" type="curve" smooth="yes"/>
      <point x="548" y="468" type="line"/>
      <point x="526" y="468" type="line" smooth="yes"/>
      <point x="262" y="468"/>
      <point x="48" y="614"/>
      <point x="48" y="926" type="curve" smooth="yes"/>
      <point x="48" y="1254"/>
      <point x="260" y="1378"/>
      <point x="546" y="1378" type="curve" smooth="yes"/>
      <point x="650" y="1378"/>
      <point x="744" y="1372"/>
      <point x="862" y="1368" type="curve"/>
      <point x="876" y="1354" type="line"/>
      <point x="876" y="196" type="line" smooth="yes"/>
      <point x="876" y="-149"/>
      <point x="750" y="-320"/>
      <point x="402" y="-320" type="curve" smooth="yes"/>
      <point x="282" y="-320"/>
      <point x="170" y="-294"/>
      <point x="104" y="-270" type="curve"/>
      <point x="102" y="-212"/>
      <point x="124" y="-100"/>
      <point x="170" y="-36" type="curve"/>
      <point x="232" y="-56"/>
      <point x="304" y="-76"/>
      <point x="370" y="-76" type="curve" smooth="yes"/>
      <point x="504" y="-76"/>
      <point x="548" y="-8"/>
    </contour>
    <contour>
      <point x="996" y="1352" type="line"/>
      <point x="996" y="-260" type="line"/>
      <point x="1050" y="-272"/>
      <point x="1126" y="-274"/>
      <point x="1166" y="-274" type="curve" smooth="yes"/>
      <point x="1210" y="-274"/>
      <point x="1272" y="-272"/>
      <point x="1328" y="-260" type="curve"/>
      <point x="1328" y="1366" type="line"/>
      <point x="1010" y="1366" type="line"/>
    </contour>
    <contour>
      <point x="1164" y="1366" type="line"/>
      <point x="1164" y="1092" type="line"/>
      <point x="1268" y="1092" type="line" smooth="yes"/>
      <point x="1326" y="1092"/>
      <point x="1382" y="1086"/>
      <point x="1440" y="1086" type="curve" smooth="yes"/>
      <point x="1490" y="1086" type="line"/>
      <point x="1510" y="1148"/>
      <point x="1510" y="1304"/>
      <point x="1490" y="1366" type="curve"/>
    </contour>
  </outline>
</glyph>
<glyph name="onesuperior" format="2">
  <advance width="823"/>
  <unicode hex="00B9"/>
  <outline>
    <contour>
      <point x="586" y="748" type="line"/>
      <point x="586" y="1505" type="line"/>
      <point x="536" y="1513"/>
      <point x="502" y="1517"/>
      <point x="461" y="1517" type="curve" smooth="yes"/>
      <point x="421" y="1517"/>
      <point x="378" y="1513"/>
      <point x="334" y="1505" type="curve"/>
      <point x="336" y="1254" type="line" smooth="yes"/>
      <point x="337" y="1173"/>
      <point x="326" y="1037"/>
      <point x="326" y="994" type="curve" smooth="yes"/>
      <point x="326" y="748" type="line"/>
    </contour>
    <contour>
      <point x="226" y="841" type="curve" smooth="yes"/>
      <point x="130" y="841" type="line"/>
      <point x="122" y="807"/>
      <point x="118" y="763"/>
      <point x="118" y="731" type="curve" smooth="yes"/>
      <point x="118" y="694"/>
      <point x="122" y="658"/>
      <point x="130" y="623" type="curve"/>
      <point x="744" y="623" type="line"/>
      <point x="755" y="657"/>
      <point x="758" y="698"/>
      <point x="758" y="731" type="curve" smooth="yes"/>
      <point x="758" y="768"/>
      <point x="754" y="807"/>
      <point x="744" y="841" type="curve"/>
      <point x="696" y="841" type="line" smooth="yes"/>
      <point x="672" y="841"/>
      <point x="611" y="841"/>
      <point x="586" y="841" type="curve" smooth="yes"/>
      <point x="326" y="841" type="line" smooth="yes"/>
      <point x="305" y="841"/>
      <point x="253" y="841"/>
    </contour>
    <contour>
      <point x="57" y="1213" type="curve"/>
      <point x="69" y="1155"/>
      <point x="118" y="1079"/>
      <point x="178" y="1050" type="curve"/>
      <point x="325" y="1120"/>
      <point x="379" y="1192"/>
      <point x="419" y="1354" type="curve"/>
      <point x="334" y="1505" type="line"/>
      <point x="274" y="1380"/>
      <point x="209" y="1307"/>
    </contour>
  </outline>
</glyph>
<glyph name="ordmasculine" format="2">
  <advance width="924"/>
  <unicode hex="00BA"/>
  <outline>
    <contour>
      <point x="840" y="866" type="curve" smooth="yes"/>
      <point x="840" y="996"/>
      <point x="808" y="1114"/>
      <point x="718" y="1204" type="curve" smooth="yes"/>
      <point x="656" y="1266"/>
      <point x="562" y="1296"/>
      <point x="462" y="1296" type="curve" smooth="yes"/>
      <point x="358" y="1296"/>
      <point x="268" y="1266"/>
      <point x="206" y="1204" type="curve" smooth="yes"/>
      <point x="116" y="1114"/>
      <point x="84" y="996"/>
      <point x="84" y="866" type="curve" smooth="yes"/>
      <point x="84" y="736"/>
      <point x="116" y="616"/>
      <point x="206" y="526" type="curve" smooth="yes"/>
      <point x="268" y="464"/>
      <point x="358" y="434"/>
      <point x="462" y="434" type="curve" smooth="yes"/>
      <point x="562" y="434"/>
      <point x="656" y="464"/>
      <point x="718" y="526" type="curve" smooth="yes"/>
      <point x="808" y="616"/>
      <point x="840" y="736"/>
    </contour>
    <contour>
      <point x="352" y="866" type="curve" smooth="yes"/>
      <point x="352" y="1004"/>
      <point x="380" y="1092"/>
      <point x="462" y="1092" type="curve" smooth="yes"/>
      <point x="544" y="1092"/>
      <point x="572" y="1004"/>
      <point x="572" y="866" type="curve" smooth="yes"/>
      <point x="572" y="728"/>
      <point x="544" y="638"/>
      <point x="462" y="638" type="curve" smooth="yes"/>
      <point x="380" y="638"/>
      <point x="352" y="728"/>
    </contour>
  </outline>
</glyph>
<glyph name="Aring" format="2">
  <advance width="1284"/>
  <unicode hex="00C5"/>
  <anchor x="648" y="0" name="bottom"/>
  <anchor x="1270" y="22" name="ogonek"/>
  <anchor x="648" y="1866" name="top"/>
  <outline>
    <contour>
      <point x="459" y="1382" type="line"/>
      <point x="14" y="26" type="line"/>
      <point x="26" y="8" type="line"/>
      <point x="64" y="-6"/>
      <point x="138" y="-14"/>
      <point x="188" y="-14" type="curve" smooth="yes"/>
      <point x="240" y="-14"/>
      <point x="288" y="-12"/>
      <point x="330" y="-2" type="curve"/>
      <point x="524" y="668" type="line" smooth="yes"/>
      <point x="556" y="782"/>
      <point x="604" y="948"/>
      <point x="624" y="1062" type="curve"/>
      <point x="636" y="1062" type="line"/>
      <point x="670" y="926"/>
      <point x="716" y="756"/>
      <point x="746" y="644" type="curve" smooth="yes"/>
      <point x="878" y="164" type="line" smooth="yes"/>
      <point x="918" y="20"/>
      <point x="972" y="-18"/>
      <point x="1078" y="-18" type="curve" smooth="yes"/>
      <point x="1140" y="-18"/>
      <point x="1224" y="-4"/>
      <point x="1270" y="22" type="curve"/>
      <point x="837" y="1382" type="line"/>
    </contour>
    <contour>
      <point x="486" y="280" type="curve" smooth="yes"/>
      <point x="772" y="280" type="line" smooth="yes"/>
      <point x="802" y="280"/>
      <point x="840" y="282"/>
      <point x="870" y="282" type="curve" smooth="yes"/>
      <point x="1048" y="282" type="line"/>
      <point x="964" y="542" type="line"/>
      <point x="802" y="542" type="line" smooth="yes"/>
      <point x="772" y="542"/>
      <point x="734" y="544"/>
      <point x="704" y="544" type="curve" smooth="yes"/>
      <point x="566" y="544" type="line" smooth="yes"/>
      <point x="536" y="544"/>
      <point x="498" y="542"/>
      <point x="468" y="542" type="curve" smooth="yes"/>
      <point x="312" y="542" type="line"/>
      <point x="210" y="282" type="line"/>
      <point x="388" y="282" type="line" smooth="yes"/>
      <point x="418" y="282"/>
      <point x="456" y="280"/>
    </contour>
    <contour>
      <point x="360" y="1578" type="curve" smooth="yes"/>
      <point x="360" y="1434"/>
      <point x="472" y="1318"/>
      <point x="648" y="1318" type="curve" smooth="yes"/>
      <point x="824" y="1318"/>
      <point x="936" y="1434"/>
      <point x="936" y="1578" type="curve" smooth="yes"/>
      <point x="936" y="1722"/>
      <point x="824" y="1838"/>
      <point x="648" y="1838" type="curve" smooth="yes"/>
      <point x="472" y="1838"/>
      <point x="360" y="1722"/>
    </contour>
    <contour>
      <point x="550" y="1578" type="curve" smooth="yes"/>
      <point x="550" y="1634"/>
      <point x="588" y="1678"/>
      <point x="648" y="1678" type="curve" smooth="yes"/>
      <point x="708" y="1678"/>
      <point x="746" y="1634"/>
      <point x="746" y="1578" type="curve" smooth="yes"/>
      <point x="746" y="1522"/>
      <point x="708" y="1478"/>
      <point x="648" y="1478" type="curve" smooth="yes"/>
      <point x="588" y="1478"/>
      <point x="550" y="1522"/>
    </contour>
  </outline>
</glyph>
<glyph name="AE" format="2">
  <advance width="1776"/>
  <unicode hex="00C6"/>
  <anchor x="939" y="1464" name="top"/>
  <outline>
    <contour>
      <point x="588" y="1338" type="curve"/>
      <point x="6" y="28" type="line"/>
      <point x="18" y="10" type="line"/>
      <point x="58" y="-6"/>
      <point x="134" y="-12"/>
      <point x="190" y="-12" type="curve" smooth="yes"/>
      <point x="242" y="-12"/>
      <point x="294" y="-12"/>
      <point x="344" y="0" type="curve"/>
      <point x="614" y="666" type="line" smooth="yes"/>
      <point x="666" y="788"/>
      <point x="724" y="940"/>
      <point x="768" y="1062" type="curve"/>
      <point x="780" y="1062" type="line"/>
      <point x="988" y="1366" type="line"/>
      <point x="790" y="1366" type="line"/>
      <point x="726" y="1366"/>
      <point x="636" y="1360"/>
    </contour>
    <contour>
      <point x="536" y="280" type="curve" smooth="yes"/>
      <point x="712" y="280" type="line" smooth="yes"/>
      <point x="742" y="280"/>
      <point x="780" y="282"/>
      <point x="810" y="282" type="curve" smooth="yes"/>
      <point x="932" y="282" type="line"/>
      <point x="932" y="538" type="line"/>
      <point x="808" y="538" type="line" smooth="yes"/>
      <point x="778" y="538"/>
      <point x="740" y="540"/>
      <point x="710" y="540" type="curve" smooth="yes"/>
      <point x="630" y="540" type="line" smooth="yes"/>
      <point x="600" y="540"/>
      <point x="562" y="538"/>
      <point x="532" y="538" type="curve" smooth="yes"/>
      <point x="404" y="538" type="line"/>
      <point x="292" y="282" type="line"/>
      <point x="428" y="282" type="line" smooth="yes"/>
      <point x="458" y="282"/>
      <point x="506" y="280"/>
    </contour>
    <contour>
      <point x="776" y="1352" type="line"/>
      <point x="776" y="188" type="line" smooth="yes"/>
      <point x="776" y="68"/>
      <point x="846" y="-6"/>
      <point x="966" y="-6" type="curve" smooth="yes"/>
      <point x="1098" y="-6" type="line"/>
      <point x="1098" y="272" type="line" smooth="yes"/>
      <point x="1098" y="328"/>
      <point x="1100" y="372"/>
      <point x="1100" y="426" type="curve" smooth="yes"/>
      <point x="1100" y="940" type="line" smooth="yes"/>
      <point x="1100" y="994"/>
      <point x="1098" y="1034"/>
      <point x="1098" y="1090" type="curve" smooth="yes"/>
      <point x="1098" y="1366" type="line"/>
      <point x="790" y="1366" type="line"/>
    </contour>
    <contour>
      <point x="1538" y="822" type="curve"/>
      <point x="1236" y="822" type="line" smooth="yes"/>
      <point x="1186" y="822"/>
      <point x="1054" y="820"/>
      <point x="990" y="818" type="curve"/>
      <point x="990" y="554" type="line"/>
      <point x="1054" y="552"/>
      <point x="1186" y="550"/>
      <point x="1236" y="550" type="curve" smooth="yes"/>
      <point x="1538" y="550" type="line"/>
      <point x="1552" y="592"/>
      <point x="1558" y="648"/>
      <point x="1558" y="686" type="curve" smooth="yes"/>
      <point x="1558" y="722"/>
      <point x="1552" y="782"/>
    </contour>
    <contour>
      <point x="1658" y="1366" type="curve"/>
      <point x="990" y="1366" type="line"/>
      <point x="990" y="1090" type="line"/>
      <point x="1054" y="1088"/>
      <point x="1186" y="1086"/>
      <point x="1236" y="1086" type="curve" smooth="yes"/>
      <point x="1642" y="1086" type="line"/>
      <point x="1660" y="1136"/>
      <point x="1670" y="1196"/>
      <point x="1670" y="1234" type="curve" smooth="yes"/>
      <point x="1670" y="1272"/>
      <point x="1668" y="1316"/>
    </contour>
    <contour>
      <point x="1710" y="274" type="curve"/>
      <point x="1248" y="274" type="line" smooth="yes"/>
      <point x="1148" y="274"/>
      <point x="1080" y="268"/>
      <point x="990" y="264" type="curve"/>
      <point x="990" y="-6" type="line"/>
      <point x="1490" y="-6" type="line" smooth="yes"/>
      <point x="1647" y="-6"/>
      <point x="1710" y="64"/>
    </contour>
  </outline>
</glyph>
